<svg width="158" height="29" viewBox="0 0 158 29" fill="none" xmlns="http://www.w3.org/2000/svg">
<g clip-path="url(#clip0_84_39)">
<path d="M27.2639 0.923218H0.259766V28.4924H27.2639V0.923218Z" fill="#FF0014"/>
<path d="M6.40474 23.797C6.40474 25.0462 5.40939 26.037 4.1544 26.037C2.8994 26.037 1.90405 25.0462 1.90405 23.8401C1.90405 22.5908 2.8994 21.6001 4.1544 21.6001C5.36612 21.557 6.40474 22.5908 6.40474 23.797Z" fill="white"/>
<path d="M12.8095 23.797C12.8095 25.0462 11.8142 26.037 10.5592 26.037C9.30418 26.037 8.30884 25.0462 8.30884 23.797C8.30884 22.5478 9.30418 21.557 10.5592 21.557C11.8142 21.557 12.8095 22.5909 12.8095 23.797Z" fill="white"/>
<path d="M19.2578 23.797C19.2578 25.0462 18.2624 26.037 17.0074 26.037C15.7524 26.037 14.7571 25.0462 14.7571 23.797C14.7571 22.5478 15.7524 21.557 17.0074 21.557C18.2624 21.557 19.2578 22.5909 19.2578 23.797Z" fill="white"/>
<path d="M25.7058 23.797C25.7058 25.0462 24.7104 26.037 23.4554 26.037C22.2004 26.037 21.2051 25.0462 21.2051 23.797C21.2051 22.5478 22.2004 21.557 23.4554 21.557C24.7104 21.557 25.7058 22.5909 25.7058 23.797Z" fill="white"/>
<path d="M45.7859 14.1909V28.1478H43.7952V21.7294H37.0442V28.1048H35.0535V14.1909H37.0442V20.0494H43.8385V14.1909H45.7859Z" fill="#182E46"/>
<path d="M49.6375 18.6709C50.2001 18.3262 50.7627 18.1109 51.3253 17.9816C51.8446 17.8093 52.4937 17.7662 53.0563 17.7662C54.0516 17.7662 54.7873 17.9385 55.523 18.2832C56.1721 18.6278 56.6482 19.1447 56.8646 19.8339C57.0809 20.3939 57.1675 21.3416 57.1675 22.677V24.6585C57.1675 25.4339 57.1675 26.1232 57.1675 26.6832C57.1675 27.2432 57.2108 27.717 57.2108 28.1478H55.4797C55.4797 27.9324 55.4797 27.6309 55.4797 27.3293C55.4797 26.9847 55.4797 26.6401 55.4797 26.3385C55.0902 26.9847 54.6142 27.5016 54.0949 27.8032C53.5756 28.1047 52.8832 28.277 52.0609 28.277C51.3685 28.277 50.7194 28.1478 50.2001 27.8893C49.6808 27.6739 49.248 27.2432 48.9884 26.7693C48.6854 26.2955 48.5989 25.7785 48.5989 25.1324C48.5989 24.6155 48.7287 24.1416 48.9451 23.6678C49.1615 23.2801 49.5077 22.8924 49.9837 22.6339C50.4597 22.3324 50.979 22.117 51.6715 21.9878C52.3206 21.8585 53.1428 21.7724 53.9651 21.7724C54.4844 21.7724 54.9604 21.7724 55.4365 21.8155C55.4365 20.9539 55.2201 20.3078 54.7873 19.877C54.3978 19.4893 53.7487 19.2309 52.8399 19.2309C52.2773 19.2309 51.8013 19.2739 51.3253 19.4462C50.8492 19.6185 50.3732 19.8339 49.8106 20.2216L49.6375 18.6709ZM55.3932 23.2801C55.0037 23.237 54.6142 23.237 54.3546 23.237C51.8446 23.237 50.5463 23.8832 50.5463 25.1755C50.5463 25.477 50.5896 25.7355 50.7627 25.9939C50.9358 26.2093 51.1521 26.3816 51.4551 26.5539C51.758 26.6832 52.1042 26.7693 52.4937 26.7693C53.1861 26.7693 53.792 26.597 54.1815 26.2955C54.5709 25.9939 54.8739 25.6062 55.047 25.0893C55.3066 24.5724 55.3932 24.0124 55.3932 23.2801Z" fill="#182E46"/>
<path d="M62.1444 13.0709V20.2647C62.1012 20.9109 62.1012 21.4709 62.1012 22.117C62.231 21.9878 62.4906 21.7293 62.9667 21.1693L66.2989 17.8524H68.8522L64.0486 22.3755L69.5013 28.0617H66.8182L63.3562 24.2709C63.183 24.0555 62.9667 23.797 62.6637 23.4524C62.4474 23.1078 62.1877 22.8924 62.1012 22.7632C62.1012 22.9355 62.1444 23.1509 62.1444 23.5386C62.1444 23.8832 62.1444 24.0986 62.1444 24.314V28.0186H60.197V12.9417H62.1444V13.0709Z" fill="#182E46"/>
<path d="M71.6648 18.6709C72.2274 18.3262 72.79 18.1109 73.3526 17.9816C73.8719 17.8093 74.521 17.7662 75.0836 17.7662C76.079 17.7662 76.8147 17.9385 77.5504 18.2832C78.1995 18.6278 78.6755 19.1447 78.8919 19.8339C79.1083 20.3939 79.1948 21.3416 79.1948 22.677V24.6585C79.1948 25.4339 79.1948 26.1232 79.1948 26.6832C79.1948 27.2432 79.2381 27.717 79.2381 28.1478H77.5071C77.5071 27.9324 77.5071 27.6309 77.5071 27.3293C77.5071 26.9847 77.5071 26.6401 77.5071 26.3385C77.1176 26.9847 76.6416 27.5016 76.1222 27.8032C75.6029 28.1047 74.9105 28.277 74.0883 28.277C73.3959 28.277 72.7467 28.1478 72.2274 27.8893C71.7081 27.6739 71.2754 27.2432 71.0157 26.7693C70.7128 26.2955 70.6262 25.7785 70.6262 25.1324C70.6262 24.6155 70.756 24.1416 70.9724 23.6678C71.1888 23.2801 71.535 22.8924 72.011 22.6339C72.4871 22.3324 73.0064 22.117 73.6988 21.9878C74.3479 21.8585 75.1702 21.7724 75.9924 21.7724C76.5117 21.7724 76.9878 21.7724 77.4638 21.8155C77.4638 20.9539 77.2474 20.3078 76.8147 19.877C76.4252 19.4893 75.776 19.2309 74.8673 19.2309C74.3047 19.2309 73.8286 19.2739 73.3526 19.4462C72.8766 19.6185 72.4005 19.8339 71.8379 20.2216L71.6648 18.6709ZM77.4638 23.2801C77.0743 23.237 76.6848 23.237 76.4252 23.237C73.9152 23.237 72.6169 23.8832 72.6169 25.1755C72.6169 25.477 72.6602 25.7355 72.8333 25.9939C73.0064 26.2093 73.2228 26.3816 73.5257 26.5539C73.8286 26.6832 74.1748 26.7693 74.5643 26.7693C75.2567 26.7693 75.8626 26.597 76.2521 26.2955C76.6416 25.9939 76.9445 25.6062 77.1176 25.0893C77.334 24.5724 77.4638 24.0124 77.4638 23.2801Z" fill="#182E46"/>
<path d="M93.2595 14.7509L93.1296 16.6894C92.5671 16.3878 92.0045 16.1724 91.4419 16.0001C90.8793 15.8709 90.2734 15.7847 89.581 15.7847C88.4559 15.7847 87.4605 16.0001 86.595 16.474C85.7295 16.9478 85.0803 17.594 84.6043 18.3263C84.1283 19.1447 83.9119 20.0494 83.9119 21.0401C83.9119 22.074 84.1283 23.0647 84.6043 23.8832C85.0803 24.7017 85.7728 25.3478 86.6383 25.8217C87.5038 26.2955 88.4991 26.5109 89.6243 26.5109C90.1869 26.5109 90.836 26.3817 91.5717 26.2094V22.1601H88.5857V20.4801H93.6057V27.5878C92.9133 27.8032 92.2208 27.9755 91.615 28.1047C90.9658 28.234 90.3167 28.277 89.6243 28.277C88.4559 28.277 87.4172 28.1047 86.4219 27.8032C85.4698 27.4586 84.6909 26.9847 83.9552 26.3386C83.2628 25.6924 82.7434 24.9601 82.3972 24.0555C82.051 23.194 81.8779 22.2032 81.8779 21.0832C81.8779 19.6186 82.2241 18.3694 82.8733 17.2924C83.5657 16.2586 84.4312 15.4401 85.5997 14.9232C86.7681 14.4063 88.0664 14.1047 89.4945 14.1047C90.8793 14.1047 92.1776 14.277 93.2595 14.7509Z" fill="#182E46"/>
<path d="M98.0197 23.5386C98.1496 24.5294 98.539 25.3478 99.1449 25.9078C99.794 26.4678 100.53 26.7694 101.482 26.7694C102.001 26.7694 102.607 26.7263 103.04 26.554C103.559 26.3817 104.078 26.1663 104.684 25.8648V27.674C104.035 27.9755 103.516 28.1478 102.996 28.234C102.477 28.3632 101.958 28.4063 101.439 28.4063C100.616 28.4063 99.9239 28.2771 99.2747 28.0186C98.6256 27.8032 98.063 27.3725 97.587 26.8986C97.1109 26.4248 96.7647 25.8648 96.5484 25.1755C96.332 24.4863 96.2021 23.7109 96.2021 22.8925C96.2021 21.8586 96.3753 20.9109 96.7647 20.0925C97.1542 19.274 97.7601 18.714 98.4525 18.2401C99.2315 17.7663 100.01 17.594 100.962 17.594C102.088 17.594 102.953 17.8955 103.646 18.4125C104.295 18.9294 104.771 19.7048 105.03 20.5663C105.333 21.4278 105.42 22.4186 105.42 23.4525H98.0197V23.5386ZM98.0197 22.0309H103.516C103.472 21.4709 103.343 20.9971 103.126 20.5663C102.953 20.1786 102.65 19.7909 102.261 19.5325C101.915 19.3171 101.439 19.1448 100.876 19.1448C100.097 19.1448 99.4911 19.3601 99.0151 19.9201C98.4958 20.4371 98.1063 21.1694 98.0197 22.0309Z" fill="#182E46"/>
<path d="M107.714 17.8955H109.445L109.574 19.7047C109.877 19.0585 110.267 18.5847 110.786 18.2401C111.306 17.8955 111.825 17.7231 112.517 17.7231C112.863 17.7231 113.21 17.7662 113.556 17.8524V19.5755C113.21 19.4462 112.907 19.4031 112.69 19.4031C112.041 19.4031 111.479 19.5755 111.046 19.9631C110.57 20.3508 110.267 20.8247 110.094 21.4278C109.921 21.9878 109.791 22.6339 109.791 23.2801V24.0555V28.0616H107.93V21.9016C107.887 20.9108 107.8 19.5755 107.714 17.8955Z" fill="#182E46"/>
<path d="M125.154 23.0647C125.154 24.0985 124.937 25.0462 124.461 25.8647C123.985 26.6832 123.336 27.3293 122.6 27.8032C121.821 28.277 120.869 28.4924 119.874 28.4924C118.879 28.4924 117.927 28.277 117.191 27.8032C116.412 27.3293 115.806 26.6832 115.33 25.8647C114.854 25.0462 114.638 24.1416 114.638 23.1509C114.638 22.3324 114.768 21.6432 115.027 20.997C115.244 20.3509 115.676 19.7909 116.152 19.2739C116.628 18.8001 117.191 18.4124 117.84 18.1539C118.489 17.8955 119.182 17.7662 119.961 17.7662C120.74 17.7662 121.432 17.8955 122.081 18.1539C122.73 18.3693 123.293 18.8001 123.769 19.2739C124.245 19.7478 124.591 20.3078 124.894 20.997C125.197 21.6862 125.154 22.2462 125.154 23.0647ZM123.163 23.1078C123.163 22.5478 123.12 21.9878 122.947 21.557C122.774 21.0401 122.557 20.6093 122.254 20.2647C121.951 19.9201 121.605 19.6185 121.216 19.4462C120.826 19.2739 120.393 19.1447 119.917 19.1447C118.965 19.1447 118.23 19.4893 117.58 20.2647C116.931 21.0401 116.628 21.9447 116.628 23.0647C116.628 23.8401 116.758 24.4432 117.018 25.0893C117.321 25.6493 117.667 26.1232 118.186 26.4678C118.706 26.8124 119.225 26.9416 119.874 26.9416C120.437 26.9416 121.043 26.7693 121.519 26.4678C121.995 26.1232 122.384 25.6924 122.687 25.0893C122.99 24.4432 123.163 23.8401 123.163 23.1078Z" fill="#182E46"/>
<path d="M136.622 13.0709V23.3663C136.622 23.8832 136.622 24.7017 136.665 25.7355C136.708 26.7694 136.708 27.5878 136.795 28.1048H134.934V26.3817C134.545 27.0278 133.982 27.5017 133.419 27.7602C132.857 28.0186 132.121 28.234 131.385 28.234C130.52 28.234 129.698 28.0186 129.005 27.5878C128.313 27.2002 127.794 26.554 127.447 25.7786C127.101 25.0032 126.928 24.0986 126.928 22.9786C126.928 22.1602 127.058 21.4709 127.231 20.8248C127.447 20.1786 127.75 19.6186 128.183 19.1448C128.572 18.6709 129.049 18.2832 129.654 18.0248C130.174 17.8094 130.823 17.6802 131.472 17.6802C132.943 17.6802 134.025 18.2402 134.847 19.4894C134.847 19.3602 134.847 19.274 134.847 19.1017C134.847 18.9294 134.847 18.7571 134.804 18.5848C134.804 18.4125 134.804 18.2402 134.804 18.1971V13.114L136.622 13.0709ZM131.818 19.3602C131.429 19.3602 130.996 19.4894 130.65 19.6617C130.303 19.834 130.001 20.0494 129.698 20.4371C129.395 20.8248 129.222 21.2125 129.049 21.6432C128.919 22.1171 128.832 22.5909 128.832 23.1078C128.832 24.1417 129.135 25.0463 129.654 25.7355C130.174 26.4248 130.866 26.7694 131.775 26.7694C132.337 26.7694 132.813 26.5971 133.29 26.2955C133.766 25.994 134.112 25.5202 134.328 24.9602C134.545 24.4002 134.718 23.7971 134.718 23.1078C134.718 22.4186 134.588 21.8155 134.328 21.2555C134.068 20.6955 133.766 20.2648 133.29 19.9202C132.813 19.5325 132.337 19.3602 131.818 19.3602Z" fill="#182E46"/>
<path d="M148.523 17.9386V24.4001C148.523 24.9601 148.566 26.2094 148.652 28.1909H146.921L146.878 26.6401C146.489 27.2001 145.926 27.6309 145.363 27.9324C144.801 28.234 144.152 28.3201 143.373 28.3201C141.988 28.3201 140.993 27.8463 140.387 26.9848C139.824 26.1232 139.564 24.874 139.564 23.3663V17.9386H141.512V22.7201C141.512 23.0648 141.512 23.4955 141.512 23.8832C141.512 24.2709 141.555 24.5724 141.555 24.8309C141.555 25.0463 141.598 25.2186 141.728 25.4771C141.901 25.9509 142.204 26.2955 142.55 26.5109C142.897 26.7263 143.329 26.8555 143.762 26.8555C144.238 26.8555 144.584 26.7263 144.931 26.6401C145.277 26.4678 145.58 26.2524 145.883 25.8648C146.099 25.5201 146.359 25.1755 146.445 24.7017C146.532 24.2278 146.662 23.754 146.662 23.194V22.5048V18.0248C146.662 17.9386 148.523 17.9386 148.523 17.9386Z" fill="#182E46"/>
<path d="M151.638 17.8955H153.369L153.499 19.7047C153.802 19.0585 154.192 18.5847 154.711 18.2401C155.23 17.8955 155.75 17.7231 156.442 17.7231C156.788 17.7231 157.134 17.7662 157.481 17.8524V19.5755C157.134 19.4462 156.832 19.4031 156.615 19.4031C155.966 19.4031 155.403 19.5755 154.971 19.9631C154.495 20.3508 154.192 20.8247 154.019 21.4278C153.845 21.9878 153.716 22.6339 153.716 23.2801V24.0555V28.0616H151.682V21.9016C151.725 20.9108 151.682 19.5755 151.638 17.8955Z" fill="#182E46"/>
</g>
<defs>
<clipPath id="clip0_84_39">
<rect width="158" height="28" fill="white" transform="translate(0 0.750854)"/>
</clipPath>
</defs>
</svg>
