<svg width="104" height="25" viewBox="0 0 104 25" fill="none" xmlns="http://www.w3.org/2000/svg">
<g clip-path="url(#clip0_84_59)">
<path d="M75.7365 20.4041H71.7526V5.04505H75.7365V20.4041ZM66.3009 5.04505L63.7281 15.3383L60.7234 5.04505H56.8695L53.8669 15.3383L51.2941 5.04505H47.3877L51.6275 20.4041H55.754L58.7923 9.87189L61.8347 20.4041H65.9507L70.203 5.04505H66.3009ZM47.0627 16.0575C47.0627 13.1219 45.5006 12.1259 42.0849 11.0125C40.4746 10.4883 38.9712 10.0837 38.9712 8.83187C38.9712 7.73525 40.0888 7.36411 40.9233 7.36411C41.6299 7.36411 42.9593 7.51298 43.0662 9.1422H46.8405C46.7755 6.03264 44.2467 4.67811 40.9904 4.67811C38.9733 4.67811 37.3063 5.25054 36.2558 6.28426C35.4984 7.05154 35.0748 8.08708 35.0774 9.16527C35.0774 12.0253 36.9876 13.1702 39.1452 13.8265C41.5712 14.5666 43.1753 15.0091 43.1753 16.3426C43.1753 17.2338 42.4665 18.1228 41.0785 18.1228C39.3046 18.1228 38.6609 17.0744 38.6189 16.026H34.8027C34.8027 19.5654 37.7865 20.8612 41.0785 20.8612C45.2721 20.8612 47.0711 18.4667 47.0711 16.0512M89.8459 16.0512C89.8459 12.6648 87.3821 11.7695 84.3942 10.8784C82.9579 10.459 81.6684 10.0774 81.6684 8.82558C81.6684 7.72896 82.7839 7.35782 83.6205 7.35782C84.3313 7.35782 85.6544 7.50669 85.7613 9.13591H89.5356C89.4706 6.02635 86.9439 4.67182 83.6834 4.67182C81.6684 4.67182 79.9951 5.24424 78.9509 6.27797C78.1942 7.04576 77.7708 8.08097 77.7725 9.15897C77.7725 12.019 79.6785 13.1639 81.8424 13.8202C84.2663 14.5603 85.8745 15.0028 85.8745 16.3363C85.8745 17.2275 85.1679 18.1165 83.7777 18.1165C81.9997 18.1165 81.3538 17.0681 81.3161 16.0197H77.4999C77.4999 19.5591 80.4816 20.8549 83.7777 20.8549C87.9713 20.8549 89.8438 18.4604 89.8438 16.0449M103.565 16.0449C103.565 12.6585 101.089 11.7632 98.1136 10.8721C96.6731 10.4527 95.3877 10.0711 95.3877 8.81929C95.3877 7.72267 96.497 7.35153 97.3336 7.35153C98.0381 7.35153 99.3696 7.5004 99.4765 9.12962H103.251C103.186 6.02006 100.644 4.66553 97.3944 4.66553C95.4045 4.68859 93.7271 5.26102 92.6787 6.29474C91.9235 7.06339 91.501 8.09822 91.5024 9.17575C91.5024 12.0358 93.4084 13.1806 95.5702 13.8369C97.9962 14.5771 99.6002 15.0195 99.6002 16.3531C99.6002 17.2442 98.8957 18.1333 97.5034 18.1333C95.7253 18.1333 95.0816 17.0849 95.0397 16.0365H91.2109C91.2109 19.5759 94.1884 20.8801 97.5013 20.8801C101.71 20.8801 103.582 18.4856 103.582 16.07" fill="#CF0A2C"/>
<path d="M26.2645 24.7509H0L19.2507 0.750854H32.1775L26.2645 24.7509Z" fill="#CF0A2C"/>
<path d="M22.2449 10.5366V5.37012H17.8164V10.5366H12.6499V14.9651H17.8122V20.1337H22.2428V14.9651H22.2449H27.4135V10.5366H22.2449Z" fill="white"/>
</g>
<defs>
<clipPath id="clip0_84_59">
<rect width="103.565" height="24" fill="white" transform="translate(0 0.750854)"/>
</clipPath>
</defs>
</svg>
