<svg width="36" height="36" viewBox="0 0 36 36" fill="none" xmlns="http://www.w3.org/2000/svg">
<g clip-path="url(#clip0_126_125)">
<path d="M13.1961 13.1963H10.7998C10.1637 13.1952 9.55295 13.446 9.10109 13.8938C8.87631 14.1159 8.69791 14.3804 8.57624 14.672C8.45457 14.9637 8.39206 15.2766 8.39234 15.5925V21.6C8.37613 21.7671 8.39505 21.9358 8.44789 22.0951C8.50073 22.2545 8.58631 22.401 8.69914 22.5253C8.81197 22.6496 8.94956 22.749 9.10306 22.8169C9.25657 22.8849 9.42259 22.92 9.59047 22.92C9.75835 22.92 9.92437 22.8849 10.0779 22.8169C10.2314 22.749 10.369 22.6496 10.4818 22.5253C10.5946 22.401 10.6802 22.2545 10.733 22.0951C10.7859 21.9358 10.8048 21.7671 10.7886 21.6V20.3963H13.1848V21.6C13.2137 21.8978 13.3524 22.1741 13.5739 22.3751C13.7954 22.5762 14.0838 22.6876 14.383 22.6876C14.6821 22.6876 14.9705 22.5762 15.192 22.3751C15.4135 22.1741 15.5522 21.8978 15.5811 21.6V15.6038C15.5835 15.2885 15.523 14.9759 15.4033 14.6842C15.2835 14.3926 15.1068 14.1277 14.8836 13.905C14.4356 13.4569 13.8297 13.2024 13.1961 13.1963ZM10.7998 18V15.6038H13.1961V18H10.7998Z" fill="black"/>
<path d="M20.3964 13.1963H18.0001C17.6809 13.1963 17.3747 13.3231 17.149 13.5489C16.9232 13.7746 16.7964 14.0808 16.7964 14.4V21.6C16.7964 21.9193 16.9232 22.2255 17.149 22.4512C17.3747 22.677 17.6809 22.8038 18.0001 22.8038H20.3964C21.3512 22.8038 22.2668 22.4245 22.942 21.7494C23.6171 21.0742 23.9964 20.1586 23.9964 19.2038V16.7963C23.9964 15.8415 23.6171 14.9258 22.942 14.2507C22.2668 13.5756 21.3512 13.1963 20.3964 13.1963ZM21.6001 19.1925C21.6001 19.5118 21.4733 19.818 21.2476 20.0437C21.0218 20.2695 20.7156 20.3963 20.3964 20.3963H19.2039V15.6038H20.4076C20.7269 15.6038 21.0331 15.7306 21.2588 15.9564C21.4846 16.1821 21.6114 16.4883 21.6114 16.8075L21.6001 19.1925Z" fill="black"/>
<path d="M27 28.8C26.6807 28.8 26.3746 28.9268 26.1488 29.1526C25.9231 29.3783 25.7962 29.6845 25.7962 30.0038C25.7963 30.9586 25.417 31.8742 24.7418 32.5494C24.0667 33.2245 23.151 33.6038 22.1962 33.6038H5.99625C5.04147 33.6038 4.1258 33.2245 3.45067 32.5494C2.77553 31.8742 2.39625 30.9586 2.39625 30.0038V5.99627C2.40034 5.04261 2.78032 4.12903 3.45375 3.45377C3.78668 3.11829 4.18278 2.85211 4.61918 2.6706C5.05557 2.48909 5.52361 2.39585 5.99625 2.39627H22.1962C22.6708 2.39436 23.141 2.48688 23.5794 2.66843C24.0178 2.84998 24.4157 3.11694 24.75 3.45377C25.4234 4.12903 25.8034 5.04261 25.8075 5.99627C25.8364 6.29401 25.9751 6.57032 26.1966 6.77137C26.4181 6.97241 26.7065 7.08379 27.0056 7.08379C27.3048 7.08379 27.5932 6.97241 27.8147 6.77137C28.0362 6.57032 28.1749 6.29401 28.2038 5.99627C28.1965 4.40509 27.5618 2.881 26.4375 1.75502C25.8816 1.1968 25.2205 0.754281 24.4925 0.45305C23.7645 0.151818 22.9841 -0.0021569 22.1962 2.28227e-05H5.99625C5.20841 -0.0021569 4.42796 0.151818 3.69998 0.45305C2.972 0.754281 2.31094 1.1968 1.755 1.75502C0.634798 2.88283 0.00423371 4.40669 0 5.99627L0 30.0038C0 31.5941 0.631746 33.1192 1.75626 34.2438C2.88078 35.3683 4.40595 36 5.99625 36H22.1962C23.7866 36 25.3117 35.3683 26.4362 34.2438C27.5608 33.1192 28.1925 31.5941 28.1925 30.0038C28.1925 29.6865 28.0672 29.382 27.8439 29.1565C27.6206 28.9311 27.3173 28.803 27 28.8Z" fill="black"/>
<path d="M16.7961 31.1963C16.9632 31.2125 17.1318 31.1936 17.2912 31.1408C17.4505 31.0879 17.597 31.0023 17.7214 30.8895C17.8457 30.7767 17.945 30.6391 18.013 30.4856C18.0809 30.3321 18.1161 30.1661 18.1161 29.9982C18.1161 29.8303 18.0809 29.6643 18.013 29.5108C17.945 29.3573 17.8457 29.2197 17.7214 29.1069C17.597 28.994 17.4505 28.9084 17.2912 28.8556C17.1318 28.8028 16.9632 28.7838 16.7961 28.8001H12.0036C11.8365 28.7838 11.6678 28.8028 11.5085 28.8556C11.3491 28.9084 11.2026 28.994 11.0783 29.1069C10.954 29.2197 10.8547 29.3573 10.7867 29.5108C10.7187 29.6643 10.6836 29.8303 10.6836 29.9982C10.6836 30.1661 10.7187 30.3321 10.7867 30.4856C10.8547 30.6391 10.954 30.7767 11.0783 30.8895C11.2026 31.0023 11.3491 31.0879 11.5085 31.1408C11.6678 31.1936 11.8365 31.2125 12.0036 31.1963H16.7961Z" fill="black"/>
<path d="M5.99621 4.80371C5.69847 4.8326 5.42216 4.9713 5.22111 5.19279C5.02007 5.41429 4.90869 5.7027 4.90869 6.00184C4.90869 6.30097 5.02007 6.58938 5.22111 6.81088C5.42216 7.03237 5.69847 7.17108 5.99621 7.19996H8.40371C8.70144 7.17108 8.97775 7.03237 9.1788 6.81088C9.37985 6.58938 9.49122 6.30097 9.49122 6.00184C9.49122 5.7027 9.37985 5.41429 9.1788 5.19279C8.97775 4.9713 8.70144 4.8326 8.40371 4.80371H5.99621Z" fill="black"/>
<path d="M34.9425 10.6537C34.2672 9.98026 33.3536 9.60028 32.4 9.59619H8.40371C7.45005 9.60028 6.53647 9.98026 5.86121 10.6537C5.52623 10.987 5.26038 11.3832 5.0789 11.8195C4.89743 12.2558 4.80391 12.7236 4.80371 13.1962V22.7924C4.80329 23.2651 4.89653 23.7331 5.07804 24.1695C5.25955 24.6059 5.52573 25.002 5.86121 25.3349C6.53647 26.0084 7.45005 26.3884 8.40371 26.3924H32.4C33.3536 26.3884 34.2672 26.0084 34.9425 25.3349C35.2766 25.0033 35.542 24.6091 35.7235 24.1747C35.9049 23.7403 35.9989 23.2744 36 22.8037V13.1962C35.9998 12.7236 35.9062 12.2558 35.7248 11.8195C35.5433 11.3832 35.2774 10.987 34.9425 10.6537ZM33.5925 22.8037C33.5925 23.1229 33.4656 23.4291 33.2399 23.6549C33.0141 23.8806 32.708 24.0074 32.3887 24.0074H8.40371C8.08446 24.0074 7.77828 23.8806 7.55253 23.6549C7.32679 23.4291 7.19996 23.1229 7.19996 22.8037V13.1962C7.19996 12.8769 7.32679 12.5708 7.55253 12.345C7.77828 12.1193 8.08446 11.9924 8.40371 11.9924H32.4C32.7192 11.9924 33.0254 12.1193 33.2511 12.345C33.4769 12.5708 33.6037 12.8769 33.6037 13.1962L33.5925 22.8037Z" fill="black"/>
<path d="M31.1964 15.6038C31.3635 15.62 31.5322 15.6011 31.6915 15.5482C31.8509 15.4954 31.9974 15.4098 32.1217 15.297C32.246 15.1842 32.3454 15.0466 32.4133 14.8931C32.4813 14.7396 32.5164 14.5735 32.5164 14.4057C32.5164 14.2378 32.4813 14.0718 32.4133 13.9182C32.3454 13.7647 32.246 13.6272 32.1217 13.5143C31.9974 13.4015 31.8509 13.3159 31.6915 13.2631C31.5322 13.2102 31.3635 13.1913 31.1964 13.2075H27.5964C26.9618 13.2105 26.3541 13.4639 25.9053 13.9126C25.4566 14.3614 25.2032 14.9692 25.2002 15.6038V16.8075C25.2032 17.4421 25.4566 18.0499 25.9053 18.4987C26.3541 18.9474 26.9618 19.2008 27.5964 19.2038H29.9927V20.4075H26.3927C26.095 20.4364 25.8186 20.5751 25.6176 20.7966C25.4166 21.0181 25.3052 21.3065 25.3052 21.6057C25.3052 21.9048 25.4166 22.1932 25.6176 22.4147C25.8186 22.6362 26.095 22.7749 26.3927 22.8038H29.9927C30.6273 22.8008 31.2351 22.5474 31.6838 22.0987C32.1326 21.6499 32.386 21.0421 32.3889 20.4075V19.2038C32.386 18.5692 32.1326 17.9614 31.6838 17.5126C31.2351 17.0639 30.6273 16.8105 29.9927 16.8075H27.5964V15.6038H31.1964Z" fill="black"/>
</g>
<defs>
<clipPath id="clip0_126_125">
<rect width="36" height="36" fill="white"/>
</clipPath>
</defs>
</svg>
