<svg width="36" height="36" viewBox="0 0 36 36" fill="none" xmlns="http://www.w3.org/2000/svg">
<g clip-path="url(#clip0_126_137)">
<path d="M22.8038 14.3999C22.8038 13.4499 22.5221 12.5211 21.9942 11.7311C21.4664 10.9412 20.7161 10.3254 19.8384 9.96186C18.9606 9.59827 17.9947 9.50314 17.0629 9.6885C16.131 9.87385 15.2751 10.3314 14.6033 11.0032C13.9315 11.675 13.4739 12.5309 13.2886 13.4628C13.1032 14.3946 13.1984 15.3605 13.562 16.2383C13.9255 17.116 14.5412 17.8663 15.3312 18.3941C16.1212 18.922 17.0499 19.2037 18 19.2037C19.2741 19.2037 20.4959 18.6976 21.3968 17.7967C22.2977 16.8958 22.8038 15.674 22.8038 14.3999ZM15.6038 14.3999C15.6038 13.926 15.7443 13.4627 16.0076 13.0687C16.2709 12.6746 16.6452 12.3675 17.083 12.1861C17.5209 12.0047 18.0027 11.9573 18.4675 12.0497C18.9324 12.1422 19.3593 12.3704 19.6944 12.7055C20.0296 13.0407 20.2578 13.4676 20.3502 13.9325C20.4427 14.3973 20.3953 14.8791 20.2139 15.3169C20.0325 15.7548 19.7254 16.129 19.3313 16.3924C18.9373 16.6557 18.474 16.7962 18 16.7962C17.3654 16.7932 16.7576 16.5398 16.3089 16.0911C15.8602 15.6423 15.6067 15.0346 15.6038 14.3999Z" fill="black"/>
<path d="M12.139 22.9837C12.0574 23.1239 12.005 23.2791 11.9849 23.44C11.9648 23.601 11.9774 23.7643 12.022 23.9202C12.0666 24.0761 12.1422 24.2215 12.2443 24.3474C12.3465 24.4734 12.473 24.5774 12.6164 24.6533C12.7597 24.7291 12.9169 24.7752 13.0785 24.7888C13.2401 24.8024 13.4028 24.7832 13.5568 24.7323C13.7108 24.6815 13.853 24.6 13.9747 24.4928C14.0964 24.3857 14.1953 24.255 14.2652 24.1087C14.4662 23.7182 14.771 23.3908 15.1462 23.1625C15.5214 22.9342 15.9523 22.814 16.3915 22.815H19.5977C20.0369 22.814 20.4678 22.9342 20.843 23.1625C21.2182 23.3908 21.5231 23.7182 21.724 24.1087C21.8726 24.3898 22.1255 24.6014 22.4284 24.6982C22.7312 24.7949 23.0599 24.7691 23.344 24.6262C23.6272 24.4798 23.8408 24.227 23.9378 23.9233C24.0348 23.6195 24.0074 23.2897 23.8615 23.0062C23.4577 22.2243 22.846 21.569 22.0937 21.1125C21.3414 20.6559 20.4777 20.4159 19.5977 20.4187H16.3915C15.5157 20.4158 14.656 20.6535 13.9061 21.1058C13.1562 21.5581 12.5449 22.2077 12.139 22.9837Z" fill="black"/>
<path d="M31.1961 26.4037C30.3439 26.4075 29.5084 26.6407 28.7774 27.0787L27.2924 25.5937C28.5979 23.9972 29.47 22.0912 29.8247 20.0597C30.1794 18.0281 30.0046 15.9394 29.3174 13.995C29.2813 13.8277 29.21 13.67 29.1082 13.5325C29.0063 13.3949 28.8764 13.2807 28.7269 13.1973C28.5774 13.114 28.4119 13.0635 28.2414 13.0491C28.0709 13.0348 27.8992 13.057 27.738 13.1143C27.5767 13.1715 27.4295 13.2625 27.3062 13.3812C27.1828 13.4998 27.0862 13.6434 27.0228 13.8023C26.9593 13.9612 26.9304 14.1319 26.9381 14.3028C26.9458 14.4738 26.9899 14.6411 27.0674 14.7937C27.6572 16.5031 27.7527 18.3444 27.3427 20.1056C26.9327 21.8669 26.034 23.4767 24.7499 24.75C22.9532 26.5279 20.5276 27.5252 17.9999 27.5252C15.4722 27.5252 13.0466 26.5279 11.2499 24.75C11.138 24.637 11.0048 24.5474 10.858 24.4862C10.7113 24.425 10.5539 24.3935 10.3949 24.3935C10.2359 24.3935 10.0785 24.425 9.93173 24.4862C9.78498 24.5474 9.6518 24.637 9.53988 24.75L7.28989 27C6.55883 26.5619 5.72336 26.3288 4.87113 26.325C3.92104 26.325 2.99229 26.6067 2.20231 27.1345C1.41234 27.6624 0.796633 28.4126 0.433049 29.2904C0.0694642 30.1682 -0.0256661 31.134 0.159688 32.0659C0.345041 32.9977 0.802554 33.8536 1.47437 34.5255C2.14619 35.1973 3.00213 35.6548 3.93397 35.8401C4.86581 36.0255 5.83168 35.9304 6.70945 35.5668C7.58722 35.2032 8.33746 34.5875 8.86531 33.7975C9.39315 33.0075 9.67488 32.0788 9.67488 31.1287C9.67106 30.2765 9.4379 29.441 8.99988 28.71L10.4849 27.225C12.6274 28.9778 15.3104 29.9355 18.0786 29.9355C20.8469 29.9355 23.5298 28.9778 25.6724 27.225L27.1574 28.71C26.7194 29.441 26.4862 30.2765 26.4824 31.1287C26.4824 32.0788 26.7641 33.0075 27.292 33.7975C27.8198 34.5875 28.57 35.2032 29.4478 35.5668C30.3256 35.9304 31.2915 36.0255 32.2233 35.8401C33.1551 35.6548 34.0111 35.1973 34.6829 34.5255C35.3547 33.8536 35.8122 32.9977 35.9976 32.0659C36.1829 31.134 36.0878 30.1682 35.7242 29.2904C35.3606 28.4126 34.7449 27.6624 33.955 27.1345C33.165 26.6067 32.2362 26.325 31.2861 26.325L31.1961 26.4037ZM4.80364 33.6037C4.33018 33.6037 3.86734 33.4634 3.47353 33.2006C3.07971 32.9378 2.77258 32.5642 2.59089 32.127C2.40919 31.6898 2.36109 31.2086 2.45264 30.7441C2.54419 30.2796 2.7713 29.8526 3.10529 29.517C3.43929 29.1815 3.86521 28.9523 4.32929 28.8586C4.79338 28.7649 5.27482 28.8108 5.71287 28.9904C6.15092 29.17 6.52594 29.4754 6.79059 29.868C7.05524 30.2606 7.19766 30.7228 7.19989 31.1962C7.19989 31.8328 6.94779 32.4434 6.49873 32.8946C6.04966 33.3458 5.44019 33.6007 4.80364 33.6037ZM31.2074 33.6037C30.7335 33.6037 30.2702 33.4632 29.8761 33.1999C29.482 32.9366 29.1749 32.5623 28.9935 32.1245C28.8122 31.6866 28.7647 31.2048 28.8572 30.74C28.9496 30.2751 29.1779 29.8482 29.513 29.513C29.8481 29.1779 30.2751 28.9497 30.7399 28.8572C31.2047 28.7648 31.6865 28.8122 32.1244 28.9936C32.5622 29.175 32.9365 29.4821 33.1998 29.8762C33.4631 30.2702 33.6036 30.7335 33.6036 31.2075C33.6007 31.844 33.3457 32.4535 32.8945 32.9025C32.4434 33.3516 31.8327 33.6037 31.1961 33.6037H31.2074Z" fill="black"/>
<path d="M4.80376 9.59626C5.65598 9.59243 6.49146 9.35928 7.22251 8.92126L8.71876 10.4063C7.41426 12.0011 6.54265 13.9051 6.18796 15.9347C5.83327 17.9643 6.00747 20.051 6.69376 21.9938C6.80314 22.291 7.02429 22.5338 7.31009 22.6704C7.59589 22.807 7.92373 22.8266 8.22376 22.725C8.37591 22.6766 8.51691 22.5984 8.63855 22.495C8.76019 22.3915 8.86003 22.2649 8.93228 22.1226C9.00452 21.9802 9.04771 21.8248 9.05934 21.6656C9.07097 21.5063 9.0508 21.3464 9.00001 21.195C8.32625 19.1609 8.35267 16.9598 9.07507 14.9425C9.79746 12.9251 11.1743 11.2076 12.9861 10.0636C14.7979 8.91954 16.9405 8.41481 19.0725 8.62983C21.2044 8.84485 23.2031 9.76723 24.75 11.25C24.977 11.472 25.2819 11.5962 25.5994 11.5962C25.9169 11.5962 26.2217 11.472 26.4488 11.25L28.6988 9.00001C29.4298 9.43803 30.2653 9.67118 31.1175 9.67501C32.0676 9.67501 32.9964 9.39327 33.7863 8.86543C34.5763 8.33759 35.192 7.58734 35.5556 6.70957C35.9192 5.8318 36.0143 4.86593 35.829 3.93409C35.6436 3.00226 35.1861 2.14631 34.5143 1.47449C33.8425 0.802678 32.9865 0.345165 32.0547 0.159811C31.1228 -0.0255425 30.157 0.0695878 29.2792 0.433172C28.4014 0.796757 27.6512 1.41247 27.1233 2.20244C26.5955 2.99241 26.3138 3.92117 26.3138 4.87126C26.3176 5.72348 26.5507 6.55896 26.9888 7.29001L25.5938 8.70751C23.4521 6.95265 20.7688 5.99369 18 5.99369C15.2312 5.99369 12.5479 6.95265 10.4063 8.70751L8.92126 7.22251C9.35928 6.49146 9.59243 5.65598 9.59626 4.80376C9.59848 3.85271 9.31836 2.92241 8.79137 2.13071C8.26438 1.33902 7.51426 0.721567 6.63603 0.356589C5.7578 -0.00838961 4.791 -0.104468 3.85811 0.0805272C2.92523 0.265522 2.06825 0.723264 1.39576 1.39576C0.723264 2.06825 0.265522 2.92523 0.0805272 3.85811C-0.104468 4.791 -0.00838961 5.7578 0.356589 6.63603C0.721567 7.51426 1.33902 8.26438 2.13071 8.79137C2.92241 9.31836 3.85271 9.59848 4.80376 9.59626ZM31.2075 2.39626C31.6805 2.39848 32.1422 2.54063 32.5345 2.80478C32.9269 3.06894 33.2323 3.44329 33.4122 3.88069C33.5922 4.31808 33.6387 4.79896 33.5459 5.26273C33.4531 5.72651 33.2251 6.15244 32.8906 6.48689C32.5562 6.82133 32.1303 7.04932 31.6665 7.14214C31.2027 7.23496 30.7218 7.18845 30.2844 7.00848C29.847 6.82851 29.4727 6.52312 29.2085 6.13079C28.9444 5.73846 28.8022 5.27673 28.8 4.80376C28.8 4.16719 29.0521 3.55654 29.5012 3.10536C29.9502 2.65419 30.5597 2.39923 31.1963 2.39626H31.2075ZM4.80376 2.39626C5.27673 2.39848 5.73846 2.54063 6.13079 2.80478C6.52312 3.06894 6.82851 3.44329 7.00848 3.88069C7.18845 4.31808 7.23496 4.79896 7.14214 5.26273C7.04932 5.72651 6.82133 6.15244 6.48689 6.48689C6.15244 6.82133 5.72651 7.04932 5.26273 7.14214C4.79896 7.23496 4.31808 7.18845 3.88069 7.00848C3.44329 6.82851 3.06894 6.52312 2.80478 6.13079C2.54063 5.73846 2.39848 5.27673 2.39626 4.80376C2.39626 4.16525 2.64991 3.55289 3.1014 3.1014C3.55289 2.64991 4.16525 2.39626 4.80376 2.39626Z" fill="black"/>
</g>
<defs>
<clipPath id="clip0_126_137">
<rect width="36" height="36" fill="white"/>
</clipPath>
</defs>
</svg>
