<svg width="36" height="36" viewBox="0 0 36 36" fill="none" xmlns="http://www.w3.org/2000/svg">
<path d="M14.9831 11.8909L18.9213 12.4746C19.1285 12.5073 19.3031 12.6382 19.3958 12.8237L21.1576 16.4509C21.3867 16.9255 22.0522 16.9255 22.2867 16.4509L24.0485 12.8237C24.1413 12.6327 24.3158 12.5018 24.5231 12.4746L28.4613 11.8909C28.9794 11.8146 29.1813 11.1709 28.8103 10.8L25.9576 7.97456C25.8103 7.82729 25.7394 7.61456 25.7776 7.40729L26.4485 3.42002C26.5358 2.89638 25.9958 2.4982 25.5376 2.74911L22.014 4.63093C21.8285 4.72911 21.6103 4.72911 21.4303 4.63093L17.9067 2.74911C17.4431 2.50365 16.9085 2.90184 16.9958 3.42002L17.6667 7.40729C17.6994 7.61456 17.634 7.82729 17.4867 7.97456L14.634 10.8C14.2631 11.1709 14.4703 11.8146 14.9831 11.8909Z" fill="#1B2431"/>
<path d="M4.22155 22.9691C3.70882 22.6473 3.11428 22.3255 2.54155 22.3255C2.48701 22.3255 2.42701 22.331 2.37246 22.3364C1.55428 22.4291 0.937915 22.9364 0.670642 23.7219C0.397915 24.5237 0.588824 25.391 1.15064 25.9364C2.18155 26.9346 3.18519 27.9982 4.15064 29.0291C5.25246 30.2019 6.39791 31.4128 7.58155 32.5255C7.92519 32.8528 8.24155 33.131 8.59064 33.251C8.69428 33.2837 8.75973 33.311 8.81973 33.3273C8.86882 33.3 8.9561 33.24 9.01064 33.2073C9.89428 32.6346 10.7125 31.991 10.7397 31.1673C10.7506 30.7855 10.5761 30.371 10.407 30.011C9.07064 27.1473 6.87246 24.6437 4.22155 22.9691Z" fill="#1B2431"/>
<path d="M35.3399 16.62C35.1381 16.4127 34.6636 16.32 34.2054 16.5327C33.5945 16.8109 33.0272 17.2255 32.4763 17.6291C30.3272 19.2 28.4399 21.2073 26.6126 23.1491L26.3236 23.46C26.2745 23.5091 26.2199 23.5473 26.1599 23.5746C25.6908 24.1855 24.7963 24.5455 24.289 24.66C23.1654 24.9218 22.0526 25.02 20.9563 25.02C18.8726 25.02 16.8654 24.6546 15.0217 24.3164C14.7272 24.2618 14.5308 23.9782 14.5854 23.6836C14.6399 23.3891 14.9236 23.1873 15.2181 23.2473C17.9345 23.7436 21.0108 24.3055 24.0436 23.5964C24.6599 23.4546 25.3036 23.0564 25.3745 22.7782C25.4072 22.6527 25.2436 22.4891 25.1454 22.4018C23.9563 21.3437 22.5108 21.2346 20.6781 21.0927C20.089 21.0491 19.4836 21 18.8399 20.9182C18.0272 20.8146 17.4817 20.46 16.909 20.0891C16.6963 19.9527 16.4726 19.8055 16.2163 19.6637C14.2417 18.5673 12.2236 18.2509 10.5326 18.7746C9.66537 19.0418 8.8581 19.5273 8.18719 19.9691C7.12355 20.6673 6.10355 21.4473 5.14355 22.2873C7.81083 24.0655 10.0254 26.6237 11.389 29.5527C11.4163 29.6182 11.449 29.6837 11.4763 29.7546C13.9363 29.6618 16.1781 29.5255 18.5454 29.3836C20.0454 29.2909 21.5672 29.1982 23.1708 29.1164C25.069 29.0182 26.8308 28.0855 28.129 26.4927L34.0854 19.1782C34.4945 18.6764 34.9636 18.0709 35.3126 17.3946C35.4381 17.16 35.5417 16.8327 35.3399 16.62Z" fill="#1B2431"/>
</svg>
