<svg width="32" height="32" viewBox="0 0 32 32" fill="none" xmlns="http://www.w3.org/2000/svg">
<g clip-path="url(#clip0_229_671)">
<path d="M28.1875 18.4243L27.9128 18.1496C27.7893 18.0251 26.6375 16.9375 24.4375 16.9375C22.2375 16.9375 21.0857 18.0251 20.9622 18.1497L20.6875 18.4243V20.6875H16.9375V24.4375H32V20.6875H28.1875V18.4243ZM26.3125 20.6875H22.5625V19.2822C22.8939 19.0835 23.5156 18.8125 24.4375 18.8125C25.3622 18.8125 25.9847 19.0853 26.3125 19.2803V20.6875Z" fill="#1B2431"/>
<path d="M11.3125 20.6875V30.125H9.4375V32C11.2554 32 15.294 32 15.0625 32V30.125H13.1875V15.0625H22.0132L24.8257 12.25L22.0132 9.4375H13.1875V1.875H15.0625V0H9.4375V1.875H11.3125V3.75H4.29931L1.48681 6.625L4.29931 9.4375H11.3125V15.0625H2.8125L0 17.875L2.8125 20.6875H11.3125Z" fill="#1B2431"/>
<path d="M25.375 28.1875H23.5V26.3125H16.9375V32H32V26.3125H25.375V28.1875Z" fill="#1B2431"/>
</g>
<defs>
<clipPath id="clip0_229_671">
<rect width="32" height="32" fill="white"/>
</clipPath>
</defs>
</svg>
