<svg width="36" height="36" viewBox="0 0 36 36" fill="none" xmlns="http://www.w3.org/2000/svg">
<path d="M19.0591 2.11766C19.0591 1.53531 18.5826 1.05884 18.0002 1.05884C17.4179 1.05884 16.9414 1.53531 16.9414 2.11766V3.17649H19.0591V2.11766Z" fill="#1B2431"/>
<path d="M19.0592 27.0953V25.4118H16.9415V27.0953L10.8956 33.1306C10.4827 33.5436 10.4827 34.2212 10.8956 34.6342C11.3086 35.0471 11.9862 35.0471 12.3992 34.6342L16.9415 30.0812V33.8824C16.9415 34.4647 17.418 34.9412 18.0004 34.9412C18.5827 34.9412 19.0592 34.4647 19.0592 33.8824V30.0812L23.6015 34.6342C23.8133 34.8353 24.078 34.9412 24.3533 34.9412C24.6286 34.9412 24.8933 34.8353 25.1051 34.6342C25.518 34.2212 25.518 33.5436 25.1051 33.1306L19.0592 27.0953Z" fill="#1B2431"/>
<path d="M8.47065 16.9412C8.19536 16.9412 7.93065 17.047 7.71889 17.2482C7.30594 17.6612 7.30594 18.3388 7.71889 18.7517C8.13183 19.1647 8.80947 19.1647 9.22242 18.7517C9.63536 18.3388 9.63536 17.6612 9.22242 17.2482C9.01065 17.047 8.74594 16.9412 8.47065 16.9412Z" fill="#1B2431"/>
<path d="M31.765 5.29413H4.23558C3.65323 5.29413 3.17676 5.7706 3.17676 6.35295V22.2353C3.17676 22.8177 3.65323 23.2941 4.23558 23.2941H31.765C32.3473 23.2941 32.8238 22.8177 32.8238 22.2353V6.35295C32.8238 5.7706 32.3473 5.29413 31.765 5.29413ZM30.7062 14.8235C30.7062 15.4059 30.2297 15.8824 29.6473 15.8824C29.065 15.8824 28.5885 15.4059 28.5885 14.8235V14.1988L26.1532 16.6447C26.7144 17.82 26.5132 19.2706 25.5391 20.2447C24.925 20.8694 24.1097 21.1765 23.2944 21.1765C22.4791 21.1765 21.6638 20.8694 21.0497 20.2447C20.0756 19.2706 19.8744 17.82 20.4356 16.6447L17.2379 13.4471C16.8144 13.6482 16.3485 13.7647 15.8826 13.7647C15.4168 13.7647 14.9509 13.6482 14.5273 13.4471L11.3297 16.6447C11.8909 17.82 11.6897 19.2706 10.7156 20.2447C10.1015 20.8694 9.28617 21.1765 8.47088 21.1765C7.65558 21.1765 6.84029 20.8694 6.22617 20.2447C4.98735 19.0059 4.98735 16.9941 6.22617 15.7553C7.20029 14.7812 8.65088 14.58 9.82617 15.1412L13.0238 11.9435C12.4626 10.7682 12.6638 9.31766 13.6379 8.34354C14.8768 7.10472 16.8885 7.10472 18.1273 8.34354C19.1015 9.31766 19.3026 10.7682 18.7415 11.9435L21.9391 15.1412C22.7968 14.7388 23.7921 14.7388 24.6497 15.1412L27.0956 12.7059H26.4709C25.8885 12.7059 25.4121 12.2294 25.4121 11.6471C25.4121 11.0647 25.8885 10.5882 26.4709 10.5882H29.6473C29.7744 10.5882 29.9015 10.62 30.0179 10.6624C30.0497 10.673 30.0815 10.6941 30.1132 10.7153C30.1979 10.7471 30.2721 10.8 30.3356 10.8635C30.3673 10.8847 30.3991 10.9059 30.4203 10.9271C30.4944 11.0118 30.5579 11.1071 30.6109 11.213C30.6109 11.2235 30.6215 11.2235 30.6215 11.2341V11.2447C30.6744 11.3612 30.6956 11.4882 30.6956 11.6047C30.6956 11.6259 30.7062 11.6365 30.7062 11.6471V14.8235Z" fill="#1B2431"/>
<path d="M23.2949 16.9412C23.0196 16.9412 22.7549 17.047 22.5431 17.2482C22.1302 17.6612 22.1302 18.3388 22.5431 18.7517C22.956 19.1647 23.6337 19.1647 24.0466 18.7517C24.4596 18.3388 24.4596 17.6612 24.0466 17.2482C23.8349 17.047 23.5702 16.9412 23.2949 16.9412Z" fill="#1B2431"/>
<path d="M15.8828 9.52942C15.6075 9.52942 15.3428 9.6353 15.131 9.83648C14.7181 10.2494 14.7181 10.9271 15.131 11.34C15.5439 11.7529 16.2216 11.7529 16.6345 11.34C17.0475 10.9271 17.0475 10.2494 16.6345 9.83648C16.4228 9.6353 16.1581 9.52942 15.8828 9.52942Z" fill="#1B2431"/>
</svg>
