<svg width="28" height="29" viewBox="0 0 28 29" fill="none" xmlns="http://www.w3.org/2000/svg">
<g clip-path="url(#clip0_84_181)">
<path d="M10.6694 5.75615H17.3361C17.7042 5.75615 18.0026 5.45772 18.0026 5.08944V3.0895H16.6694C16.6694 1.61679 15.4755 0.422852 14.0028 0.422852C12.5298 0.422852 11.3359 1.61679 11.3359 3.0895H10.0027V5.08944C10.0027 5.45772 10.3011 5.75615 10.6694 5.75615Z" fill="#182E46"/>
<path d="M24.0026 3.08936H19.336V5.08929C19.3348 6.1935 18.4401 7.08815 17.3361 7.08944H10.6694C9.56517 7.08815 8.67052 6.19329 8.66945 5.08929V3.08936H4.00265C3.63458 3.08936 3.33594 3.38779 3.33594 3.75607V27.7559C3.33594 28.1242 3.63458 28.4226 4.00265 28.4226H24.0026C24.3709 28.4226 24.6693 28.1242 24.6693 27.7559V3.75607C24.6693 3.38779 24.3709 3.08936 24.0026 3.08936ZM12.4741 21.5607L9.80742 24.2273C9.54722 24.4877 9.12532 24.4877 8.86491 24.2277C8.86491 24.2275 8.8647 24.2275 8.8647 24.2273L7.53127 22.8941C7.27556 22.6292 7.28283 22.2071 7.54772 21.9514C7.80599 21.7019 8.21572 21.7019 8.47399 21.9514L9.33617 22.8133L11.5314 20.6179C11.7962 20.3622 12.2184 20.3695 12.4741 20.6344C12.7236 20.8927 12.7236 21.3024 12.4741 21.5607ZM12.4741 16.2274L9.80742 18.894C9.54722 19.1544 9.12532 19.1544 8.86491 18.8944C8.86491 18.8942 8.8647 18.8942 8.8647 18.894L7.53127 17.5608C7.27556 17.2959 7.28283 16.8738 7.54772 16.6181C7.80599 16.3686 8.21572 16.3686 8.47399 16.6181L9.33595 17.48L11.5314 15.2846C11.7962 15.0289 12.2181 15.0362 12.4741 15.3011C12.7236 15.5594 12.7236 15.9691 12.4741 16.2274ZM12.4741 10.8941L9.80742 13.5607C9.54722 13.8211 9.12532 13.8211 8.86491 13.5611C8.86491 13.5609 8.8647 13.5609 8.8647 13.5607L7.53127 12.2275C7.27556 11.9626 7.28283 11.5405 7.54772 11.2848C7.80599 11.0353 8.21572 11.0353 8.47399 11.2848L9.33595 12.1467L11.5314 9.95134C11.7962 9.69563 12.2181 9.70289 12.4741 9.96779C12.7236 10.2261 12.7236 10.6356 12.4741 10.8941ZM20.0028 23.0893H16.0027C15.6346 23.0893 15.336 22.7909 15.336 22.4226C15.336 22.0545 15.6346 21.7559 16.0027 21.7559H20.0028C20.3708 21.7559 20.6693 22.0545 20.6693 22.4226C20.6693 22.7909 20.3708 23.0893 20.0028 23.0893ZM20.0028 17.756H16.0027C15.6346 17.756 15.336 17.4576 15.336 17.0893C15.336 16.7212 15.6346 16.4226 16.0027 16.4226H20.0028C20.3708 16.4226 20.6693 16.7212 20.6693 17.0893C20.6693 17.4576 20.3708 17.756 20.0028 17.756ZM20.0028 12.4227H16.0027C15.6346 12.4227 15.336 12.1241 15.336 11.756C15.336 11.3877 15.6346 11.0893 16.0027 11.0893H20.0028C20.3708 11.0893 20.6693 11.3877 20.6693 11.756C20.6693 12.1241 20.3708 12.4227 20.0028 12.4227Z" fill="#182E46"/>
</g>
<defs>
<clipPath id="clip0_84_181">
<rect width="28" height="28" fill="white" transform="translate(0 0.422852)"/>
</clipPath>
</defs>
</svg>
