<svg width="32" height="33" viewBox="0 0 32 33" fill="none" xmlns="http://www.w3.org/2000/svg">
<g clip-path="url(#clip0_229_699)">
<path d="M31.6631 22.0857L28.6311 19.0535L22.3589 25.3257C21.2393 26.4453 19.834 27.1753 18.3076 27.4485L22.304 31.4448C22.6699 31.811 23.2637 31.811 23.6296 31.4448L31.6631 23.4116C32.0293 23.0454 32.0293 22.4517 31.6631 22.0857Z" fill="#1B2431"/>
<path d="M27.3958 17.637C28.4527 16.5804 28.4529 14.8609 27.3972 13.8035C27.396 13.8023 27.3948 13.8011 27.3936 13.7999C27.1323 13.5389 26.8272 13.3377 26.4949 13.2032C26.783 12.4744 26.8438 11.242 25.8894 10.2874C25.887 10.285 25.8845 10.2823 25.8819 10.2799C25.6218 10.0216 25.3186 9.82233 24.9885 9.68854C25.2766 8.96027 25.3377 7.7276 24.3838 6.7735C24.3831 6.77277 24.3826 6.77228 24.3821 6.77179C24.1206 6.51032 23.8152 6.30866 23.4824 6.17414C23.7705 5.44538 23.8313 4.21271 22.877 3.25812C22.8767 3.25812 22.8767 3.25787 22.8765 3.25787C22.8762 3.25763 22.876 3.25739 22.8757 3.25714C21.8184 2.19977 20.0982 2.19977 19.0408 3.25714L17.2632 5.03449L18.1721 5.94342C19.6868 7.45807 19.6868 9.92243 18.1724 11.4371C17.6626 11.9466 17.0364 12.2967 16.3538 12.4634C16.1904 13.129 15.8496 13.7598 15.3303 14.2789C14.8213 14.7879 14.1961 15.1378 13.5142 15.3048C13.3474 15.9864 12.9973 16.6119 12.4885 17.1207C11.9795 17.6297 11.3543 17.9796 10.6724 18.1466C10.5056 18.8282 10.1555 19.4537 9.64674 19.9627C8.91309 20.6961 7.93751 21.1004 6.89991 21.1004C5.86231 21.1004 4.88672 20.6964 4.15308 19.9625L3.24414 19.0535L0.212158 22.0858C-0.154053 22.452 -0.154053 23.0455 0.212158 23.4117L8.24537 31.4449C8.61158 31.8111 9.20508 31.8109 9.5713 31.4449L15.3218 25.6947H16.9419C18.4873 25.6947 19.9402 25.0926 21.033 24.0001L27.3958 17.637Z" fill="#1B2431"/>
<path d="M5.47864 18.6366C6.26331 19.4215 7.53577 19.4215 8.32044 18.6366C9.10535 17.8519 9.10535 16.5797 8.32044 15.7948C9.10535 16.5797 10.3776 16.5797 11.1625 15.7948C11.9471 15.0101 11.9471 13.7377 11.1625 12.953C11.9471 13.7377 13.2196 13.7377 14.0043 12.953C14.7889 12.1683 14.7889 10.8959 14.0043 10.1112C14.7889 10.8959 16.0614 10.8959 16.8461 10.1112C17.631 9.3263 17.631 8.05408 16.8461 7.26917L12.8392 3.26233C12.0546 2.47766 10.7821 2.47766 9.99744 3.26233C9.21277 4.047 9.21277 5.31946 9.99744 6.10413L10.4994 6.60633C9.71473 5.82141 8.44226 5.82141 7.6576 6.60633C6.87293 7.391 6.87293 8.66346 7.6576 9.44813L8.66175 10.4523C7.87708 9.66761 6.60462 9.66761 5.81995 10.4523C5.03504 11.2369 5.03504 12.5094 5.81995 13.2941L6.8241 14.2985C6.03919 13.5136 4.76697 13.5136 3.98206 14.2985C3.19739 15.0831 3.19739 16.3554 3.98206 17.1403L5.47864 18.6366Z" fill="#1B2431"/>
<path d="M17.7153 1.93111C17.854 1.79244 18.0007 1.665 18.1533 1.54659L17.605 0.998252C17.3198 0.712851 16.8835 0.642295 16.523 0.822471L14.209 1.97945L15.938 3.7087L17.7153 1.93111Z" fill="#1B2431"/>
</g>
<defs>
<clipPath id="clip0_229_699">
<rect width="32" height="32" fill="white" transform="translate(0 0.161133)"/>
</clipPath>
</defs>
</svg>
