<svg width="36" height="36" viewBox="0 0 36 36" fill="none" xmlns="http://www.w3.org/2000/svg">
<g clip-path="url(#clip0_126_156)">
<path d="M15.954 16.7976C14.4353 16.7976 13.1978 15.5601 13.1978 14.0414V9.9562C13.1978 8.43745 14.4282 7.19995 15.954 7.19995C16.4181 7.19995 16.8751 7.31948 17.2829 7.53745L19.1954 8.53589C19.8845 8.89448 20.5665 9.24605 21.1642 9.56948C22.5001 10.3007 22.9923 11.9742 22.261 13.3101C22.0079 13.7742 21.6282 14.1539 21.1642 14.407C20.5665 14.7304 19.8845 15.096 19.1954 15.4406L17.2829 16.439C16.8751 16.671 16.4181 16.7976 15.954 16.7976ZM15.954 9.59761C15.7571 9.59761 15.5954 9.75933 15.5954 9.9562V14.0484C15.5954 14.2453 15.7571 14.407 15.961 14.407C16.0173 14.407 16.0735 14.3929 16.1298 14.3648C16.7134 14.0484 19.4345 12.6351 20.0251 12.3187C20.1938 12.2273 20.2642 12.0164 20.1728 11.8476C20.1376 11.7843 20.0884 11.7351 20.0251 11.7C19.4415 11.3835 16.7274 9.97729 16.1298 9.65386C16.0735 9.6187 16.0103 9.59761 15.954 9.59761Z" fill="black"/>
<path d="M30.0023 23.9977H5.99766C2.68594 23.9977 0 21.3117 0 18V5.99766C0 2.68594 2.68594 0 5.99766 0H30.0023C33.3141 0 36 2.68594 36 5.99766V18C36 21.3117 33.3141 23.9977 30.0023 23.9977ZM5.99766 2.39766C4.00781 2.39766 2.39766 4.00781 2.39766 5.99766V18C2.39766 19.9898 4.00781 21.6 5.99766 21.6H30.0023C31.9922 21.6 33.6023 19.9898 33.6023 18V5.99766C33.6023 4.00781 31.9922 2.39766 30.0023 2.39766H5.99766Z" fill="black"/>
<path d="M10.7999 31.1976C10.1389 31.2609 9.54832 30.7758 9.48504 30.1148C9.42176 29.4539 9.90692 28.8633 10.5679 28.8C10.6452 28.793 34.7975 28.8 34.7975 28.8C35.4585 28.7367 36.0491 29.2219 36.1124 29.8828C36.1757 30.5437 35.6905 31.1344 35.0296 31.1976C34.9522 31.2047 10.7999 31.1976 10.7999 31.1976Z" fill="black"/>
<path d="M27.5975 36H10.7999C10.1389 36.0633 9.54832 35.5781 9.48504 34.9172C9.42176 34.2563 9.90692 33.6656 10.5679 33.6024C10.6452 33.5953 10.7225 33.5953 10.7999 33.6024H27.5975C28.2585 33.5391 28.8491 34.0242 28.9124 34.6852C28.9757 35.3461 28.4905 35.9367 27.8296 36C27.7522 36.007 27.6749 36.007 27.5975 36Z" fill="black"/>
<path d="M3.6 36C1.61016 36 0 34.3899 0 32.4C0 30.4102 1.61016 28.8 3.6 28.8C5.58984 28.8 7.2 30.4102 7.2 32.4C7.2 34.3899 5.58984 36 3.6 36ZM3.6 31.1977C2.93203 31.1977 2.39766 31.7391 2.39766 32.4C2.39766 33.061 2.93906 33.6024 3.6 33.6024C4.26094 33.6024 4.80234 33.061 4.80234 32.4C4.80234 31.7321 4.26797 31.1977 3.6 31.1977Z" fill="black"/>
</g>
<defs>
<clipPath id="clip0_126_156">
<rect width="36" height="36" fill="white"/>
</clipPath>
</defs>
</svg>
