<svg width="24" height="24" viewBox="0 0 24 24" fill="none" xmlns="http://www.w3.org/2000/svg">
<path d="M12.75 19.5002L12 22.5002L15 21.7502L18.5925 18.1577L16.3425 15.9077L12.75 19.5002Z" fill="#FF7A00"/>
<path d="M19.4107 13.5C19.2018 13.4998 18.995 13.5408 18.8019 13.6206C18.6089 13.7004 18.4335 13.8174 18.2857 13.965L17.4082 14.8425L19.6582 17.0925L20.5357 16.215C20.7584 15.9926 20.91 15.7092 20.9715 15.4006C21.0329 15.092 21.0015 14.7721 20.881 14.4813C20.7605 14.1906 20.5565 13.9422 20.2948 13.7675C20.0331 13.5928 19.7254 13.4997 19.4107 13.5Z" fill="#FF7A00"/>
<path d="M14.25 6H18L13.5 1.5V5.25C13.5 5.44891 13.579 5.63968 13.7197 5.78033C13.8603 5.92098 14.0511 6 14.25 6Z" fill="#FF7A00"/>
<path d="M17.25 12.9075C17.4724 12.6878 17.7249 12.501 18 12.3525V7.5H14.25C13.6533 7.5 13.081 7.26295 12.659 6.84099C12.2371 6.41903 12 5.84674 12 5.25V1.5H4.5C4.10218 1.5 3.72064 1.65804 3.43934 1.93934C3.15804 2.22064 3 2.60218 3 3V21C3 21.3978 3.15804 21.7794 3.43934 22.0607C3.72064 22.342 4.10218 22.5 4.5 22.5H10.455L11.3925 18.75L17.25 12.9075ZM6.75 6.75H9.75C9.94891 6.75 10.1397 6.82902 10.2803 6.96967C10.421 7.11032 10.5 7.30109 10.5 7.5C10.5 7.69891 10.421 7.88968 10.2803 8.03033C10.1397 8.17098 9.94891 8.25 9.75 8.25H6.75C6.55109 8.25 6.36032 8.17098 6.21967 8.03033C6.07902 7.88968 6 7.69891 6 7.5C6 7.30109 6.07902 7.11032 6.21967 6.96967C6.36032 6.82902 6.55109 6.75 6.75 6.75ZM10.5 17.25H6.75C6.55109 17.25 6.36032 17.171 6.21967 17.0303C6.07902 16.8897 6 16.6989 6 16.5C6 16.3011 6.07902 16.1103 6.21967 15.9697C6.36032 15.829 6.55109 15.75 6.75 15.75H10.5C10.6989 15.75 10.8897 15.829 11.0303 15.9697C11.171 16.1103 11.25 16.3011 11.25 16.5C11.25 16.6989 11.171 16.8897 11.0303 17.0303C10.8897 17.171 10.6989 17.25 10.5 17.25ZM13.5 14.25H6.75C6.55109 14.25 6.36032 14.171 6.21967 14.0303C6.07902 13.8897 6 13.6989 6 13.5C6 13.3011 6.07902 13.1103 6.21967 12.9697C6.36032 12.829 6.55109 12.75 6.75 12.75H13.5C13.6989 12.75 13.8897 12.829 14.0303 12.9697C14.171 13.1103 14.25 13.3011 14.25 13.5C14.25 13.6989 14.171 13.8897 14.0303 14.0303C13.8897 14.171 13.6989 14.25 13.5 14.25ZM14.25 11.25H6.75C6.55109 11.25 6.36032 11.171 6.21967 11.0303C6.07902 10.8897 6 10.6989 6 10.5C6 10.3011 6.07902 10.1103 6.21967 9.96967C6.36032 9.82902 6.55109 9.75 6.75 9.75H14.25C14.4489 9.75 14.6397 9.82902 14.7803 9.96967C14.921 10.1103 15 10.3011 15 10.5C15 10.6989 14.921 10.8897 14.7803 11.0303C14.6397 11.171 14.4489 11.25 14.25 11.25Z" fill="#FF7A00"/>
</svg>
