<svg width="24" height="24" viewBox="0 0 24 24" fill="none" xmlns="http://www.w3.org/2000/svg">
<path d="M8.415 15.57C7.25 16.485 6.5 17.905 6.5 19.5V21H3.5C2.67 21 2 20.33 2 19.5V18.5C2 16.565 3.565 15 5.5 15H6.5C7.21 15 7.865 15.21 8.415 15.57Z" fill="#FF7A00"/>
<path d="M18 15C19.2426 15 20.25 13.9926 20.25 12.75C20.25 11.5074 19.2426 10.5 18 10.5C16.7574 10.5 15.75 11.5074 15.75 12.75C15.75 13.9926 16.7574 15 18 15Z" fill="#FF7A00"/>
<path d="M6 15C7.24264 15 8.25 13.9926 8.25 12.75C8.25 11.5074 7.24264 10.5 6 10.5C4.75736 10.5 3.75 11.5074 3.75 12.75C3.75 13.9926 4.75736 15 6 15Z" fill="#FF7A00"/>
<path d="M22.0009 18.5V19.5C22.0009 20.33 21.3309 21 20.5009 21H17.5009V19.5C17.5009 17.905 16.7509 16.485 15.5859 15.57C16.1359 15.21 16.7909 15 17.5009 15H18.5009C20.4359 15 22.0009 16.565 22.0009 18.5Z" fill="#FF7A00"/>
<path d="M12 15.5C13.5188 15.5 14.75 14.2688 14.75 12.75C14.75 11.2312 13.5188 10 12 10C10.4812 10 9.25 11.2312 9.25 12.75C9.25 14.2688 10.4812 15.5 12 15.5Z" fill="#FF7A00"/>
<path d="M12.5 15.5H11.5C9.2945 15.5 7.5 17.2945 7.5 19.5V21C7.5 21.827 8.173 22.5 9 22.5H15C15.827 22.5 16.5 21.827 16.5 21V19.5C16.5 17.2945 14.7055 15.5 12.5 15.5Z" fill="#FF7A00"/>
<path d="M19.2501 8.34214L18.0436 8.77114C17.7011 8.89264 17.3436 8.63314 17.3536 8.26964L17.3886 6.98964L16.6076 5.97464C16.3861 5.68664 16.5226 5.26614 16.8711 5.16314L18.0996 4.80114L18.8236 3.74464C19.0291 3.44514 19.4711 3.44514 19.6766 3.74464L20.4006 4.80114L21.6291 5.16314C21.9776 5.26564 22.1141 5.68664 21.8926 5.97464L21.1116 6.98964L21.1466 8.26964C21.1566 8.63264 20.7986 8.89264 20.4566 8.77114L19.2501 8.34214Z" fill="#FF7A00"/>
<path d="M4.75008 8.34214L3.54358 8.77114C3.20108 8.89264 2.84358 8.63314 2.85358 8.26964L2.88858 6.98964L2.10758 5.97464C1.88608 5.68664 2.02258 5.26614 2.37108 5.16314L3.59958 4.80114L4.32358 3.74464C4.52908 3.44514 4.97108 3.44514 5.17658 3.74464L5.90058 4.80114L7.12908 5.16314C7.47758 5.26564 7.61408 5.68664 7.39258 5.97464L6.61158 6.98964L6.64658 8.26964C6.65658 8.63264 6.29858 8.89264 5.95658 8.77114L4.75008 8.34214Z" fill="#FF7A00"/>
<path d="M12.0007 7.21714L10.5702 7.72564C10.1642 7.87014 9.74016 7.56164 9.75216 7.13114L9.79366 5.61364L8.86766 4.41014C8.60516 4.06864 8.76716 3.57014 9.18016 3.44814L10.6367 3.01864L11.4952 1.76614C11.7387 1.41064 12.2632 1.41064 12.5067 1.76614L13.3652 3.01864L14.8217 3.44814C15.2347 3.57014 15.3967 4.06864 15.1342 4.41014L14.2082 5.61364L14.2497 7.13114C14.2617 7.56164 13.8372 7.87014 13.4317 7.72564L12.0007 7.21714Z" fill="#FF7A00"/>
</svg>
