<svg width="24" height="24" viewBox="0 0 24 24" fill="none" xmlns="http://www.w3.org/2000/svg">
<g clip-path="url(#clip0_857_177)">
<path fill-rule="evenodd" clip-rule="evenodd" d="M15.5024 2.09095C15.5998 2.25975 15.542 2.47561 15.3732 2.57306L7.67934 7.01512L8.58511 7.25784C8.77341 7.30828 8.88516 7.50183 8.83467 7.69012L8.65195 8.37197C8.60152 8.56026 8.40797 8.67197 8.21967 8.62153L5.66784 7.93776C5.2913 7.83684 5.0678 7.44979 5.16872 7.07325L5.85248 4.52142C5.90292 4.33312 6.09647 4.22142 6.28477 4.27186L6.96661 4.45458C7.15491 4.50501 7.26661 4.69856 7.21617 4.88686L6.97345 5.79262L14.6673 1.35056C14.8361 1.25311 15.0519 1.31095 15.1494 1.47975L15.5024 2.09095ZM22.5882 21.2853H23.647C23.8419 21.2853 24 21.4433 24 21.6382V22.3441C24 22.539 23.8419 22.6971 23.647 22.6971H0.352922C0.158016 22.6971 0 22.539 0 22.3441V21.6382C0 21.4433 0.158016 21.2853 0.352922 21.2853H1.41173V16.3441C1.41173 15.9543 1.72777 15.6382 2.11762 15.6382H4.94114C5.331 15.6382 5.64703 15.9543 5.64703 16.3441V21.2853H7.05881V13.5206C7.05881 13.1307 7.37484 12.8147 7.7647 12.8147H10.5882C10.9781 12.8147 11.2941 13.1307 11.2941 13.5206V21.2853H12.7059V10.6971C12.7059 10.3072 13.0219 9.99117 13.4118 9.99117H16.2353C16.6252 9.99117 16.9412 10.3072 16.9412 10.6971V21.2853H18.353V7.87354C18.353 7.48368 18.669 7.16765 19.0589 7.16765H21.8824C22.2722 7.16765 22.5883 7.48368 22.5883 7.87354V21.2853H22.5882Z" fill="#FF7A00"/>
</g>
<defs>
<clipPath id="clip0_857_177">
<rect width="24" height="24" fill="white"/>
</clipPath>
</defs>
</svg>
