<svg width="32" height="32" viewBox="0 0 32 32" fill="none" xmlns="http://www.w3.org/2000/svg">
<path fill-rule="evenodd" clip-rule="evenodd" d="M13.7879 13.9902L14.8862 16.6316C15.0003 16.9061 14.8832 17.2199 14.619 17.3559L13.7944 17.7801C13.6472 17.8559 13.4918 17.8655 13.3363 17.8084C13.1809 17.7513 13.0693 17.6432 13.0054 17.4904L11.7684 14.5314L13.7879 13.9902ZM20.6996 21.9344L30.3063 30.2601C30.3502 30.1327 30.3753 29.9966 30.3753 29.8544V14.0559C30.3753 13.9144 30.3508 13.7794 30.3078 13.6532L20.6996 21.9344ZM16.0376 24.3021L29.3513 12.8272C29.2776 12.8139 29.2028 12.8057 29.1252 12.8057H25.8044C25.8418 13.9816 25.0643 15.0841 23.8835 15.4005C22.8092 15.6884 21.6904 15.2514 21.0793 14.3712C19.2384 13.6629 17.0199 13.4772 14.9856 13.6149L16.0404 16.1517C16.4033 17.0246 16.0307 18.0353 15.1908 18.4674L14.3663 18.8917C13.9087 19.1271 13.3884 19.1591 12.9054 18.9818C12.4234 18.8048 12.0501 18.4461 11.8521 17.9726L10.5327 14.8164C8.9065 15.0025 7.31606 14.1911 6.4945 12.8057H2.87513C2.87275 12.8057 2.87069 12.8057 2.86831 12.8057L16.0376 24.3021ZM16.4432 25.6034L19.7426 22.7596L29.3478 31.0832C29.2758 31.0965 29.2013 31.1045 29.1252 31.1045H2.87506C2.87388 31.1045 2.87331 31.1045 2.87213 31.1045L12.3744 22.7632L15.6245 25.6002C15.7421 25.7034 15.8884 25.7544 16.0352 25.7544C16.1809 25.7544 16.3256 25.704 16.4432 25.6034ZM11.4246 21.9344L1.76006 30.4169C1.67456 30.2477 1.625 30.0569 1.625 29.8544V14.0559C1.625 13.8546 1.67394 13.6653 1.75888 13.4964L11.4246 21.9344ZM26.3723 9.89218L28.3366 10.4185C28.6508 10.5027 28.9739 10.3142 29.0573 10.0002C29.1408 9.68587 28.9526 9.36331 28.6388 9.27924L26.6744 8.75293C26.3603 8.66874 26.0372 8.85724 25.9538 9.17118C25.8702 9.48556 26.0584 9.80812 26.3723 9.89218ZM25.4264 4.09531L26.8644 2.65731C27.0942 2.42756 27.0959 2.05418 26.8663 1.82368C26.6371 1.59349 26.2631 1.59174 26.0331 1.82181L24.5951 3.25981C24.3653 3.48956 24.3636 3.86293 24.5932 4.09343C24.8224 4.32362 25.1964 4.32537 25.4264 4.09531ZM27.1531 6.74206L29.0153 6.24306C29.3314 6.15837 29.519 5.83349 29.4343 5.51737C29.3496 5.20124 29.0248 5.01368 28.7086 5.09837L26.8464 5.59737C26.5303 5.68206 26.3427 6.00693 26.4274 6.32306C26.5121 6.63918 26.837 6.82674 27.1531 6.74206ZM23.4913 8.74199C23.5616 8.73299 23.6321 8.71924 23.7024 8.70037C24.5511 8.47293 25.0548 7.60056 24.8274 6.75181C24.5999 5.90306 23.7276 5.39943 22.8788 5.62681C22.8084 5.64568 22.7405 5.66899 22.6752 5.69631L21.6558 1.89187C21.4644 1.17762 20.7234 0.749806 20.0092 0.941181C19.3439 1.11943 18.9181 1.78062 19.0309 2.45993L19.0308 2.45999C17.7839 4.15424 15.6679 5.81868 13.066 7.02406L14.5057 12.3972C17.3629 12.143 20.0319 12.5376 21.9589 13.3814H21.959C22.2038 14.0109 22.8935 14.3715 23.56 14.1929C24.2714 14.0023 24.7013 13.2576 24.5107 12.5463L23.4913 8.74199ZM13.3249 12.8202L10.8029 13.4959C9.27044 13.9066 7.68069 12.9887 7.27006 11.4563C6.85944 9.92393 7.77731 8.33406 9.30975 7.92343L11.8317 7.24768C12.3294 9.10518 12.827 10.9627 13.3249 12.8202Z" fill="black"/>
</svg>
