<svg width="48" height="48" viewBox="0 0 48 48" fill="none" xmlns="http://www.w3.org/2000/svg">
<path fill-rule="evenodd" clip-rule="evenodd" d="M13.557 4.92723L12.9733 5.86258C12.9213 5.94606 12.8864 6.03896 12.8703 6.13596C12.8543 6.23297 12.8575 6.33218 12.8798 6.42793C12.9021 6.52369 12.9431 6.61411 13.0003 6.69404C13.0576 6.77397 13.13 6.84185 13.2135 6.89378C13.3821 6.99867 13.5855 7.03229 13.7789 6.98723C13.8746 6.96493 13.965 6.92398 14.045 6.86672C14.1249 6.80947 14.1928 6.73703 14.2447 6.65355L15.9885 3.8598C16.0576 3.75587 16.0998 3.63631 16.111 3.51198C16.1223 3.38765 16.1024 3.26247 16.053 3.14779C16.0037 3.03312 15.9265 2.93257 15.8284 2.85528C15.7304 2.77799 15.6146 2.72639 15.4916 2.70517L11.8781 2.0808C11.6828 2.04864 11.4828 2.09506 11.3217 2.20992C11.1605 2.32478 11.0514 2.49875 11.0181 2.69381C10.9848 2.88887 11.0301 3.08918 11.144 3.25099C11.2579 3.41279 11.4312 3.52293 11.6261 3.55736L12.5963 3.72508C10.0189 4.93801 7.72923 6.68579 5.87964 8.85219C4.03004 11.0186 2.66288 13.554 1.86908 16.2897C1.07529 19.0254 0.87305 21.8988 1.27581 24.7188C1.67858 27.5387 2.67712 30.2406 4.20503 32.6447C4.31189 32.8108 4.48021 32.9279 4.67316 32.9702C4.8661 33.0125 5.06796 32.9767 5.23456 32.8706C5.40115 32.7644 5.51892 32.5966 5.56207 32.4038C5.60523 32.2111 5.57027 32.0091 5.46484 31.842C4.03706 29.5908 3.11026 27.0588 2.74731 24.4178C2.38437 21.7768 2.59378 19.0886 3.36133 16.5357C4.12889 13.9828 5.43663 11.6248 7.19581 9.62189C8.95499 7.61893 11.1244 6.01783 13.557 4.92723ZM41.7739 22.8054L41.1389 23.5673C41.1869 22.9985 41.2112 22.4371 41.2115 21.8831C41.2115 10.7996 32.2263 1.81445 21.1429 1.81445C20.8617 1.81445 20.5748 1.82383 20.2935 1.83592C20.0967 1.84555 19.9116 1.93248 19.7786 2.0778C19.6455 2.22313 19.5752 2.4151 19.5829 2.61198C19.5906 2.80887 19.6758 2.99474 19.8198 3.1292C19.9638 3.26366 20.1551 3.33583 20.3521 3.33002C20.6177 3.31895 20.8771 3.31445 21.1429 3.31445C31.3982 3.31445 39.7115 11.6278 39.7115 21.8831C39.7115 22.4986 39.6844 23.0892 39.6301 23.655C39.6259 23.6996 39.6215 23.7441 39.6168 23.7885L39.1012 22.8192C39.0077 22.645 38.8488 22.5149 38.6595 22.4576C38.4702 22.4002 38.2659 22.4203 38.0914 22.5134C37.9169 22.6065 37.7864 22.7649 37.7285 22.9541C37.6707 23.1432 37.6902 23.3476 37.7828 23.5224L39.342 26.4505C39.3998 26.5583 39.4832 26.6504 39.5849 26.7185C39.6865 26.7866 39.8034 26.8288 39.9251 26.8412C40.0469 26.8536 40.1698 26.836 40.2832 26.7898C40.3965 26.7437 40.4968 26.6704 40.5752 26.5765L42.9227 23.7601C42.9855 23.6847 43.0327 23.5977 43.0618 23.504C43.0909 23.4104 43.1012 23.3119 43.0923 23.2142C43.0833 23.1166 43.0552 23.0216 43.0095 22.9348C42.9638 22.848 42.9015 22.7711 42.8261 22.7084C42.7507 22.6457 42.6637 22.5984 42.5701 22.5693C42.4764 22.5402 42.3779 22.5299 42.2803 22.5389C42.1826 22.5478 42.0877 22.5759 42.0009 22.6216C41.9141 22.6673 41.8371 22.7296 41.7744 22.805L41.7739 22.8054ZM10.0312 39.2902L9.68996 38.362C12.7385 40.481 16.315 41.7128 20.0218 41.9205C23.7286 42.1282 27.4203 41.3037 30.6865 39.5386C30.7731 39.4921 30.8496 39.4289 30.9118 39.3528C30.9739 39.2767 31.0205 39.189 31.0488 39.0949C31.0771 39.0008 31.0865 38.902 31.0767 38.8042C31.0668 38.7064 31.0377 38.6115 30.9912 38.525C30.9446 38.4384 30.8815 38.3619 30.8054 38.2997C30.7292 38.2376 30.6416 38.191 30.5475 38.1627C30.4534 38.1344 30.3546 38.1249 30.2568 38.1348C30.159 38.1447 30.0641 38.1737 29.9776 38.2203C26.9013 39.8808 23.4192 40.6405 19.9309 40.4122C16.4425 40.1839 13.0892 38.9769 10.2556 36.9296L11.3545 36.9671C11.5521 36.9725 11.7437 36.8993 11.8875 36.7636C12.0313 36.628 12.1155 36.4409 12.1217 36.2434C12.1279 36.0458 12.0556 35.8538 11.9206 35.7095C11.7856 35.5651 11.5989 35.48 11.4014 35.473L8.1369 35.3605C8.01075 35.3482 7.88354 35.368 7.76715 35.4182C7.65077 35.4684 7.549 35.5473 7.47135 35.6475C7.39371 35.7477 7.34272 35.8659 7.32314 35.9911C7.30357 36.1163 7.31606 36.2445 7.35943 36.3636L8.62496 39.8058C8.69334 39.9923 8.833 40.144 9.01321 40.2275C9.19342 40.311 9.39942 40.3195 9.5859 40.2511C9.77238 40.1827 9.92406 40.0431 10.0076 39.8629C10.0911 39.6827 10.0996 39.4767 10.0312 39.2902ZM26.8139 20.5308C26.671 19.9306 26.4332 19.357 26.1096 18.8318L26.5997 17.7283L25.2988 16.4275L24.1951 16.9178C23.6699 16.5942 23.0965 16.3565 22.4965 16.2135L22.0629 15.0872H20.223L19.7895 16.2135C19.1894 16.3565 18.6161 16.5942 18.0909 16.9178L16.9875 16.4267L15.6863 17.7277L16.1764 18.8313C15.8529 19.3565 15.6152 19.9299 15.4723 20.53L14.346 20.9635V22.8032L15.4721 23.2366C15.615 23.8368 15.8528 24.4103 16.1763 24.9356L15.6863 26.0391L16.9875 27.3398L18.0909 26.8495C18.6161 27.1731 19.1894 27.4108 19.7895 27.5538L20.223 28.6801H22.0627L22.4961 27.554C23.0963 27.4111 23.6699 27.1734 24.1952 26.8497L25.2986 27.3398L26.5995 26.0389L26.1093 24.9352C26.4329 24.41 26.6706 23.8366 26.8136 23.2366L27.9399 22.8031V20.9634L26.8139 20.5308ZM21.1431 25.0925C20.5086 25.0925 19.8882 24.9043 19.3606 24.5518C18.833 24.1992 18.4218 23.6981 18.1789 23.1119C17.9361 22.5256 17.8726 21.8805 17.9964 21.2582C18.1202 20.6358 18.4257 20.0641 18.8744 19.6154C19.3231 19.1667 19.8948 18.8611 20.5172 18.7373C21.1396 18.6135 21.7847 18.6771 22.3709 18.9199C22.9572 19.1627 23.4583 19.574 23.8108 20.1016C24.1634 20.6292 24.3515 21.2495 24.3515 21.8841C24.3513 22.7349 24.0132 23.5508 23.4114 24.1523C22.8097 24.7539 21.9937 25.0917 21.1428 25.0916L21.1431 25.0925ZM46.5442 41.1809L38.9181 33.7808C38.6774 33.5485 38.3545 33.421 38.02 33.426C37.6855 33.431 37.3666 33.5681 37.1329 33.8075L36.976 33.9692L32.6041 29.7268C34.6 26.8119 35.4105 23.2461 34.8709 19.7548C34.3312 16.2634 32.4818 13.1088 29.6988 10.9326C26.9159 8.75636 23.4085 7.72198 19.89 8.03986C16.3716 8.35773 13.1063 10.004 10.7585 12.6438C8.41071 15.2835 7.15665 18.7185 7.25143 22.25C7.34622 25.7816 8.78274 29.1443 11.2688 31.6544C13.7548 34.1644 17.1037 35.6331 20.6341 35.7618C24.1646 35.8905 27.6114 34.6694 30.2736 32.347L34.5363 36.4834L34.3795 36.6451C34.1475 36.8858 34.0201 37.2085 34.0251 37.5428C34.0301 37.8771 34.1671 38.1958 34.4062 38.4295L42.0323 45.8295C42.2731 46.0618 42.596 46.1893 42.9305 46.1843C43.265 46.1793 43.5839 46.0421 43.8176 45.8027L46.5708 42.9652C46.8031 42.7244 46.9306 42.4015 46.9255 42.0671C46.9205 41.7326 46.7833 41.4137 46.5439 41.1801L46.5442 41.1809ZM21.1428 31.8549C19.1706 31.8549 17.2427 31.2701 15.6028 30.1744C13.963 29.0787 12.6849 27.5213 11.9302 25.6992C11.1754 23.8772 10.978 21.8722 11.3627 19.9378C11.7475 18.0035 12.6972 16.2267 14.0918 14.8322C15.4863 13.4376 17.2631 12.4879 19.1975 12.1031C21.1318 11.7184 23.1368 11.9158 24.9589 12.6706C26.7809 13.4253 28.3383 14.7034 29.434 16.3432C30.5297 17.9831 31.1146 19.911 31.1146 21.8832C31.1146 24.5279 30.064 27.0642 28.1939 28.9343C26.3238 30.8044 23.7875 31.8549 21.1428 31.8549Z" fill="#1B2431"/>
</svg>
