<svg width="24" height="25" viewBox="0 0 24 25" fill="none" xmlns="http://www.w3.org/2000/svg">
<path d="M12 2.38135C6.48602 2.38135 2 6.86737 2 12.3813C2 17.8949 6.48602 22.3813 12 22.3813C17.5136 22.3813 22 17.8949 22 12.3813C22 6.86737 17.5144 2.38135 12 2.38135ZM14.4869 12.7334H12.86V18.5322H10.4492C10.4492 18.5322 10.4492 15.3637 10.4492 12.7334H9.30323V10.6839H10.4492V9.35831C10.4492 8.4089 10.9003 6.92537 12.8821 6.92537L14.6686 6.93222V8.92167C14.6686 8.92167 13.583 8.92167 13.3719 8.92167C13.1609 8.92167 12.8608 9.0272 12.8608 9.47995V10.6843H14.6976L14.4869 12.7334Z" fill="#182E46"/>
</svg>
