<svg width="20" height="20" viewBox="0 0 20 20" fill="none" xmlns="http://www.w3.org/2000/svg">
<path d="M10.0003 1.66602C5.40534 1.66602 1.66699 5.40437 1.66699 9.99935C1.66699 14.594 5.40534 18.3327 10.0003 18.3327C14.595 18.3327 18.3337 14.594 18.3337 9.99935C18.3337 5.40437 14.5956 1.66602 10.0003 1.66602ZM12.0727 10.2927H10.717V15.125H8.708C8.708 15.125 8.708 12.4846 8.708 10.2927H7.75302V8.58484H8.708V7.48015C8.708 6.68897 9.08395 5.4527 10.7354 5.4527L12.2241 5.45841V7.11628C12.2241 7.11628 11.3195 7.11628 11.1436 7.11628C10.9677 7.11628 10.7177 7.20423 10.7177 7.58152V8.58517H12.2483L12.0727 10.2927Z" fill="white"/>
</svg>
