<svg width="32" height="33" viewBox="0 0 32 33" fill="none" xmlns="http://www.w3.org/2000/svg">
<path d="M18 4.42285H16C15.4478 4.42285 15 4.87061 15 5.42285C15 5.85291 15.2745 6.21204 15.6555 6.35327L12 10.0088L10.707 8.71582C10.3164 8.3252 9.68359 8.3252 9.29297 8.71582L5.29297 12.7158C4.90234 13.1064 4.90234 13.7393 5.29297 14.1299C5.48828 14.3252 5.74414 14.4229 6 14.4229C6.25586 14.4229 6.51172 14.3252 6.70703 14.1299L10 10.8369L11.293 12.1299C11.6836 12.5205 12.3164 12.5205 12.707 12.1299L17.0696 7.76733C17.2108 8.14832 17.5699 8.42285 18 8.42285C18.5522 8.42285 19 7.9751 19 7.42285V5.42285C19 4.87061 18.5522 4.42285 18 4.42285Z" fill="#182E46"/>
<path d="M25 8.42285C26.6569 8.42285 28 7.07971 28 5.42285C28 3.766 26.6569 2.42285 25 2.42285C23.3431 2.42285 22 3.766 22 5.42285C22 7.07971 23.3431 8.42285 25 8.42285Z" fill="#182E46"/>
<path d="M27 8.42285H25H23C21.3457 8.42285 20 9.76855 20 11.4229V14.4229C20 14.9751 20.4478 15.4229 21 15.4229H29C29.5522 15.4229 30 14.9751 30 14.4229V11.4229C30 9.76855 28.6543 8.42285 27 8.42285Z" fill="#182E46"/>
<path d="M25 16.4229C23.3457 16.4229 22 17.7686 22 19.4229C22 19.9751 22.4478 20.4229 23 20.4229C23.5522 20.4229 24 19.9751 24 19.4229C24 18.8716 24.4487 18.4229 25 18.4229C25.5513 18.4229 26 18.8716 26 19.4229C26 19.7915 25.7979 20.1294 25.4717 20.3047C24.564 20.7939 24 21.7817 24 22.8828V23.4229C24 23.9751 24.4478 24.4229 25 24.4229C25.5522 24.4229 26 23.9751 26 23.4229V22.8828C26 22.5239 26.165 22.2031 26.4199 22.0659C27.3945 21.5415 28 20.5288 28 19.4229C28 17.7686 26.6543 16.4229 25 16.4229Z" fill="#182E46"/>
<path d="M25.0298 25.4229H25.02C24.4678 25.4229 24.0249 25.8706 24.0249 26.4229C24.0249 26.9751 24.4775 27.4229 25.0298 27.4229C25.5825 27.4229 26.0298 26.9751 26.0298 26.4229C26.0298 25.8706 25.5825 25.4229 25.0298 25.4229Z" fill="#182E46"/>
<path d="M10.5 21.7479V30.4228L17.3936 27.3417C17.7617 27.1845 18 26.8227 18 26.4228V18.4228C18 18.4201 17.9988 18.4177 17.9988 18.415L10.5 21.7479Z" fill="#182E46"/>
<path d="M10.3936 14.5042C10.1436 14.3958 9.85645 14.3958 9.60645 14.5042C9.60645 14.5042 2.55365 17.5385 2.52563 17.5538L10 20.8757L17.4744 17.5538C17.4464 17.5385 10.3936 14.5042 10.3936 14.5042Z" fill="#182E46"/>
<path d="M2 18.4228V26.4228C2 26.8227 2.23828 27.1845 2.60645 27.3417L9.5 30.4228V21.7479L2.00116 18.415C2.00116 18.4177 2 18.4201 2 18.4228Z" fill="#182E46"/>
</svg>
