<svg width="32" height="32" viewBox="0 0 32 32" fill="none" xmlns="http://www.w3.org/2000/svg">
<g clip-path="url(#clip0_229_681)">
<path d="M6.7972 32.0001C6.61526 31.3 6.74333 30.5483 7.17089 29.939L11.7271 23.4462L9.1567 19.8811C9.03202 19.7081 8.84089 19.6216 8.64977 19.6216C8.45864 19.6216 8.26752 19.7081 8.14277 19.8811L0.11914 31.0096C-0.178923 31.423 0.116515 32.0001 0.62614 32.0001H6.7972Z" fill="#1B2431"/>
<path d="M21.2334 13.2719V10H29.0459C29.3863 10 29.7001 9.81538 29.8654 9.51781C30.0307 9.22025 30.0217 8.85631 29.8419 8.56725L28.2056 5.9375L29.8419 3.30775C30.0218 3.01869 30.0308 2.65481 29.8654 2.35719C29.7 2.05956 29.3864 1.875 29.0459 1.875H21.2334V0.9375C21.2334 0.41975 20.8136 0 20.2959 0C19.7781 0 19.3584 0.41975 19.3584 0.9375V13.2719C19.8942 12.6836 20.6852 12.6718 21.2334 13.2719Z" fill="#1B2431"/>
<path d="M25.4343 21.8235L23.1963 23.9085C23.0163 24.0762 22.7868 24.16 22.5572 24.16C22.3277 24.16 22.0982 24.0762 21.9182 23.9085L20.2949 22.3962L18.672 23.9084C18.3119 24.2439 17.7539 24.2439 17.3938 23.9084L15.1561 21.8235L8.7053 31.0161C8.41468 31.4303 8.71093 32.0001 9.21693 32.0001H16.6729H31.3735C31.8795 32.0001 32.1757 31.4303 31.8851 31.0161L25.4343 21.8235Z" fill="#1B2431"/>
<path d="M18.0332 21.9411L19.6561 20.4289C20.0161 20.0934 20.5742 20.0934 20.9342 20.4288L22.5575 21.9411L24.3634 20.2969L20.8071 15.2291C20.6827 15.0518 20.4891 14.9631 20.2955 14.9631C20.1019 14.9631 19.9083 15.0518 19.7839 15.2291L16.2275 20.2969L18.0332 21.9411Z" fill="#1B2431"/>
</g>
<defs>
<clipPath id="clip0_229_681">
<rect width="32" height="32" fill="white"/>
</clipPath>
</defs>
</svg>
