<svg width="52" height="52" viewBox="0 0 52 52" fill="none" xmlns="http://www.w3.org/2000/svg">
<g clip-path="url(#clip0_307_1943)">
<path d="M15.2378 16.7347L15.2499 16.7412C15.3291 16.7675 15.4066 16.7985 15.482 16.8341L15.6808 16.9269C15.9844 17.0625 16.4617 17.2807 17.2593 17.6419L19.6068 18.7117L20.0943 18.9336C20.4563 19.0989 20.8711 19.1043 21.2373 18.9484C21.6024 18.7969 21.8865 18.4981 22.0192 18.1257C22.1481 17.7684 22.1281 17.3743 21.9636 17.0319C21.7992 16.6894 21.504 16.4275 21.1445 16.3048L16.1302 14.6027C15.561 14.3826 14.9188 14.6444 14.6658 15.1998L14.6463 15.2546C14.4195 15.8268 14.6791 16.4765 15.2378 16.7347Z" fill="#1B2431"/>
<path d="M23.3997 5.82029L26.0136 6.60401C26.3158 6.69486 26.5878 6.86552 26.8011 7.09801C27.2654 7.58153 27.4196 8.2845 27.2003 8.91801C27.2003 8.91801 26.8967 9.82151 26.8512 9.96265C26.8279 10.0433 26.7939 10.1204 26.75 10.192C26.5719 10.4759 26.355 10.7334 26.1056 10.9571L29.207 10.4409C30.1496 10.284 31.1107 10.2727 32.0568 10.4074L32.5619 10.4799L29.6564 4.41258C29.4873 4.02079 29.1175 3.75287 28.6926 3.71429H24.0218C23.6942 3.67593 23.3633 3.75169 23.0849 3.92879C22.7939 4.16024 22.6516 4.53156 22.7135 4.89822C22.7606 5.3063 23.0223 5.65802 23.3997 5.82029Z" fill="#1B2431"/>
<path d="M13.4718 20.5567L14.8099 21.5614C14.8191 21.567 14.8266 21.5744 14.8349 21.58L17.6058 23.66C18.0513 23.9948 18.6293 24.0981 19.1633 23.9386C19.6972 23.7791 20.1237 23.3755 20.3126 22.8512C20.6182 21.9897 20.2152 21.0374 19.384 20.657L19.3162 20.6254L18.7321 20.3599L14.7179 18.5306L14.6789 18.5129C14.6529 18.5055 14.5786 18.4758 14.5591 18.4693C14.4413 18.4311 14.3181 18.4117 14.1942 18.4117C13.8768 18.4072 13.571 18.531 13.3462 18.7552C13.1213 18.9793 12.9965 19.2847 13.0001 19.6022C12.9986 19.9768 13.1733 20.3303 13.4718 20.5567Z" fill="#1B2431"/>
<path d="M16.8259 12.8756L21.7844 14.5628C22.2943 14.7372 22.8587 14.615 23.2508 14.2453C23.6428 13.8757 23.798 13.3194 23.6538 12.8002C23.5097 12.281 23.09 11.8843 22.5635 11.7696H22.5524L18.9774 11.05L17.9708 10.8485C17.9494 10.8485 17.9281 10.8392 17.9077 10.8346L17.578 10.7677C17.0857 10.6491 16.5704 10.8381 16.2715 11.2469C16.1577 11.4243 16.0983 11.6312 16.1007 11.8421C16.1013 12.3047 16.391 12.7176 16.8259 12.8756Z" fill="#1B2431"/>
<path d="M6.00972 24.9368C5.87214 24.8636 5.71891 24.8247 5.56307 24.8235C5.38183 24.8244 5.20508 24.88 5.05607 24.9832L0.413214 28.0781C0.155007 28.2504 -4.64367e-05 28.5403 1.04528e-08 28.8507V46.6728C-5.1256e-05 47.0153 0.18848 47.3301 0.490504 47.4917C0.792528 47.6533 1.15899 47.6355 1.44393 47.4454L6.08679 44.3504C6.34499 44.1782 6.50005 43.8883 6.5 43.5779V25.7558C6.50479 25.412 6.31501 25.095 6.00972 24.9368ZM2.78571 43.6429C2.27288 43.6429 1.85714 43.2271 1.85714 42.7143C1.85714 42.2015 2.27288 41.7857 2.78571 41.7857C3.29855 41.7857 3.71429 42.2015 3.71429 42.7143C3.71429 43.2271 3.29855 43.6429 2.78571 43.6429Z" fill="#1B2431"/>
<path d="M51.5869 28.0781L46.944 24.9832C46.795 24.88 46.6183 24.8244 46.437 24.8235C46.2812 24.8247 46.1279 24.8636 45.9904 24.9368C45.6851 25.095 45.4953 25.412 45.5001 25.7558V43.5779C45.5 43.8883 45.6551 44.1782 45.9133 44.3504L50.5562 47.4454C50.8411 47.6355 51.2076 47.6533 51.5096 47.4917C51.8116 47.3301 52.0001 47.0153 52.0001 46.6728V28.8507C52.0001 28.5403 51.8451 28.2504 51.5869 28.0781ZM49.2144 43.6429C48.7015 43.6429 48.2858 43.2271 48.2858 42.7143C48.2858 42.2015 48.7015 41.7857 49.2144 41.7857C49.7272 41.7857 50.1429 42.2015 50.1429 42.7143C50.1429 43.2271 49.7272 43.6429 49.2144 43.6429Z" fill="#1B2431"/>
<path d="M18.3189 9.02015L18.3606 9.03036L23.2914 10.0165C23.9909 10.1651 24.7116 9.881 25.1216 9.29501C25.1801 9.10929 25.2794 8.81493 25.4447 8.32093L22.7983 7.57808C22.3197 7.39567 21.8944 7.09621 21.5614 6.70708L18.3904 7.17136C18.0556 7.2154 17.7712 7.43761 17.6475 7.75172C17.5429 8.01121 17.5589 8.30374 17.6911 8.55029C17.8207 8.7919 18.0505 8.96388 18.3189 9.02015Z" fill="#1B2431"/>
<path d="M41.971 27.7198L34.0586 33.6571L43.6424 40.0503V27.4217L42.7454 26.8237C42.5495 27.171 42.2862 27.4757 41.971 27.7198Z" fill="#1B2431"/>
<path d="M41.331 25.2756C41.3313 25.1221 41.3027 24.97 41.2465 24.8271C41.124 24.5254 40.8837 24.2868 40.5811 24.1666C40.2785 24.0463 39.9399 24.0548 39.6438 24.1901L33.8504 26.8263C33.5471 26.9726 33.1884 26.9433 32.913 26.7496C32.6375 26.556 32.4885 26.2284 32.5235 25.8935C32.5585 25.5586 32.772 25.2689 33.0816 25.1363L38.8759 22.4992C38.9269 22.476 38.9808 22.4667 39.0319 22.4463C39.0551 22.4333 39.0699 22.4119 39.0941 22.4017C39.6417 22.1349 39.8883 21.4889 39.6578 20.9251C39.4274 20.3612 38.7989 20.0729 38.2212 20.266L38.1348 20.2966L32.4427 22.3395C32.1226 22.4267 31.7802 22.3366 31.5446 22.1029C31.309 21.8693 31.2159 21.5277 31.3004 21.2069C31.3849 20.886 31.6341 20.6346 31.9543 20.5473L32.2607 20.4638L37.5043 18.5528C38.0713 18.3665 38.3908 17.7665 38.229 17.1921C38.0673 16.6177 37.4816 16.2727 36.9008 16.4096L31.0434 17.5815C30.5442 17.6739 30.0633 17.3483 29.9638 16.8504C29.8643 16.3526 30.183 15.8672 30.6794 15.7606L36.0019 14.6955C36.2751 14.641 36.5098 14.4677 36.6424 14.2228C36.7751 13.9778 36.7918 13.6865 36.6881 13.428C36.5641 13.1128 36.2805 12.8884 35.9453 12.8402L31.8001 12.2487C31.0425 12.1408 30.2727 12.1495 29.5177 12.2747L25.5508 12.9358C25.6602 14.3223 24.8842 15.6273 23.6139 16.1933C23.6194 16.2053 23.6287 16.2156 23.6343 16.2276C24.0234 17.0352 24.0642 17.9671 23.7472 18.8056C23.4303 19.6442 22.7833 20.316 21.9573 20.6643C21.9368 20.6736 21.9155 20.6755 21.8951 20.6838C22.3678 21.6334 22.3957 22.7436 21.9714 23.7158C21.547 24.688 20.7139 25.4223 19.6962 25.7213C19.3568 25.8238 19.0042 25.876 18.6497 25.8764C17.8701 25.8755 17.1121 25.6202 16.4908 25.1493L14.2743 23.4853L8.35742 27.4253V40.0538L16.6477 34.5242C17.7148 33.8098 18.9701 33.4285 20.2543 33.4285H29.4081C30.6138 33.4294 31.787 33.0383 32.751 32.3142L40.8574 26.2321C41.1569 26.0054 41.3323 25.6512 41.331 25.2756Z" fill="#1B2431"/>
</g>
<defs>
<clipPath id="clip0_307_1943">
<rect width="52" height="52" fill="white"/>
</clipPath>
</defs>
</svg>
