<svg width="17" height="16" viewBox="0 0 17 16" fill="none" xmlns="http://www.w3.org/2000/svg">
<path d="M9.11958 1.25619C8.95524 1.09215 8.73238 1 8.5 1C8.26762 1 8.04476 1.09215 7.88042 1.25619L1.746 7.38127C1.58637 7.5463 1.49804 7.76733 1.50003 7.99676C1.50203 8.22618 1.59419 8.44565 1.75668 8.60788C1.91916 8.77011 2.13896 8.86214 2.36873 8.86413C2.59851 8.86613 2.81987 8.77793 2.98515 8.61854L3.24192 8.36216V14.125C3.24192 14.3571 3.33425 14.5796 3.4986 14.7437C3.66295 14.9078 3.88585 15 4.11827 15H5.87096C6.10338 15 6.32628 14.9078 6.49063 14.7437C6.65498 14.5796 6.74731 14.3571 6.74731 14.125V12.375C6.74731 12.1429 6.83964 11.9203 7.00398 11.7562C7.16833 11.5921 7.39123 11.5 7.62365 11.5H9.37635C9.60877 11.5 9.83167 11.5921 9.99602 11.7562C10.1604 11.9203 10.2527 12.1429 10.2527 12.375V14.125C10.2527 14.3571 10.345 14.5796 10.5094 14.7437C10.6737 14.9078 10.8966 15 11.129 15H12.8817C13.1142 15 13.3371 14.9078 13.5014 14.7437C13.6657 14.5796 13.7581 14.3571 13.7581 14.125V8.36216L14.0148 8.61854C14.1801 8.77793 14.4015 8.86613 14.6313 8.86413C14.861 8.86214 15.0808 8.77011 15.2433 8.60788C15.4058 8.44565 15.498 8.22618 15.5 7.99676C15.502 7.76733 15.4136 7.5463 15.254 7.38127L9.11958 1.25619Z" fill="#1B2431"/>
</svg>
