<svg width="16" height="16" viewBox="0 0 16 16" fill="none" xmlns="http://www.w3.org/2000/svg">
<g clip-path="url(#clip0_229_370)">
<path d="M6.28613 4.32727H13.3722V5.16363H6.28613V4.32727Z" fill="#1B2431"/>
<path d="M5.63099 8.74667H14.1328C14.368 8.74667 14.5595 8.55515 14.5595 8.32V6.18424C14.5595 5.88849 14.3195 5.65091 14.0261 5.65091H13.614H6.04311H5.63099C5.33523 5.65091 5.09766 5.89091 5.09766 6.18424V8.21333C5.09766 8.50667 5.33766 8.74667 5.63099 8.74667ZM13.2916 6.48485C13.2916 6.35152 13.4007 6.24242 13.534 6.24242C13.6674 6.24242 13.7764 6.35152 13.7764 6.48485V7.9103C13.7764 8.04364 13.6674 8.15273 13.534 8.15273C13.4007 8.15273 13.2916 8.04364 13.2916 7.9103V6.48485ZM12.1522 6.48485C12.1522 6.35152 12.2613 6.24242 12.3946 6.24242C12.528 6.24242 12.6371 6.35152 12.6371 6.48485V7.9103C12.6371 8.04364 12.528 8.15273 12.3946 8.15273C12.2613 8.15273 12.1522 8.04364 12.1522 7.9103V6.48485ZM11.0104 6.48485C11.0104 6.35152 11.1195 6.24242 11.2528 6.24242C11.3861 6.24242 11.4952 6.35152 11.4952 6.48485V7.9103C11.4952 8.04364 11.3861 8.15273 11.2528 8.15273C11.1195 8.15273 11.0104 8.04364 11.0104 7.9103V6.48485ZM9.87099 6.48485C9.87099 6.35152 9.98008 6.24242 10.1134 6.24242C10.2467 6.24242 10.3558 6.35152 10.3558 6.48485V7.9103C10.3558 8.04364 10.2467 8.15273 10.1134 8.15273C9.98008 8.15273 9.87099 8.04364 9.87099 7.9103V6.48485ZM6.6225 6.29576C7.11947 6.29576 7.52432 6.70061 7.52432 7.2C7.52432 7.69697 7.11947 8.10182 6.6225 8.10182C6.12311 8.10182 5.71826 7.69697 5.71826 7.2C5.71826 6.70061 6.12553 6.29576 6.6225 6.29576Z" fill="#1B2431"/>
<path d="M6.62252 7.61697C6.85282 7.61697 7.03949 7.43031 7.03949 7.2C7.03949 6.9697 6.85282 6.78061 6.62252 6.78061C6.39222 6.78061 6.20312 6.96728 6.20312 7.2C6.20312 7.43273 6.39222 7.61697 6.62252 7.61697Z" fill="#1B2431"/>
<path d="M2.18152 12.2061C1.98274 12.2061 1.82031 12.3685 1.82031 12.5648C1.82031 12.7612 1.98274 12.9212 2.18152 12.9212C2.37789 12.9212 2.53789 12.7612 2.53789 12.5648C2.54031 12.3685 2.38031 12.2061 2.18152 12.2061Z" fill="#1B2431"/>
<path d="M13.6145 3.84242H14.0242C14.3199 3.84242 14.5599 3.60242 14.5599 3.30666V1.28C14.5599 0.98424 14.3199 0.74424 14.0242 0.74424H5.63146C5.3357 0.74424 5.0957 0.98424 5.0957 1.28V3.30666C5.0957 3.60242 5.3357 3.84242 5.63146 3.84242H6.04116H13.6145ZM13.2921 1.5806C13.2921 1.44727 13.4012 1.33818 13.5345 1.33818C13.6678 1.33818 13.7769 1.44727 13.7769 1.5806V3.00606C13.7769 3.13939 13.6678 3.24848 13.5345 3.24848C13.4012 3.24848 13.2921 3.13939 13.2921 3.00606V1.5806ZM12.1527 1.5806C12.1527 1.44727 12.2618 1.33818 12.3951 1.33818C12.5284 1.33818 12.6375 1.44727 12.6375 1.5806V3.00606C12.6375 3.13939 12.5284 3.24848 12.3951 3.24848C12.2618 3.24848 12.1527 3.13939 12.1527 3.00606V1.5806ZM11.0109 1.5806C11.0109 1.44727 11.1199 1.33818 11.2533 1.33818C11.3866 1.33818 11.4957 1.44727 11.4957 1.5806V3.00606C11.4957 3.13939 11.3866 3.24848 11.2533 3.24848C11.1199 3.24848 11.0109 3.13939 11.0109 3.00606V1.5806ZM9.87146 1.5806C9.87146 1.44727 9.98055 1.33818 10.1139 1.33818C10.2472 1.33818 10.3563 1.44727 10.3563 1.5806V3.00606C10.3563 3.13939 10.2472 3.24848 10.1139 3.24848C9.98055 3.24848 9.87146 3.13939 9.87146 3.00606V1.5806ZM5.71873 2.29576C5.71873 1.79879 6.12358 1.39394 6.62298 1.39394C7.11995 1.39394 7.52479 1.79879 7.52479 2.29576C7.52479 2.79272 7.11995 3.19757 6.62298 3.19757C6.12601 3.19757 5.71873 2.79272 5.71873 2.29576Z" fill="#1B2431"/>
<path d="M7.03949 2.29575C7.03949 2.06545 6.85282 1.87878 6.62252 1.87878C6.39222 1.87878 6.20312 2.06545 6.20312 2.29575C6.20312 2.52606 6.39222 2.71272 6.62252 2.71272C6.85282 2.71272 7.03949 2.52606 7.03949 2.29575Z" fill="#1B2431"/>
<path d="M15.4926 10.7758C15.3278 10.6715 15.1241 10.6594 14.9472 10.7442L11.9047 12.1479C11.7108 12.4024 11.4078 12.5697 11.0635 12.5697H7.42716C7.29382 12.5697 7.18473 12.4606 7.18473 12.3273C7.18473 12.1939 7.29382 12.0849 7.42716 12.0849H11.0635C11.2696 12.0849 11.449 11.9758 11.5508 11.8133C11.5775 11.7745 11.5944 11.7309 11.609 11.6873C11.6138 11.6752 11.6162 11.6655 11.6187 11.6533C11.6308 11.6049 11.6405 11.5564 11.6405 11.5055C11.6405 11.1855 11.3811 10.9261 11.0611 10.9261H9.17988C9.11928 10.9261 9.0611 10.9042 9.01746 10.863C8.18837 10.1139 7.14837 9.65334 6.23443 9.63152C5.22352 9.60728 4.31201 9.6194 3.89746 9.62667V13.2121C4.99564 13.8618 7.68898 15.3115 8.70716 15.2533C10.7266 15.1394 15.3981 11.7891 15.4441 11.7552C15.4514 11.7503 15.4587 11.7455 15.4659 11.7406C15.6429 11.6412 15.7544 11.4545 15.7544 11.2533C15.7569 11.0545 15.6599 10.88 15.4926 10.7758Z" fill="#1B2431"/>
<path d="M3.41552 9.23637C3.41552 9.01818 3.23613 8.83879 3.01795 8.83879H0.639763C0.421581 8.83879 0.242188 9.01576 0.242188 9.23637V13.5079C0.242188 13.7261 0.421581 13.9055 0.639763 13.9055H3.01795C3.23613 13.9055 3.41552 13.7261 3.41552 13.5079V13.3527V9.39152V9.23637ZM2.18158 13.4085C1.71613 13.4085 1.33552 13.0303 1.33552 12.5673C1.33552 12.1018 1.7137 11.7236 2.18158 11.7236C2.64704 11.7236 3.02279 12.1018 3.02279 12.5673C3.02522 13.0303 2.64704 13.4085 2.18158 13.4085Z" fill="#1B2431"/>
</g>
<defs>
<clipPath id="clip0_229_370">
<rect width="16" height="16" fill="white"/>
</clipPath>
</defs>
</svg>
