<svg width="24" height="24" viewBox="0 0 24 24" fill="none" xmlns="http://www.w3.org/2000/svg">
<path d="M18.1916 21.5626H18.1876V18.1407C18.1876 16.9832 17.4455 15.5382 16.5141 14.8514L12.9375 12.2235V11.7767L16.5139 9.14883C17.4455 8.46197 18.1874 7.01701 18.1874 5.85947V2.43754H18.1914C18.8118 2.43754 19.3124 1.93297 19.3124 1.31258V1.12496C19.3124 0.504575 18.8118 0 18.1914 0H5.81322C5.19284 0 4.6875 0.504575 4.6875 1.12496V1.31239C4.6875 1.93278 5.19246 2.43735 5.81284 2.43735L5.81799 5.85928C5.81799 7.01701 6.54675 8.46102 7.48028 9.14636L11.0626 11.7786V12.2212L7.47743 14.8536C6.54428 15.539 5.81246 16.983 5.81246 18.1407V21.5626H5.81322C5.19284 21.5626 4.6875 22.0672 4.6875 22.6876V22.875C4.6875 23.4954 5.19284 24 5.81322 24H18.1916C18.812 24 19.3126 23.4954 19.3126 22.875V22.6876C19.3126 22.0672 18.812 21.5626 18.1916 21.5626ZM17.4375 21.5628H16.5V18.6219C16.5 17.7672 15.9636 16.7001 15.2752 16.1931L12.2318 13.9485C12.0997 13.8508 11.9201 13.8506 11.7879 13.9479L8.72848 16.1946C8.03934 16.7009 7.4999 17.767 7.4999 18.6219V21.5626H6.56237V18.1407C6.56237 17.2274 7.18733 15.999 7.92353 15.4582L11.6601 12.7136C11.7563 12.643 11.8123 12.5308 11.8123 12.4113V11.5889C11.8123 11.4694 11.7577 11.3572 11.6617 11.2866L7.92257 8.54197C7.18619 8.00121 6.56237 6.77282 6.56237 5.85947V2.43754H17.4375V5.85947C17.4375 6.7732 16.8044 8.00311 16.0687 8.5454L12.3458 11.2854C12.25 11.3561 12.1874 11.4679 12.1874 11.5871V12.4131C12.1874 12.5321 12.2439 12.6441 12.3398 12.7148L16.0689 15.455C16.8042 15.9973 17.4375 17.2272 17.4375 18.1409V21.5628Z" fill="#FF7A00"/>
<path d="M15.412 7.38823C15.3614 7.23413 15.2175 7.13032 15.0556 7.13032L8.95121 7.12842C8.78912 7.12842 8.6455 7.23261 8.59483 7.38652C8.54435 7.54061 8.59864 7.70976 8.72931 7.80576L11.789 10.0523C11.855 10.1008 11.933 10.125 12.0109 10.125C12.089 10.125 12.1672 10.1006 12.2333 10.0517L15.2783 7.80709C15.4086 7.71109 15.4627 7.54214 15.412 7.38823Z" fill="#FF7A00"/>
</svg>
