<svg width="48" height="48" viewBox="0 0 48 48" fill="none" xmlns="http://www.w3.org/2000/svg">
<g clip-path="url(#clip0_342_301)">
<mask id="mask0_342_301" style="mask-type:luminance" maskUnits="userSpaceOnUse" x="0" y="0" width="48" height="48">
<path d="M0 3.8147e-06H48V48H0V3.8147e-06Z" fill="white"/>
</mask>
<g mask="url(#mask0_342_301)">
<path d="M1.40625 25.9688C1.40625 29.0843 2.67459 31.9005 4.72209 33.9353C6.6075 35.8089 7.73438 38.3107 7.73438 40.9688H17.5781C17.5781 38.3107 18.705 35.8089 20.5904 33.9353C22.6379 31.9005 23.9062 29.0843 23.9062 25.9688" stroke="#1B2431" stroke-width="3" stroke-miterlimit="10" stroke-linecap="round" stroke-linejoin="round"/>
<path d="M14.7656 46.5938H10.5469C8.99362 46.5938 7.73438 45.3345 7.73438 43.7812V40.9688H17.5781V43.7812C17.5781 45.3345 16.3189 46.5938 14.7656 46.5938Z" stroke="#1B2431" stroke-width="3" stroke-miterlimit="10" stroke-linecap="round" stroke-linejoin="round"/>
<path d="M23.9062 25.9688C23.9062 19.7556 18.8694 14.7188 12.6562 14.7188C6.44306 14.7188 1.40625 19.7556 1.40625 25.9688" stroke="#1B2431" stroke-width="3" stroke-miterlimit="10" stroke-linecap="round" stroke-linejoin="round"/>
<path d="M12.6562 40.9688V29.7188" stroke="#1B2431" stroke-width="3" stroke-miterlimit="10" stroke-linecap="round" stroke-linejoin="round"/>
<path d="M16.4062 25.9688L12.6562 29.7188L8.90625 25.9688" stroke="#1B2431" stroke-width="3" stroke-miterlimit="10" stroke-linecap="round" stroke-linejoin="round"/>
<path d="M44.8026 37.2188C44.8026 36.7356 44.7527 36.2644 44.6655 35.8066L46.5935 34.5609L44.2498 30.5015L42.204 31.5501C41.4936 30.9353 40.6673 30.4542 39.7612 30.1395L39.6464 27.8438H34.9589L34.8441 30.1395C33.938 30.4542 33.1117 30.9353 32.4013 31.5501L30.3555 30.5015L28.0117 34.5609L29.9399 35.8066C29.8525 36.2644 29.8026 36.7356 29.8026 37.2188C29.8026 37.7019 29.8525 38.1731 29.9399 38.6309L28.0117 39.8765L30.3555 43.9359L32.4013 42.8874C33.1117 43.5023 33.938 43.9833 34.8441 44.298L34.9589 46.5938H39.6464L39.7612 44.298C40.6673 43.9833 41.4935 43.5023 42.204 42.8874L44.2498 43.9359L46.5935 39.8765L44.6655 38.6309C44.7527 38.1731 44.8026 37.7019 44.8026 37.2188Z" stroke="#1B2431" stroke-width="3" stroke-miterlimit="10" stroke-linecap="round" stroke-linejoin="round"/>
<path d="M40.1152 37.2188C40.1152 38.772 38.8561 40.0312 37.3027 40.0312C35.7495 40.0312 34.4902 38.772 34.4902 37.2188C34.4902 35.6655 35.7495 34.4062 37.3027 34.4062C38.8561 34.4062 40.1152 35.6655 40.1152 37.2188Z" stroke="#1B2431" stroke-width="3" stroke-miterlimit="10" stroke-linecap="round" stroke-linejoin="round"/>
<path d="M37.3028 22.2188V7.03125C37.3028 3.92466 34.7844 1.40625 31.6778 1.40625H18.2812C15.1747 1.40625 12.6562 3.92466 12.6562 7.03125V9.09375" stroke="#1B2431" stroke-width="3" stroke-miterlimit="10" stroke-linecap="round" stroke-linejoin="round"/>
<path d="M41.9902 17.5313L37.3027 22.2188L32.6152 17.5313" stroke="#1B2431" stroke-width="3" stroke-miterlimit="10" stroke-linecap="round" stroke-linejoin="round"/>
</g>
</g>
<defs>
<clipPath id="clip0_342_301">
<rect width="48" height="48" fill="white"/>
</clipPath>
</defs>
</svg>
