<svg width="32" height="32" viewBox="0 0 32 32" fill="none" xmlns="http://www.w3.org/2000/svg">
<g clip-path="url(#clip0_857_324)">
<path d="M11.3125 28.1875V30.125H8.5C7.98181 30.125 7.5625 30.5443 7.5625 31.0625C7.5625 31.5807 7.98181 32 8.5 32H23.5C24.0182 32 24.4375 31.5807 24.4375 31.0625C24.4375 30.5443 24.0182 30.125 23.5 30.125H20.6875V28.1875H11.3125Z" fill="black"/>
<path d="M0.9375 26.3125H31.0625C31.5807 26.3125 32 25.8932 32 25.375V4.75C32 4.23181 31.5807 3.8125 31.0625 3.8125H29.125V19.75C29.125 21.3009 27.8634 22.5625 26.3125 22.5625H5.6875C4.13663 22.5625 2.875 21.3009 2.875 19.75V3.8125H0.9375C0.419312 3.8125 0 4.23181 0 4.75V25.375C0 25.8932 0.419312 26.3125 0.9375 26.3125Z" fill="black"/>
<path d="M21.7635 14.5353L19.3574 13.7324L20.1594 16.1394L21.7635 14.5353Z" fill="black"/>
<path d="M27.25 0.9375C27.25 0.419312 26.8307 0 26.3125 0H5.6875C5.16931 0 4.75 0.419312 4.75 0.9375V7.5625H27.25V0.9375ZM8.5 4.75C7.98225 4.75 7.5625 4.33025 7.5625 3.8125C7.5625 3.29463 7.98225 2.875 8.5 2.875C9.01775 2.875 9.4375 3.29463 9.4375 3.8125C9.4375 4.33025 9.01775 4.75 8.5 4.75ZM12.25 4.75C11.7323 4.75 11.3125 4.33025 11.3125 3.8125C11.3125 3.29463 11.7323 2.875 12.25 2.875C12.7677 2.875 13.1875 3.29463 13.1875 3.8125C13.1875 4.33025 12.7677 4.75 12.25 4.75ZM16 4.75C15.4823 4.75 15.0625 4.33025 15.0625 3.8125C15.0625 3.29463 15.4823 2.875 16 2.875C16.5177 2.875 16.9375 3.29463 16.9375 3.8125C16.9375 4.33025 16.5177 4.75 16 4.75Z" fill="black"/>
<path d="M4.75 19.75C4.75 20.2682 5.16931 20.6875 5.6875 20.6875H26.3125C26.8307 20.6875 27.25 20.2682 27.25 19.75V9.4375H4.75V19.75ZM17.2122 11.5872C17.4649 11.3382 17.8366 11.2475 18.1717 11.3611L23.7967 13.2361C24.1043 13.3386 24.3387 13.5931 24.4119 13.9099C24.487 14.2257 24.3936 14.5581 24.1629 14.7879L22.9507 16L24.1629 17.2122C24.5291 17.5784 24.5291 18.1717 24.1629 18.5379C23.7967 18.9041 23.2034 18.9041 22.8372 18.5379L21.625 17.3257L20.4128 18.5379C20.1868 18.7639 19.8576 18.8624 19.5339 18.7878C19.219 18.7128 18.9626 18.4802 18.8601 18.1717L16.9851 12.5467C16.8734 12.2097 16.9613 11.838 17.2122 11.5872ZM8.5 11.3125H14.125C14.6432 11.3125 15.0625 11.7318 15.0625 12.25C15.0625 12.7682 14.6432 13.1875 14.125 13.1875H8.5C7.98181 13.1875 7.5625 12.7682 7.5625 12.25C7.5625 11.7318 7.98181 11.3125 8.5 11.3125ZM8.5 15.0625H14.125C14.6432 15.0625 15.0625 15.4818 15.0625 16C15.0625 16.5182 14.6432 16.9375 14.125 16.9375H8.5C7.98181 16.9375 7.5625 16.5182 7.5625 16C7.5625 15.4818 7.98181 15.0625 8.5 15.0625Z" fill="black"/>
</g>
<defs>
<clipPath id="clip0_857_324">
<rect width="32" height="32" fill="white"/>
</clipPath>
</defs>
</svg>
