<svg width="36" height="36" viewBox="0 0 36 36" fill="none" xmlns="http://www.w3.org/2000/svg">
<path d="M6.32812 15.5391C4.00191 15.5391 2.10938 13.6465 2.10938 11.3203C2.10938 8.99409 4.00191 7.10156 6.32812 7.10156C8.65434 7.10156 10.5469 8.99409 10.5469 11.3203C10.5469 13.6465 8.65434 15.5391 6.32812 15.5391Z" fill="#1B2431"/>
<path d="M21.0938 12.7266C18.7675 12.7266 16.875 10.834 16.875 8.50781C16.875 6.18159 18.7675 4.28906 21.0938 4.28906C23.42 4.28906 25.3125 6.18159 25.3125 8.50781C25.3125 10.834 23.42 12.7266 21.0938 12.7266Z" fill="#1B2431"/>
<path d="M34.9453 11.3203H30.7266C30.1441 11.3203 29.6719 11.7925 29.6719 12.375C29.6719 12.9575 30.1441 13.4297 30.7266 13.4297H32.3991L21.5859 24.2428L18.816 21.4729C18.4042 21.0611 17.7364 21.0611 17.3245 21.4729L9.19596 29.6016H1.05469C0.472219 29.6016 0 30.0738 0 30.6562C0 31.2387 0.472219 31.7109 1.05469 31.7109H9.63281C9.91259 31.7109 10.1808 31.5998 10.3785 31.402L18.0703 23.7103L20.8402 26.4802C21.252 26.892 21.9199 26.892 22.3317 26.4802L33.8906 14.9212V16.5938C33.8906 17.1762 34.3628 17.6484 34.9453 17.6484C35.5278 17.6484 36 17.1762 36 16.5938V12.375C36 11.7925 35.5278 11.3203 34.9453 11.3203Z" fill="#1B2431"/>
<path d="M24.59 13.7797C23.5876 14.4466 22.3854 14.836 21.0938 14.836C19.8022 14.836 18.5999 14.4467 17.5975 13.7797C15.8909 14.9132 14.7656 16.8524 14.7656 19.0547V21.0488L15.833 19.9814C16.4306 19.3838 17.2252 19.0547 18.0703 19.0547C18.9154 19.0547 19.71 19.3838 20.3076 19.9814L21.5859 21.2597L26.7096 16.136C26.2131 15.1825 25.4807 14.3714 24.59 13.7797Z" fill="#1B2431"/>
<path d="M2.83191 16.5922C1.12528 17.7257 0 19.6649 0 21.8672V27.4922H8.32219L12.6562 23.1582V21.8672C12.6562 19.6649 11.531 17.7257 9.82434 16.5922C8.82197 17.2592 7.6197 17.6485 6.32812 17.6485C5.03655 17.6485 3.83428 17.2592 2.83191 16.5922Z" fill="#1B2431"/>
</svg>
