<svg width="24" height="25" viewBox="0 0 24 25" fill="none" xmlns="http://www.w3.org/2000/svg">
<path d="M14 12.3813C14 13.4859 13.1045 14.3813 12 14.3813C10.8955 14.3813 10 13.4859 10 12.3813C10 11.2768 10.8955 10.3813 12 10.3813C13.1045 10.3813 14 11.2768 14 12.3813Z" fill="#182E46"/>
<path d="M15.3529 6.38135H8.64706C7.18739 6.38135 6 7.56873 6 9.02841V15.7343C6 17.194 7.18739 18.3813 8.64706 18.3813H15.3529C16.8126 18.3813 18 17.194 18 15.7343V9.02841C18 7.56873 16.8126 6.38135 15.3529 6.38135ZM12 15.6902C10.1755 15.6902 8.69118 14.2059 8.69118 12.3813C8.69118 10.5568 10.1755 9.07252 12 9.07252C13.8245 9.07252 15.3088 10.5568 15.3088 12.3813C15.3088 14.2059 13.8245 15.6902 12 15.6902ZM15.7941 9.24899C15.4286 9.24899 15.1324 8.95275 15.1324 8.58723C15.1324 8.22171 15.4286 7.92547 15.7941 7.92547C16.1596 7.92547 16.4559 8.22171 16.4559 8.58723C16.4559 8.95275 16.1596 9.24899 15.7941 9.24899Z" fill="#182E46"/>
<path d="M17.1992 1.38135H6.80078C3.60229 1.38135 1 3.98364 1 7.18213V17.5806C1 20.7791 3.60229 23.3813 6.80078 23.3813H17.1992C20.3977 23.3813 23 20.7791 23 17.5806V7.18213C23 3.98364 20.3977 1.38135 17.1992 1.38135ZM19.1328 15.647C19.1328 17.7793 17.3979 19.5142 15.2656 19.5142H8.73438C6.60205 19.5142 4.86719 17.7793 4.86719 15.647V9.11572C4.86719 6.9834 6.60205 5.24854 8.73438 5.24854H15.2656C17.3979 5.24854 19.1328 6.9834 19.1328 9.11572V15.647Z" fill="#182E46"/>
</svg>
