<svg width="32" height="33" viewBox="0 0 32 33" fill="none" xmlns="http://www.w3.org/2000/svg">
<path fill-rule="evenodd" clip-rule="evenodd" d="M4.24854 21.9217H14.7942C15.6004 20.4353 16.7844 18.9965 17.9097 17.7381C17.5935 17.3657 17.4254 16.8945 17.4365 16.406C15.9572 15.1378 14.035 14.3713 11.9337 14.3713C7.82804 14.3713 4.40579 17.2957 3.63542 21.175C3.55817 21.5636 3.85229 21.9217 4.24854 21.9217ZM19.4287 17.4432H23.8575C24.4036 17.4432 24.8503 16.9964 24.8503 16.4505C24.8503 15.9044 24.4036 15.4578 23.8575 15.4578H19.4287C18.8827 15.4578 18.436 15.9044 18.436 16.4504C18.436 16.9965 18.8827 17.4432 19.4287 17.4432ZM27.5427 22.2715C26.8773 21.1031 25.88 19.8052 24.5511 18.3184C24.335 18.399 24.1012 18.4432 23.8575 18.4432H19.4287C19.185 18.4432 18.9513 18.399 18.7351 18.3184C17.4062 19.8051 16.4089 21.1031 15.7435 22.2715C13.209 26.7216 16.8145 31.2415 21.6431 31.1601C26.4717 31.2415 30.0772 26.7216 27.5427 22.2715ZM22.1242 27.4008V27.7009C22.1242 27.9771 21.9003 28.2009 21.6242 28.2009C21.348 28.2009 21.1242 27.977 21.1242 27.7009V27.3912C20.3027 27.2332 19.6248 26.7009 19.4166 25.8658C19.3508 25.5983 19.5143 25.3281 19.7819 25.2623C20.0494 25.1966 20.3196 25.3601 20.3854 25.6276C20.522 26.1754 21.0637 26.4279 21.5894 26.4429C21.6217 26.4407 21.651 26.4437 21.6827 26.4431C22.1234 26.4326 22.8619 26.2423 22.8489 25.6943C22.8486 25.6796 22.8462 25.6543 22.8418 25.6178C22.7693 25.0201 22.0427 24.8557 21.549 24.7746C20.588 24.6169 19.6357 24.1656 19.5821 23.0618C19.5357 22.1061 20.2354 21.4146 21.1242 21.2197V20.9028C21.1242 20.6266 21.3481 20.4028 21.6242 20.4028C21.9004 20.4028 22.1242 20.6266 22.1242 20.9028V21.2123C22.8302 21.3593 23.3864 21.8094 23.6665 22.4767C23.7733 22.7313 23.6535 23.0242 23.399 23.131C23.1444 23.2378 22.8515 23.118 22.7447 22.8634C22.5538 22.4089 22.1381 22.169 21.659 22.1608C21.5518 22.1681 21.4705 22.1655 21.3593 22.1879C20.945 22.2713 20.5556 22.5498 20.5782 23.0149C20.6046 23.5585 21.2729 23.7186 21.7092 23.7903C22.705 23.9538 23.6966 24.3679 23.8341 25.5006C23.8399 25.5485 23.8435 25.6055 23.8451 25.6709C23.869 26.6778 23.0265 27.25 22.1242 27.4008ZM22.1431 5.93482V8.11263C22.7794 7.04563 23.9447 6.33082 25.2772 6.33082C25.481 6.33082 25.6808 6.34782 25.8755 6.37995C25.7204 8.25113 24.1527 9.72151 22.2414 9.72151C22.2085 9.72151 22.1758 9.72107 22.1431 9.7202V11.2518C22.3903 11.3917 22.5765 11.6323 22.64 11.9234C22.6779 12.0966 22.7882 12.2285 22.9518 12.2963C23.1155 12.3641 23.2867 12.3488 23.4359 12.2531C23.8303 11.9999 24.3648 12.0456 24.709 12.3898C25.1058 12.7865 25.1058 13.4358 24.709 13.8326L24.0721 14.4695C24.0016 14.4619 23.93 14.4579 23.8575 14.4579H19.4287C19.3562 14.4579 19.2847 14.4619 19.2142 14.4695L18.5772 13.8326C18.1805 13.4358 18.1805 12.7866 18.5772 12.3899C18.9147 12.0524 19.4489 11.9954 19.8504 12.2531C19.9996 12.3488 20.1709 12.3641 20.3345 12.2964C20.4982 12.2286 20.6085 12.0967 20.6463 11.9235C20.709 11.6361 20.8939 11.393 21.1432 11.2518V9.72032C21.1105 9.7212 21.0777 9.72163 21.0449 9.72163C19.1336 9.72163 17.566 8.25132 17.4108 6.38007C17.6055 6.34795 17.8053 6.33095 18.009 6.33095C19.3416 6.33095 20.5069 7.04582 21.1432 8.11276V5.97463C20.2062 4.70913 20.1675 2.9302 21.164 1.6092C21.2868 1.44651 21.4207 1.29726 21.5635 1.16113C22.9216 2.3742 23.1786 4.42057 22.1431 5.93482ZM11.9337 5.19057C14.2962 5.19057 16.2115 7.10582 16.2115 9.46838C16.2115 11.8309 14.2962 13.7462 11.9337 13.7462C9.57111 13.7462 7.65586 11.8309 7.65586 9.46838C7.65586 7.10582 9.57111 5.19057 11.9337 5.19057Z" fill="#1B2431"/>
</svg>
