<svg width="32" height="32" viewBox="0 0 32 32" fill="none" xmlns="http://www.w3.org/2000/svg">
<g clip-path="url(#clip0_857_335)">
<path d="M19.375 0.0947266V3.75041H23.0307C22.6569 1.91641 21.209 0.468539 19.375 0.0947266Z" fill="black"/>
<path d="M20.0631 27.0369C19.6949 27.2068 19.2926 27.2958 18.8858 27.2958C17.8831 27.2958 16.9492 26.757 16.4484 25.8897L15.0422 23.4541C14.3099 22.1858 14.6811 20.5781 15.8559 19.75C14.6811 18.9219 14.31 17.3142 15.0423 16.0459L16.4486 13.6103C16.9492 12.743 17.8831 12.2042 18.8857 12.2042C19.2925 12.2042 19.6948 12.2931 20.0632 12.4631C20.1927 11.0316 21.3995 9.90625 22.8641 9.90625H23.125V5.625H18.4375C17.9198 5.625 17.5 5.20525 17.5 4.6875V0H0.9375C0.41975 0 0 0.41975 0 0.9375V31.0625C0 31.5802 0.41975 32 0.9375 32H22.1875C22.7052 32 23.125 31.5802 23.125 31.0625V29.5938H22.8641C21.3994 29.5938 20.1926 28.4685 20.0631 27.0369ZM4.0625 7.5625H19.0625C19.5802 7.5625 20 7.98225 20 8.5C20 9.01775 19.5802 9.4375 19.0625 9.4375H4.0625C3.54475 9.4375 3.125 9.01775 3.125 8.5C3.125 7.98225 3.54475 7.5625 4.0625 7.5625ZM4.0625 11.3125H14.0625C14.5802 11.3125 15 11.7323 15 12.25C15 12.7677 14.5802 13.1875 14.0625 13.1875H4.0625C3.54475 13.1875 3.125 12.7677 3.125 12.25C3.125 11.7323 3.54475 11.3125 4.0625 11.3125ZM4.0625 15.0625H12.1875C12.7052 15.0625 13.125 15.4823 13.125 16C13.125 16.5177 12.7052 16.9375 12.1875 16.9375H4.0625C3.54475 16.9375 3.125 16.5177 3.125 16C3.125 15.4823 3.54475 15.0625 4.0625 15.0625ZM4.0625 18.8125H12.1875C12.7052 18.8125 13.125 19.2323 13.125 19.75C13.125 20.2677 12.7052 20.6875 12.1875 20.6875H4.0625C3.54475 20.6875 3.125 20.2677 3.125 19.75C3.125 19.2323 3.54475 18.8125 4.0625 18.8125ZM4.0625 22.5625H12.1875C12.7052 22.5625 13.125 22.9823 13.125 23.5C13.125 24.0177 12.7052 24.4375 12.1875 24.4375H4.0625C3.54475 24.4375 3.125 24.0177 3.125 23.5C3.125 22.9823 3.54475 22.5625 4.0625 22.5625ZM14.0625 28.1875H4.0625C3.54475 28.1875 3.125 27.7677 3.125 27.25C3.125 26.7323 3.54475 26.3125 4.0625 26.3125H14.0625C14.5802 26.3125 15 26.7323 15 27.25C15 27.7677 14.5802 28.1875 14.0625 28.1875Z" fill="black"/>
<path d="M31.5318 21.2359L30.6064 20.7016C30.6532 20.3874 30.6769 20.0685 30.6769 19.75C30.6769 19.4315 30.6532 19.1126 30.6064 18.7984L31.5318 18.2641C31.9795 18.0056 32.1334 17.4311 31.8749 16.9834L30.4686 14.5478C30.2101 14.1001 29.6356 13.9462 29.188 14.2046L28.2566 14.7423C27.756 14.3423 27.2059 14.0236 26.6145 13.791V12.7188C26.6145 12.2018 26.1939 11.7812 25.677 11.7812H22.8645C22.3475 11.7812 21.927 12.2018 21.927 12.7188V13.7911C21.3355 14.0237 20.7853 14.3424 20.2847 14.7424L19.3533 14.2046C18.9055 13.9461 18.3312 14.1001 18.0727 14.5478L16.6665 16.9835C16.408 17.4312 16.5619 18.0056 17.0096 18.2642L17.935 18.7984C17.8881 19.1126 17.8645 19.4314 17.8645 19.7501C17.8645 20.0687 17.8881 20.3875 17.935 20.7017L17.0095 21.2359C16.5619 21.4944 16.408 22.0689 16.6665 22.5166L18.0727 24.9523C18.3312 25.4001 18.9058 25.5539 19.3533 25.2955L20.2847 24.7577C20.7854 25.1577 21.3355 25.4764 21.927 25.7091V26.7812C21.927 27.2982 22.3475 27.7188 22.8645 27.7188H25.677C26.1939 27.7188 26.6145 27.2982 26.6145 26.7812V25.7089C27.2059 25.4763 27.7561 25.1576 28.2566 24.7576L29.188 25.2954C29.6356 25.5538 30.2101 25.3999 30.4686 24.9522L31.8749 22.5165C32.1334 22.0689 31.9795 21.4944 31.5318 21.2359ZM24.2706 22.4062C22.806 22.4062 21.6144 21.2147 21.6144 19.75C21.6144 18.2853 22.806 17.0938 24.2706 17.0938C25.7353 17.0938 26.9269 18.2853 26.9269 19.75C26.9269 21.2147 25.7353 22.4062 24.2706 22.4062Z" fill="black"/>
</g>
<defs>
<clipPath id="clip0_857_335">
<rect width="32" height="32" fill="white"/>
</clipPath>
</defs>
</svg>
