<svg width="24" height="24" viewBox="0 0 24 24" fill="none" xmlns="http://www.w3.org/2000/svg">
<g clip-path="url(#clip0_857_143)">
<path d="M22.3518 14.3978L20.9485 12.9946L18.9598 14.9833L20.3631 16.3865C21.4595 17.4831 21.4595 19.2676 20.3631 20.3641C19.2667 21.4605 17.4821 21.4605 16.3855 20.3641L9.01605 12.9946L7.02734 14.9833L14.3968 22.3528C16.5933 24.5493 20.1553 24.5493 22.3518 22.3528C24.5483 20.1562 24.5483 16.5943 22.3518 14.3978Z" fill="#FF7A00"/>
<path d="M7.61371 20.3641C6.51709 21.4605 4.73254 21.4605 3.63611 20.3641C2.53967 19.2676 2.53967 17.4831 3.63611 16.3865L11.0056 9.01703L9.01685 7.02832L1.6474 14.3978C-0.549133 16.5943 -0.549133 20.1562 1.6474 22.3528C3.84393 24.5493 7.40588 24.5493 9.60242 22.3528L11.0056 20.9495L9.01685 18.9608L7.61371 20.3641Z" fill="#FF7A00"/>
<path d="M16.386 3.63611C17.4826 2.53967 19.2672 2.53967 20.3636 3.63611C21.46 4.73254 21.46 6.51709 20.3636 7.61371L12.9941 14.9832L14.9828 16.9719L22.3523 9.60242C24.5488 7.40588 24.5488 3.84393 22.3523 1.6474C20.1558 -0.549133 16.5938 -0.549133 14.3973 1.6474L12.9941 3.05072L14.9828 5.03943L16.386 3.63611Z" fill="#FF7A00"/>
<path d="M3.05072 11.0056L5.03943 9.01685L3.63611 7.61371C2.53967 6.51709 2.53967 4.73254 3.63611 3.63611C4.73254 2.53967 6.51709 2.53967 7.61371 3.63611L15.2743 11.2967L17.263 9.30798L9.60242 1.6474C7.40588 -0.549133 3.84393 -0.549133 1.6474 1.6474C-0.549133 3.84393 -0.549133 7.40588 1.6474 9.60242L3.05072 11.0056Z" fill="#FF7A00"/>
</g>
<defs>
<clipPath id="clip0_857_143">
<rect width="24" height="24" fill="white"/>
</clipPath>
</defs>
</svg>
