<svg width="16" height="16" viewBox="0 0 16 16" fill="none" xmlns="http://www.w3.org/2000/svg">
<path d="M10.667 5.33337C11.7279 5.33337 12.7453 5.7548 13.4954 6.50495C14.2456 7.25509 14.667 8.27251 14.667 9.33337V14H12.0003V9.33337C12.0003 8.97975 11.8598 8.64061 11.6098 8.39057C11.3598 8.14052 11.0206 8.00004 10.667 8.00004C10.3134 8.00004 9.97423 8.14052 9.72418 8.39057C9.47413 8.64061 9.33366 8.97975 9.33366 9.33337V14H6.66699V9.33337C6.66699 8.27251 7.08842 7.25509 7.83857 6.50495C8.58871 5.7548 9.60613 5.33337 10.667 5.33337Z" fill="#1B2431"/>
<path d="M3.99967 6H1.33301V14H3.99967V6Z" fill="#1B2431"/>
<path d="M2.66634 4.00004C3.40272 4.00004 3.99967 3.40309 3.99967 2.66671C3.99967 1.93033 3.40272 1.33337 2.66634 1.33337C1.92996 1.33337 1.33301 1.93033 1.33301 2.66671C1.33301 3.40309 1.92996 4.00004 2.66634 4.00004Z" fill="#1B2431"/>
</svg>
