<svg width="32" height="32" viewBox="0 0 32 32" fill="none" xmlns="http://www.w3.org/2000/svg">
<g clip-path="url(#clip0_857_356)">
<path d="M20 17.3333C19.2627 17.3333 18.6667 17.9307 18.6667 18.6667V24C18.6667 24.7347 18.0693 25.3333 17.3333 25.3333H13.3333V5.33333C13.3333 4.19467 12.608 3.17733 11.5173 2.79867L11.1227 2.66667H17.3333C18.0693 2.66667 18.6667 3.26533 18.6667 4V8C18.6667 8.736 19.2627 9.33333 20 9.33333C20.7373 9.33333 21.3333 8.736 21.3333 8V4C21.3333 1.79467 19.5387 0 17.3333 0H3C2.94933 0 2.90667 0.0226667 2.85733 0.0293333C2.79333 0.024 2.732 0 2.66667 0C1.196 0 0 1.196 0 2.66667V26.6667C0 27.8053 0.725333 28.8227 1.816 29.2013L9.84 31.876C10.112 31.96 10.3827 32 10.6667 32C12.1373 32 13.3333 30.804 13.3333 29.3333V28H17.3333C19.5387 28 21.3333 26.2053 21.3333 24V18.6667C21.3333 17.9307 20.7373 17.3333 20 17.3333Z" fill="black"/>
<path d="M31.61 12.3903L26.2767 7.05693C25.8953 6.6756 25.322 6.56093 24.8233 6.7676C24.326 6.97427 24.0007 7.46093 24.0007 7.9996V11.9996H18.6673C17.9313 11.9996 17.334 12.5969 17.334 13.3329C17.334 14.0689 17.9313 14.6663 18.6673 14.6663H24.0007V18.6663C24.0007 19.2049 24.326 19.6916 24.8233 19.8983C25.322 20.1049 25.8953 19.9903 26.2767 19.6089L31.61 14.2756C32.1313 13.7543 32.1313 12.9116 31.61 12.3903Z" fill="black"/>
</g>
<defs>
<clipPath id="clip0_857_356">
<rect width="32" height="32" fill="white"/>
</clipPath>
</defs>
</svg>
