<svg width="24" height="24" viewBox="0 0 24 24" fill="none" xmlns="http://www.w3.org/2000/svg">
<g clip-path="url(#clip0_857_151)">
<path d="M10.3639 23.9937C4.94201 23.3159 0.682773 19.0566 0.00565545 13.6361C-0.047415 13.2173 0.279775 12.8457 0.703401 12.8457H3.54586C3.88922 12.8457 4.18177 13.0936 4.23948 13.4315C4.78612 16.6688 7.32915 19.2126 10.5686 19.7599C10.9064 19.8175 11.1543 20.1101 11.1543 20.4535V23.2959C11.1543 23.7142 10.7917 24.0446 10.3639 23.9937Z" fill="#FF7A00"/>
<path d="M3.54585 11.2517H0.703396C0.279535 11.2517 -0.0473735 10.8798 0.00565012 10.4613C0.75009 4.49749 5.84579 0 11.8576 0C14.5284 0 17.0604 0.870787 19.1804 2.51832C19.5175 2.78137 19.5428 3.27462 19.2463 3.5711L17.2369 5.58121C16.9937 5.825 16.6119 5.85524 16.3317 5.65674C15.0125 4.71657 13.4652 4.21938 11.8575 4.21938C8.07424 4.21938 4.86985 6.93067 4.23943 10.6659C4.18176 11.0037 3.88922 11.2517 3.54585 11.2517Z" fill="#FF7A00"/>
<path d="M12.748 23.2966V20.4542C12.748 20.1108 12.996 19.8183 13.3338 19.7606C17.0691 19.1301 19.7804 15.9257 19.7804 12.1425C19.7804 10.5348 19.2832 8.98753 18.343 7.66827C18.1438 7.38876 18.1754 7.00555 18.4185 6.76312L20.4286 4.75371C20.7213 4.46103 21.2161 4.47959 21.4814 4.81963C23.129 6.93963 23.9997 9.47168 23.9997 12.1424C23.9997 18.1542 19.5022 23.2499 13.5385 23.9943C13.106 24.0459 12.748 23.71 12.748 23.2966Z" fill="#FF7A00"/>
<path d="M9.18597 9.18907C9.18597 8.8007 8.87111 8.48584 8.48274 8.48584H7.07628C6.68791 8.48584 6.37305 8.8007 6.37305 9.18907V14.8149C6.37305 15.2033 6.68791 15.5181 7.07628 15.5181H8.48274C8.87111 15.5181 9.18597 15.2033 9.18597 14.8149V9.18907Z" fill="#FF7A00"/>
<path d="M13.4047 14.8146V7.78233C13.4047 7.39396 13.0899 7.0791 12.7015 7.0791H11.295C10.9067 7.0791 10.5918 7.39396 10.5918 7.78233V14.8146C10.5918 15.203 10.9067 15.5179 11.295 15.5179H12.7015C13.0899 15.5179 13.4047 15.203 13.4047 14.8146Z" fill="#FF7A00"/>
<path d="M17.6235 14.8145V12.0016C17.6235 11.6132 17.3086 11.2983 16.9202 11.2983H15.5138C15.1254 11.2983 14.8105 11.6132 14.8105 12.0016V14.8145C14.8105 15.2029 15.1254 15.5177 15.5138 15.5177H16.9202C17.3087 15.5177 17.6235 15.2029 17.6235 14.8145Z" fill="#FF7A00"/>
</g>
<defs>
<clipPath id="clip0_857_151">
<rect width="24" height="24" fill="white"/>
</clipPath>
</defs>
</svg>
