<svg width="16" height="16" viewBox="0 0 16 16" fill="none" xmlns="http://www.w3.org/2000/svg">
<g clip-path="url(#clip0_229_364)">
<path fill-rule="evenodd" clip-rule="evenodd" d="M4.77966 5.00316C4.11516 5.73484 3.69675 6.69403 3.65462 7.75003H2.16025C2.04994 7.33472 1.67144 7.02863 1.22137 7.02863C0.684906 7.02859 0.25 7.4635 0.25 8C0.25 8.5365 0.684906 8.97141 1.22141 8.97141C1.67147 8.97141 2.04997 8.66531 2.16028 8.25H3.66278C3.73416 9.22009 4.12378 10.1016 4.72756 10.7909L3.15003 12.3402C2.88028 12.139 2.54569 12.0199 2.18331 12.0199C1.28916 12.0199 0.564281 12.7448 0.564281 13.6389C0.564281 14.5331 1.28916 15.258 2.18331 15.258C3.07747 15.258 3.80234 14.5331 3.80234 13.6389C3.80234 13.2871 3.69003 12.9614 3.49938 12.6959L5.07678 11.1467C5.79141 11.7958 6.72309 12.2101 7.75003 12.2683V13.8397C7.33469 13.95 7.02863 14.3285 7.02863 14.7786C7.02859 15.3151 7.4635 15.75 8 15.75C8.5365 15.75 8.97141 15.3151 8.97141 14.7786C8.97141 14.3286 8.66534 13.95 8.25 13.8397V12.2683C9.24903 12.2116 10.1578 11.8179 10.8645 11.1988L12.4137 12.7764C12.2126 13.0462 12.0936 13.3807 12.0936 13.7431C12.0936 14.6372 12.8184 15.3621 13.7126 15.3621C14.6067 15.3621 15.3316 14.6372 15.3316 13.7431C15.3316 12.8489 14.6068 12.1241 13.7126 12.1241C13.3607 12.1241 13.0351 12.2364 12.7695 12.4271L11.2203 10.8497C11.8539 10.1522 12.2638 9.24784 12.3372 8.25003H13.8397C13.95 8.66534 14.3285 8.97144 14.7786 8.97144C15.3151 8.97141 15.75 8.5365 15.75 8C15.75 7.4635 15.3151 7.02859 14.7786 7.02859C14.3285 7.02859 13.95 7.33469 13.8397 7.75H12.3454C12.3043 6.722 11.9067 5.78584 11.2725 5.06187L12.85 3.51259C13.1197 3.71375 13.4543 3.83281 13.8167 3.83281C14.7108 3.83281 15.4357 3.10794 15.4357 2.21381C15.4357 1.31966 14.7108 0.594781 13.8167 0.594781C12.9225 0.594781 12.1977 1.31963 12.1977 2.21381C12.1977 2.56569 12.31 2.89131 12.5006 3.15687L10.9232 4.70603C10.2086 4.05691 9.27691 3.64266 8.24997 3.58444V2.16028C8.66528 2.04997 8.97138 1.67147 8.97138 1.22141C8.97141 0.684906 8.5365 0.25 8 0.25C7.4635 0.25 7.02859 0.684906 7.02859 1.22141C7.02859 1.67147 7.33469 2.04997 7.75 2.16028V3.58447C6.75094 3.64113 5.84206 4.03484 5.1355 4.65391L3.58622 3.07641C3.78737 2.80662 3.90644 2.47206 3.90644 2.10969C3.90644 1.21553 3.18156 0.490656 2.28744 0.490656C1.39328 0.490656 0.668406 1.21553 0.668406 2.10969C0.668406 3.00384 1.39325 3.72872 2.28744 3.72872C2.63931 3.72872 2.96494 3.61641 3.2305 3.42575L4.77966 5.00316ZM5.69197 6.65372H6.702V8.57616L5.69197 8.57619C5.16328 8.57619 4.73072 8.14362 4.73072 7.61494C4.73072 7.08628 5.16328 6.65372 5.69197 6.65372ZM7.202 6.51272C7.87522 6.27516 8.50988 5.87309 9.06494 5.56097C9.15784 5.50875 9.26338 5.50962 9.35538 5.56344C9.44738 5.61725 9.49988 5.70878 9.49988 5.81537V7.05963L9.52763 7.05953C9.84131 7.05953 10.0956 7.31381 10.0956 7.62753C10.0956 7.94122 9.84131 8.19553 9.52763 8.19553L9.49988 8.19544V9.37678C9.49988 9.48606 9.44447 9.57981 9.34872 9.6325C9.25297 9.68519 9.14412 9.68181 9.05181 9.62334C8.48053 9.26144 7.87831 8.89906 7.202 8.69422V6.51272ZM10.3055 6.83491C10.2079 6.73728 10.2079 6.579 10.3055 6.48138L10.5889 6.19797C10.6866 6.10034 10.8448 6.10034 10.9425 6.19797C11.0401 6.29559 11.0401 6.45388 10.9425 6.5515L10.6591 6.83491C10.5614 6.9325 10.4032 6.9325 10.3055 6.83491ZM10.2611 8.75528C10.1634 8.65766 10.1634 8.49937 10.2611 8.40175C10.3587 8.30412 10.517 8.30412 10.6146 8.40175L10.898 8.68516C10.9956 8.78278 10.9956 8.94106 10.898 9.03869C10.8004 9.13631 10.6421 9.13631 10.5445 9.03869L10.2611 8.75528ZM10.8685 7.87753C10.7304 7.87753 10.6185 7.76559 10.6185 7.62753C10.6185 7.48947 10.7304 7.37753 10.8685 7.37753H11.2693C11.4073 7.37753 11.5193 7.48947 11.5193 7.62753C11.5193 7.76559 11.4073 7.87753 11.2693 7.87753H10.8685ZM6.702 9.08434V10.3303H6.51709C6.22616 10.3303 5.98887 10.093 5.98887 9.80212V9.07619H6.65875C6.67322 9.07881 6.68762 9.08153 6.702 9.08434Z" fill="#1B2431"/>
</g>
<defs>
<clipPath id="clip0_229_364">
<rect width="16" height="16" fill="white"/>
</clipPath>
</defs>
</svg>
