<svg width="32" height="32" viewBox="0 0 32 32" fill="none" xmlns="http://www.w3.org/2000/svg">
<g clip-path="url(#clip0_229_644)">
<path d="M15.7911 15.6209C15.8571 15.6219 15.9229 15.6236 15.9892 15.6236C15.9929 15.6236 15.9966 15.6238 16.0004 15.6238C16.0041 15.6238 16.0078 15.6236 16.0115 15.6236C16.0778 15.6236 16.1436 15.6218 16.2096 15.6209C20.4207 15.5096 23.8122 12.0494 23.8122 7.81188C23.8122 3.5745 20.421 0.114438 16.21 0.002875C16.1402 0.001875 16.0705 0 16.0004 0C15.9302 0 15.8605 0.001875 15.7906 0.002875C11.5797 0.114438 8.18848 3.5745 8.18848 7.81188C8.18848 12.0494 11.5799 15.5096 15.7911 15.6209ZM16.0004 4.88269C17.6155 4.88269 18.9295 6.19669 18.9295 7.81188C18.9295 9.42706 17.6155 10.7411 16.0004 10.7411C14.3852 10.7411 13.0712 9.42706 13.0712 7.81188C13.0712 6.19669 14.3852 4.88269 16.0004 4.88269Z" fill="#1B2431"/>
<path d="M16.0005 8.86594C16.5827 8.86594 17.0547 8.39397 17.0547 7.81176C17.0547 7.22954 16.5827 6.75757 16.0005 6.75757C15.4183 6.75757 14.9463 7.22954 14.9463 7.81176C14.9463 8.39397 15.4183 8.86594 16.0005 8.86594Z" fill="#1B2431"/>
<path d="M8.36975 13.7731C7.08181 12.1282 6.31313 10.0582 6.31313 7.81195C6.31313 5.56571 7.08181 3.49571 8.36975 1.85083C3.52563 4.16083 0 7.81189 0 7.81189C0 7.81189 3.52569 11.463 8.36975 13.7731Z" fill="#1B2431"/>
<path d="M23.6299 13.7731C28.4739 11.4631 31.9996 7.81195 31.9996 7.81195C31.9996 7.81195 28.474 4.16083 23.6299 1.85083C24.9178 3.49571 25.6865 5.56571 25.6865 7.81195C25.6865 10.0582 24.9178 12.1283 23.6299 13.7731Z" fill="#1B2431"/>
<path d="M31.0347 18.4154L29.6202 19.8299L24.9859 15.1956C24.2779 15.5549 23.5669 15.8743 22.856 16.1508C22.2198 16.3982 21.5831 16.6106 20.9473 16.7903L26.8035 22.6466L25.389 24.0611L25.4192 24.0912L31.8446 24.9602L31.9339 24.8709L31.065 18.4455L31.0347 18.4154Z" fill="#1B2431"/>
<path d="M17.9916 17.3811C17.3239 17.4588 16.6594 17.4989 15.9999 17.4989C15.3405 17.4989 14.676 17.4588 14.0082 17.3811V26.7996H12.0078V26.8423L15.9368 32.0001H16.0631L19.9921 26.8422V26.7995H17.9917V17.3811H17.9916Z" fill="#1B2431"/>
<path d="M9.14434 16.1508C8.43341 15.8743 7.72241 15.5549 7.01441 15.1956L2.38003 19.8299L0.965531 18.4154L0.935344 18.4456L0.0664062 24.8709L0.155719 24.9602L6.58109 24.0913L6.61128 24.0611L5.19678 22.6466L11.053 16.7904C10.4172 16.6106 9.78053 16.3982 9.14434 16.1508Z" fill="#1B2431"/>
</g>
<defs>
<clipPath id="clip0_229_644">
<rect width="32" height="32" fill="white"/>
</clipPath>
</defs>
</svg>
