<svg width="32" height="32" viewBox="0 0 32 32" fill="none" xmlns="http://www.w3.org/2000/svg">
<g clip-path="url(#clip0_229_658)">
<path d="M25.4374 18.8748C24.8976 18.8748 24.3729 18.9408 23.8706 19.0643L12.9356 8.12931C13.0591 7.627 13.1251 7.10237 13.1251 6.56256C13.1251 2.944 10.1811 0 6.56256 0C5.77112 0 4.99594 0.140625 4.25844 0.417937C3.96019 0.530062 3.73937 0.786 3.67206 1.09737C3.60475 1.40875 3.70025 1.73306 3.9255 1.95831L5.81219 3.84494L5.55075 5.55056L3.84506 5.81194L1.95844 3.92531C1.73319 3.70006 1.40875 3.60475 1.0975 3.67187C0.786062 3.73912 0.530125 3.96 0.418 4.25819C0.140625 4.99569 0 5.771 0 6.56256C0 10.1811 2.94394 13.1251 6.5625 13.1251C7.10244 13.1251 7.62712 13.0591 8.12944 12.9356L19.0644 23.8704C18.9409 24.3727 18.8749 24.8975 18.8749 25.4373C18.8749 29.0559 21.8189 31.9998 25.4374 31.9998C26.2289 31.9998 27.0042 31.8592 27.7417 31.5818C28.0399 31.4697 28.2607 31.2137 28.328 30.9024C28.3953 30.5909 28.2999 30.2666 28.0746 30.0414L26.1878 28.1548L26.4492 26.4492L28.1549 26.1879L30.0416 28.0745C30.2668 28.2997 30.591 28.3953 30.9025 28.3279C31.2139 28.2607 31.4698 28.0398 31.5819 27.7416C31.8593 27.0041 31.9999 26.2289 31.9999 25.4374C31.9999 21.8187 29.0561 18.8748 25.4374 18.8748Z" fill="#1B2431"/>
<path d="M29.0737 7.73261L31.7257 5.08061C31.9015 4.9048 32.0003 4.66636 32.0003 4.41773C32.0003 4.16905 31.9015 3.93061 31.7257 3.75486L28.2453 0.274547C27.8793 -0.0915156 27.2856 -0.0915156 26.9195 0.274547L24.2676 2.92648L29.0737 7.73261Z" fill="#1B2431"/>
<path d="M2.51947 25.0959L0.0783445 30.6873C-0.075968 31.0408 0.00190702 31.4526 0.274657 31.7253C0.454157 31.9048 0.693969 31.9999 0.937782 31.9999C1.06428 31.9999 1.19191 31.9743 1.31272 31.9216L6.90403 29.4804L2.51947 25.0959Z" fill="#1B2431"/>
<path d="M17.3232 9.86914L22.9381 4.25432L27.7435 9.05971L22.1286 14.6745L17.3232 9.86914Z" fill="#1B2431"/>
<path d="M3.63184 23.5579L9.86444 17.3253L14.6698 22.1306L8.43723 28.3633L3.63184 23.5579Z" fill="#1B2431"/>
</g>
<defs>
<clipPath id="clip0_229_658">
<rect width="32" height="32" fill="white"/>
</clipPath>
</defs>
</svg>
