<svg width="24" height="24" viewBox="0 0 24 24" fill="none" xmlns="http://www.w3.org/2000/svg">
<g clip-path="url(#clip0_857_119)">
<path d="M23.7019 20.1244L23.6592 20.0667C22.7798 19.0486 21.6994 18.3028 20.6545 17.5823C20.228 17.288 19.47 16.8136 18.9338 16.432C20.1782 14.6747 20.8449 12.5736 20.8411 10.4203C20.8411 4.66547 16.1756 0 10.4203 0C4.665 0 0 4.66547 0 10.4203C0 16.1752 4.66547 20.8411 10.4203 20.8411C12.5709 20.8443 14.6694 20.1791 16.4255 18.9375C16.8075 19.4733 17.2814 20.2298 17.5763 20.6564C18.2986 21.7031 19.0453 22.7812 20.0625 23.6597L20.1202 23.7019C20.4445 23.9002 20.8181 24.0035 21.1983 24C21.773 23.9982 22.3266 23.7835 22.7522 23.3972L23.3812 22.7695L23.3962 22.7541C24.0661 22.0209 24.1945 20.9152 23.7019 20.1244ZM10.4203 18.1223C8.63815 18.1225 6.91106 17.5048 5.53333 16.3743C4.15559 15.2438 3.21246 13.6706 2.86464 11.9227C2.51682 10.1749 2.78583 8.36043 3.62584 6.78865C4.46584 5.21687 5.82487 3.98499 7.47133 3.3029C9.1178 2.62082 10.9498 2.53074 12.6553 3.04802C14.3607 3.56529 15.834 4.65792 16.8242 6.13971C17.8143 7.6215 18.26 9.40078 18.0854 11.1744C17.9107 12.9479 17.1264 14.6061 15.8663 15.8663C15.1528 16.5837 14.3041 17.1525 13.3693 17.5398C12.4345 17.9271 11.4321 18.1251 10.4203 18.1223Z" fill="#FF7A00"/>
<path d="M10.4199 11.3818C12.1091 11.3818 13.4785 10.0125 13.4785 8.32324C13.4785 6.63403 12.1091 5.26465 10.4199 5.26465C8.73071 5.26465 7.36133 6.63403 7.36133 8.32324C7.36133 10.0125 8.73071 11.3818 10.4199 11.3818Z" fill="#FF7A00"/>
<path d="M15.4598 13.9036C15.4139 13.4746 15.2219 13.0744 14.916 12.7701C14.6089 12.4623 14.2062 12.2683 13.7741 12.2198C13.1418 12.1528 11.571 12.1162 10.5927 12.1162C9.61445 12.1162 7.6893 12.1528 7.05648 12.2198C6.62452 12.2683 6.22188 12.4622 5.91461 12.7696C5.60888 13.074 5.41707 13.4741 5.37133 13.9031V13.9162C5.35633 14.0615 5.34742 14.1876 5.3418 14.2954C5.51498 14.5219 5.70289 14.7368 5.9043 14.9386C7.10262 16.1367 8.72779 16.8098 10.4223 16.8098C12.1169 16.8098 13.7421 16.1367 14.9404 14.9386C15.1386 14.7399 15.3239 14.5287 15.4949 14.3062C15.4879 14.1961 15.4776 14.0667 15.4621 13.9167L15.4598 13.9036Z" fill="#FF7A00"/>
</g>
<defs>
<clipPath id="clip0_857_119">
<rect width="24" height="24" fill="white"/>
</clipPath>
</defs>
</svg>
