<svg width="36" height="36" viewBox="0 0 36 36" fill="none" xmlns="http://www.w3.org/2000/svg">
<g clip-path="url(#clip0_126_115)">
<path d="M24.84 7.12125C24.3813 6.95056 23.8815 6.92372 23.4071 7.04431C22.9328 7.16491 22.5065 7.42721 22.185 7.79625L21.195 8.92125L20.07 7.09875C19.8559 6.75462 19.5576 6.47073 19.2033 6.27389C18.849 6.07705 18.4503 5.97375 18.045 5.97375C17.6397 5.97375 17.2411 6.07705 16.8868 6.27389C16.5324 6.47073 16.2341 6.75462 16.02 7.09875L14.895 8.91001L13.86 7.78501C13.5465 7.3948 13.1187 7.11256 12.6366 6.9779C12.1546 6.84324 11.6424 6.86291 11.1721 7.03416C10.7018 7.20542 10.2969 7.51965 10.0143 7.93275C9.73163 8.34585 9.58546 8.83709 9.59626 9.33751V15.75C9.59626 16.7048 9.97555 17.6205 10.6507 18.2956C11.3258 18.9707 12.2415 19.35 13.1963 19.35H22.7925C23.7473 19.35 24.663 18.9707 25.3381 18.2956C26.0132 17.6205 26.3925 16.7048 26.3925 15.75V9.36C26.3901 8.8737 26.2405 8.39953 25.9634 7.9999C25.6863 7.60028 25.2946 7.29396 24.84 7.12125ZM23.9963 15.75C23.9963 16.0693 23.8694 16.3754 23.6437 16.6012C23.4179 16.8269 23.1118 16.9538 22.7925 16.9538H13.1963C12.879 16.9508 12.5757 16.8227 12.3523 16.5972C12.129 16.3718 12.0037 16.0673 12.0038 15.75V9.33751L13.0388 10.5188C13.2847 10.8006 13.5932 11.0209 13.9395 11.1621C14.2859 11.3033 14.6604 11.3614 15.0333 11.3319C15.4061 11.3024 15.7669 11.186 16.0867 10.9921C16.4065 10.7981 16.6765 10.532 16.875 10.215L18 8.40375L19.125 10.2263C19.3245 10.5425 19.5952 10.8077 19.9155 11.0006C20.2358 11.1935 20.5968 11.3087 20.9696 11.3372C21.3424 11.3656 21.7167 11.3064 22.0625 11.1643C22.4084 11.0222 22.7161 10.8011 22.9613 10.5188L23.9513 9.39376L23.9963 15.75Z" fill="black"/>
<path d="M18.0001 15.12C18.6649 15.12 19.2039 14.5811 19.2039 13.9163C19.2039 13.2515 18.6649 12.7125 18.0001 12.7125C17.3353 12.7125 16.7964 13.2515 16.7964 13.9163C16.7964 14.5811 17.3353 15.12 18.0001 15.12Z" fill="black"/>
<path d="M34.2448 6.55876C33.3884 5.69862 32.2891 5.12148 31.0948 4.90501C30.8419 3.52661 30.1133 2.28066 29.0361 1.38432C27.9588 0.487973 26.6012 -0.00192583 25.1998 5.68975e-06H10.7998C9.39837 -0.00192583 8.04073 0.487973 6.96347 1.38432C5.88621 2.28066 5.15765 3.52661 4.90477 4.90501C3.52637 5.15789 2.28042 5.88645 1.38408 6.96371C0.487733 8.04097 -0.00216578 9.39861 -0.000234263 10.8V34.7963C-0.0164449 34.9634 0.00247546 35.132 0.0553113 35.2913C0.108147 35.4507 0.19373 35.5972 0.306563 35.7215C0.419395 35.8458 0.556982 35.9452 0.710484 36.0131C0.863987 36.0811 1.03001 36.1162 1.19789 36.1162C1.36577 36.1162 1.53179 36.0811 1.6853 36.0131C1.8388 35.9452 1.97639 35.8458 2.08922 35.7215C2.20205 35.5972 2.28763 35.4507 2.34047 35.2913C2.39331 35.132 2.41223 34.9634 2.39602 34.7963V10.8C2.39306 10.0577 2.62256 9.33307 3.0523 8.7278C3.48205 8.12253 4.09048 7.66696 4.79227 7.42501V30.0038C4.79226 30.7921 4.94773 31.5728 5.24978 32.301C5.55182 33.0293 5.99451 33.6908 6.5525 34.2477C7.1105 34.8047 7.77285 35.2461 8.50165 35.5468C9.23044 35.8475 10.0114 36.0015 10.7998 36H25.1998C26.7901 36 28.3152 35.3683 29.4398 34.2437C30.5643 33.1192 31.196 31.5941 31.196 30.0038V7.41376C31.8978 7.65571 32.5062 8.11127 32.936 8.71655C33.3657 9.32182 33.5952 10.0464 33.5923 10.7888V34.7963C33.5761 34.9634 33.595 35.132 33.6478 35.2913C33.7006 35.4507 33.7862 35.5972 33.8991 35.7215C34.0119 35.8458 34.1495 35.9452 34.303 36.0131C34.4565 36.0811 34.6225 36.1162 34.7904 36.1162C34.9583 36.1162 35.1243 36.0811 35.2778 36.0131C35.4313 35.9452 35.5689 35.8458 35.6817 35.7215C35.7945 35.5972 35.8801 35.4507 35.933 35.2913C35.9858 35.132 36.0047 34.9634 35.9885 34.7963V10.8C35.9928 10.0129 35.8409 9.2327 35.5415 8.50468C35.2422 7.77666 34.8015 7.11525 34.2448 6.55876ZM28.7998 30.0038C28.7998 30.9585 28.4205 31.8742 27.7453 32.5493C27.0702 33.2245 26.1545 33.6038 25.1998 33.6038H10.7998C9.84499 33.6038 8.92931 33.2245 8.25418 32.5493C7.57905 31.8742 7.19977 30.9585 7.19977 30.0038V5.99626C7.19977 5.04148 7.57905 4.1258 8.25418 3.45067C8.92931 2.77554 9.84499 2.39626 10.7998 2.39626H25.1998C26.1545 2.39626 27.0702 2.77554 27.7453 3.45067C28.4205 4.1258 28.7998 5.04148 28.7998 5.99626V30.0038Z" fill="black"/>
<path d="M22.8039 22.8038H13.1964C12.8987 22.8327 12.6224 22.9714 12.4213 23.1929C12.2203 23.4144 12.1089 23.7028 12.1089 24.0019C12.1089 24.301 12.2203 24.5894 12.4213 24.8109C12.6224 25.0324 12.8987 25.1711 13.1964 25.2H22.7927C23.0904 25.1711 23.3667 25.0324 23.5677 24.8109C23.7688 24.5894 23.8802 24.301 23.8802 24.0019C23.8802 23.7028 23.7688 23.4144 23.5677 23.1929C23.3667 22.9714 23.0904 22.8327 22.7927 22.8038H22.8039Z" fill="black"/>
<path d="M21.6 27.5963H14.4C14.1023 27.6251 13.826 27.7638 13.6249 27.9853C13.4239 28.2068 13.3125 28.4952 13.3125 28.7944C13.3125 29.0935 13.4239 29.3819 13.6249 29.6034C13.826 29.8249 14.1023 29.9636 14.4 29.9925H21.6C21.8977 29.9636 22.1741 29.8249 22.3751 29.6034C22.5762 29.3819 22.6875 29.0935 22.6875 28.7944C22.6875 28.4952 22.5762 28.2068 22.3751 27.9853C22.1741 27.7638 21.8977 27.6251 21.6 27.5963Z" fill="black"/>
</g>
<defs>
<clipPath id="clip0_126_115">
<rect width="36" height="36" fill="white"/>
</clipPath>
</defs>
</svg>
