<svg width="36" height="36" viewBox="0 0 36 36" fill="none" xmlns="http://www.w3.org/2000/svg">
<g clip-path="url(#clip0_126_146)">
<path d="M30.0037 0H4.80375C3.52972 0 2.30786 0.506108 1.40699 1.40699C0.506108 2.30786 0 3.52972 0 4.80375L0 13.2075C0 14.1623 0.379285 15.078 1.05442 15.7531C1.72955 16.4282 2.64522 16.8075 3.6 16.8075C3.7671 16.8237 3.93573 16.8048 4.09508 16.752C4.25443 16.6991 4.40097 16.6135 4.52528 16.5007C4.64959 16.3879 4.74892 16.2503 4.81689 16.0968C4.88487 15.9433 4.91999 15.7773 4.91999 15.6094C4.91999 15.4415 4.88487 15.2755 4.81689 15.122C4.74892 14.9685 4.64959 14.8309 4.52528 14.718C4.40097 14.6052 4.25443 14.5196 4.09508 14.4668C3.93573 14.414 3.7671 14.395 3.6 14.4113C3.28075 14.4113 2.97457 14.2844 2.74882 14.0587C2.52307 13.8329 2.39625 13.5268 2.39625 13.2075V4.80375C2.39625 4.16673 2.6493 3.55581 3.09974 3.10537C3.55018 2.65493 4.16111 2.40188 4.79812 2.40188C5.43514 2.40188 6.04607 2.65493 6.49651 3.10537C6.94695 3.55581 7.2 4.16673 7.2 4.80375V32.4C7.2 33.3548 7.57928 34.2705 8.25442 34.9456C8.92955 35.6207 9.84522 36 10.8 36H32.4C32.8726 36.0004 33.3407 35.9072 33.7771 35.7257C34.2135 35.5442 34.6096 35.278 34.9425 34.9425C35.6159 34.2672 35.9959 33.3537 36 32.4V5.99625C35.997 4.40686 35.3643 2.88342 34.2405 1.75955C33.1166 0.635674 31.5931 0.00297361 30.0037 0ZM33.6038 32.4C33.6038 32.7193 33.4769 33.0254 33.2512 33.2512C33.0254 33.4769 32.7193 33.6038 32.4 33.6038H10.8C10.4807 33.6038 10.1746 33.4769 9.94882 33.2512C9.72307 33.0254 9.59625 32.7193 9.59625 32.4V4.80375C9.59181 3.96022 9.36271 3.1331 8.9325 2.4075H30.0037C30.9585 2.4075 31.8742 2.78678 32.5493 3.46192C33.2245 4.13705 33.6038 5.05272 33.6038 6.0075V32.4Z" fill="black"/>
<path d="M18.0002 10.8H25.2002C25.3673 10.8162 25.5359 10.7973 25.6952 10.7445C25.8546 10.6916 26.0011 10.606 26.1254 10.4932C26.2497 10.3804 26.3491 10.2428 26.4171 10.0893C26.485 9.93579 26.5201 9.76976 26.5201 9.60188C26.5201 9.434 26.485 9.26798 26.4171 9.11448C26.3491 8.96097 26.2497 8.82339 26.1254 8.71055C26.0011 8.59772 25.8546 8.51214 25.6952 8.4593C25.5359 8.40647 25.3673 8.38755 25.2002 8.40376H18.0002C17.8331 8.38755 17.6644 8.40647 17.5051 8.4593C17.3457 8.51214 17.1992 8.59772 17.0749 8.71055C16.9506 8.82339 16.8512 8.96097 16.7833 9.11448C16.7153 9.26798 16.6802 9.434 16.6802 9.60188C16.6802 9.76976 16.7153 9.93579 16.7833 10.0893C16.8512 10.2428 16.9506 10.3804 17.0749 10.4932C17.1992 10.606 17.3457 10.6916 17.5051 10.7445C17.6644 10.7973 17.8331 10.8162 18.0002 10.8Z" fill="black"/>
<path d="M27.5962 14.4H15.6037C15.4366 14.3838 15.2679 14.4027 15.1086 14.4555C14.9492 14.5084 14.8027 14.5939 14.6784 14.7068C14.5541 14.8196 14.4548 14.9572 14.3868 15.1107C14.3188 15.2642 14.2837 15.4302 14.2837 15.5981C14.2837 15.766 14.3188 15.932 14.3868 16.0855C14.4548 16.239 14.5541 16.3766 14.6784 16.4894C14.8027 16.6023 14.9492 16.6878 15.1086 16.7407C15.2679 16.7935 15.4366 16.8124 15.6037 16.7962H27.5962C27.7633 16.8124 27.9319 16.7935 28.0913 16.7407C28.2506 16.6878 28.3971 16.6023 28.5215 16.4894C28.6458 16.3766 28.7451 16.239 28.8131 16.0855C28.881 15.932 28.9162 15.766 28.9162 15.5981C28.9162 15.4302 28.881 15.2642 28.8131 15.1107C28.7451 14.9572 28.6458 14.8196 28.5215 14.7068C28.3971 14.5939 28.2506 14.5084 28.0913 14.4555C27.9319 14.4027 27.7633 14.3838 27.5962 14.4Z" fill="black"/>
<path d="M27.5962 20.3962H15.6037C15.4366 20.38 15.2679 20.399 15.1086 20.4518C14.9492 20.5046 14.8027 20.5902 14.6784 20.703C14.5541 20.8159 14.4548 20.9535 14.3868 21.107C14.3188 21.2605 14.2837 21.4265 14.2837 21.5944C14.2837 21.7623 14.3188 21.9283 14.3868 22.0818C14.4548 22.2353 14.5541 22.3729 14.6784 22.4857C14.8027 22.5985 14.9492 22.6841 15.1086 22.737C15.2679 22.7898 15.4366 22.8087 15.6037 22.7925H27.5962C27.8939 22.7636 28.1702 22.6249 28.3713 22.4034C28.5723 22.1819 28.6837 21.8935 28.6837 21.5944C28.6837 21.2952 28.5723 21.0068 28.3713 20.7853C28.1702 20.5638 27.8939 20.4251 27.5962 20.3962Z" fill="black"/>
<path d="M23.9962 26.4038H15.6037C15.4366 26.3875 15.2679 26.4065 15.1086 26.4593C14.9492 26.5121 14.8027 26.5977 14.6784 26.7106C14.5541 26.8234 14.4548 26.961 14.3868 27.1145C14.3188 27.268 14.2837 27.434 14.2837 27.6019C14.2837 27.7698 14.3188 27.9358 14.3868 28.0893C14.4548 28.2428 14.5541 28.3804 14.6784 28.4932C14.8027 28.606 14.9492 28.6916 15.1086 28.7445C15.2679 28.7973 15.4366 28.8162 15.6037 28.8H24.0074C24.1745 28.8162 24.3432 28.7973 24.5025 28.7445C24.6619 28.6916 24.8084 28.606 24.9327 28.4932C25.057 28.3804 25.1563 28.2428 25.2243 28.0893C25.2923 27.9358 25.3274 27.7698 25.3274 27.6019C25.3274 27.434 25.2923 27.268 25.2243 27.1145C25.1563 26.961 25.057 26.8234 24.9327 26.7106C24.8084 26.5977 24.6619 26.5121 24.5025 26.4593C24.3432 26.4065 24.1745 26.3875 24.0074 26.4038H23.9962Z" fill="black"/>
</g>
<defs>
<clipPath id="clip0_126_146">
<rect width="36" height="36" fill="white"/>
</clipPath>
</defs>
</svg>
