<svg width="16" height="16" viewBox="0 0 16 16" fill="none" xmlns="http://www.w3.org/2000/svg">
<path fill-rule="evenodd" clip-rule="evenodd" d="M1.25728 3.31606H9.00125V3.73437H1.25728C1.072 3.73437 0.918312 3.88806 0.918312 4.07334V10.2015C0.918312 10.3867 1.072 10.5404 1.25728 10.5404H7.99975C8.04825 10.9378 8.17787 11.3102 8.37147 11.6405H1.25728C0.840188 11.6405 0.5 11.3003 0.5 10.8832V4.07334C0.5 3.65625 0.840188 3.31606 1.25728 3.31606ZM13.7006 12.7169L13.383 13.0344C13.2613 13.1562 13.2613 13.3547 13.383 13.4764L14.5838 14.6772C14.7927 14.8861 15.1345 14.8861 15.3433 14.6772C15.5522 14.4683 15.5522 14.1266 15.3433 13.9177L14.1425 12.7169C14.0208 12.5952 13.8223 12.5952 13.7006 12.7169L13.7006 12.7169ZM10.8546 11.8795C9.92053 11.8795 9.16344 11.1224 9.16344 10.1884C9.16344 9.25437 9.92053 8.49728 10.8546 8.49728C11.7886 8.49728 12.5457 9.25437 12.5457 10.1884C12.5457 11.1224 11.7886 11.8795 10.8546 11.8795ZM13.0306 11.8835C12.9269 11.7799 12.9086 11.6234 12.9855 11.4986C13.2203 11.1176 13.3558 10.6688 13.3558 10.1884C13.3558 8.80696 12.236 7.68709 10.8545 7.68709C9.47309 7.68709 8.35322 8.80696 8.35322 10.1884C8.35322 11.5698 9.47309 12.6897 10.8545 12.6897C11.335 12.6897 11.7837 12.5542 12.1648 12.3193C12.2895 12.2424 12.446 12.2607 12.5497 12.3644L13.0431 12.8578C13.0651 12.8268 13.09 12.7971 13.1178 12.7693L13.4354 12.4517C13.4632 12.4239 13.4929 12.399 13.524 12.3769L13.0306 11.8835ZM10.8546 12.2545C9.71353 12.2545 8.78844 11.3294 8.78844 10.1884C8.78844 9.04737 9.71353 8.12228 10.8546 8.12228C11.9956 8.12228 12.9207 9.04737 12.9207 10.1884C12.9207 11.3294 11.9956 12.2545 10.8546 12.2545ZM12.1982 7.64484V4.07334C12.1982 3.88818 12.0443 3.73437 11.8592 3.73437H10.8538V3.31606H11.8592C12.2763 3.31606 12.6165 3.65625 12.6165 4.07334V7.91503C12.4856 7.81343 12.3457 7.72293 12.1982 7.64487V7.64484ZM10.4788 7.33653V2.56568C10.4788 2.53125 10.5069 2.50318 10.5413 2.50318H11.1038C11.1591 2.50318 11.1872 2.43681 11.1487 2.39715L9.97237 1.18525C9.94769 1.15981 9.90741 1.15981 9.88269 1.18525L8.70638 2.39715C8.66788 2.43681 8.69597 2.50318 8.75122 2.50318H9.31375C9.34819 2.50318 9.37625 2.53125 9.37625 2.56568V7.72081C9.7065 7.52253 10.0798 7.38862 10.4788 7.33653H10.4788ZM2.87316 7.31209C2.74347 7.31209 2.63766 7.4179 2.63766 7.54759V9.46272H3.74025V7.54759C3.74025 7.41803 3.63447 7.31209 3.50475 7.31209H2.87316ZM5.11934 6.06209C4.98966 6.06209 4.88384 6.1679 4.88384 6.29759V9.46272H5.98644V6.29759C5.98644 6.16806 5.88066 6.06209 5.75094 6.06209H5.11934ZM7.36553 4.81209C7.23584 4.81209 7.13003 4.9179 7.13003 5.04759V9.46272H8.07069C8.11191 9.30415 8.16625 9.1509 8.23259 9.00422V5.04756C8.23259 4.91803 8.12681 4.81206 7.99709 4.81206H7.3655L7.36553 4.81209ZM8.22188 13.453C7.97981 13.1517 7.82881 12.6705 7.78806 12.0155H5.32841C5.28763 12.6705 5.13662 13.1517 4.89459 13.453H8.22191H8.22188ZM3.61447 13.828H9.50197C9.77859 13.828 10.0049 14.0543 10.0049 14.3309V14.5814C10.0049 14.7204 9.8915 14.8338 9.75247 14.8338H3.364C3.22497 14.8338 3.11159 14.7204 3.11159 14.5814V14.3309C3.11159 14.0543 3.33788 13.828 3.61447 13.828ZM2.87316 6.93712H3.50475C3.84138 6.93712 4.11525 7.21103 4.11525 7.54762V9.46272H4.50884V6.29759C4.50884 5.96093 4.78266 5.68709 5.11934 5.68709H5.75094C6.08753 5.68709 6.36144 5.961 6.36144 6.29759V9.46272H6.75503V5.04759C6.75503 4.71093 7.02884 4.43709 7.36553 4.43709H7.99713C8.33372 4.43709 8.60763 4.71103 8.60763 5.04759V8.39303C8.72538 8.24587 8.85728 8.11056 9.00125 7.98909V4.1094H1.29331V10.1654H7.97856C7.97944 10.0546 7.98653 9.94525 7.99959 9.83772H2.01266C1.90909 9.83772 1.82516 9.75378 1.82516 9.65022C1.82516 9.54665 1.90909 9.46272 2.01266 9.46272H2.26266V7.54762C2.26266 7.21093 2.53647 6.93712 2.87316 6.93712ZM11.8232 7.4795V4.10937H10.8538V7.31209H10.8546C11.1944 7.31209 11.5205 7.37118 11.8232 7.4795Z" fill="#1B2431"/>
</svg>
