<svg width="28" height="29" viewBox="0 0 28 29" fill="none" xmlns="http://www.w3.org/2000/svg">
<g clip-path="url(#clip0_84_199)">
<path d="M25.3415 4.93452C25.5525 5.009 25.7767 5.04794 26.007 5.04794C26.5396 5.04794 27.0402 4.84056 27.4169 4.46393C28.1943 3.68644 28.1943 2.42151 27.4169 1.64401C26.6394 0.866682 25.3745 0.866737 24.5971 1.64401C24.2205 2.02065 24.0131 2.52131 24.0131 3.05392C24.0131 3.28421 24.052 3.50854 24.1265 3.71941L21.8653 4.7121L21.3156 5.48178L19.8133 3.97945L18.6492 5.14353L20.2486 6.74288L17.9557 9.03577C17.0264 8.73668 15.9646 8.49567 14.823 8.41435V12.596C15.5635 12.6773 16.335 12.8654 17.1266 13.1594L17.7307 13.3837L17.658 14.0239C17.3371 16.8468 16.467 19.3478 15.0716 21.4574C14.9908 21.5795 14.9074 21.7 14.823 21.8193V27.785C15.4807 27.3019 16.8648 26.1553 18.2436 24.1973C18.6627 23.602 19.0486 22.9777 19.4003 22.3278L24.2228 27.0817L26.0853 26.8748L26.2923 25.0122L20.6664 19.4662C20.7145 19.3298 20.7617 19.1929 20.8072 19.055C21.5751 16.7257 21.9644 14.1677 21.9644 11.452V11.0241L21.6142 10.7783C21.5762 10.7515 21.2998 10.5602 20.834 10.2965L22.3182 8.81237L23.9175 10.4117L25.0816 9.24763L23.5793 7.7453L24.3489 7.19558L25.3415 4.93452Z" fill="#182E46"/>
<path d="M13.1769 12.5952V8.41425C12.0481 8.4947 10.9971 8.73116 10.0754 9.02566L7.75546 6.73873L9.35064 5.14354L8.18656 3.97946L6.68423 5.48178L6.13446 4.71211L3.87334 3.71942C3.94782 3.50849 3.98676 3.28427 3.98676 3.05392C3.98676 2.52132 3.77939 2.02065 3.40275 1.64407C2.62537 0.866689 1.36044 0.866689 0.582998 1.64407C-0.194333 2.42151 -0.194333 3.68644 0.582998 4.46383C0.959578 4.84046 1.4603 5.04784 1.99285 5.04784C2.22314 5.04784 2.44741 5.0089 2.65834 4.93442L3.65103 7.19559L4.42071 7.74536L2.91838 9.24769L4.08247 10.4118L5.68596 8.80827L7.1849 10.2859C6.70759 10.5551 6.4243 10.7512 6.38575 10.7783L6.03553 11.0242V11.452C6.03553 14.1677 6.4249 16.7258 7.19277 19.0551C7.25397 19.2408 7.31828 19.4246 7.38429 19.6075L1.8435 25.148L2.05043 27.0106L3.91299 27.2175L8.67142 22.4591C9.0037 23.0618 9.36535 23.6422 9.75621 24.1972C11.135 26.1552 12.519 27.3017 13.1768 27.7849V21.8192C13.0923 21.6997 13.0088 21.5792 12.9283 21.4573C11.5323 19.3469 10.662 16.8446 10.3415 14.0202L10.2688 13.3801L10.8727 13.1558C11.6609 12.8629 12.4326 12.6757 13.1769 12.5952Z" fill="#182E46"/>
<path d="M14.0001 14.1953C13.3885 14.1953 12.7396 14.2953 12.064 14.4931C12.3761 16.5784 13.0256 18.4496 14.0001 20.071C14.974 18.4506 15.6234 16.5802 15.9357 14.4963C15.256 14.2964 14.6071 14.1953 14.0001 14.1953Z" fill="#182E46"/>
</g>
<defs>
<clipPath id="clip0_84_199">
<rect width="28" height="28" fill="white" transform="translate(0 0.422852)"/>
</clipPath>
</defs>
</svg>
