<svg width="16" height="16" viewBox="0 0 16 16" fill="none" xmlns="http://www.w3.org/2000/svg">
<g clip-path="url(#clip0_229_384)">
<path d="M11.2937 8.35082L11.0189 3.64737H8.80093V5.7594H7.86347V3.64737H4.25287V5.7594H3.31542V3.64737H1.09739L0.60475 12.0805C0.566408 12.7372 0.793836 13.3623 1.24516 13.8407C1.69648 14.3192 2.30727 14.5827 2.96499 14.5827H8.16511C7.86169 13.9919 7.69032 13.3226 7.69032 12.614C7.69032 10.4754 9.25132 8.69472 11.2937 8.35082Z" fill="#1B2431"/>
<path d="M4.25289 2.74273C4.25289 1.7473 5.06273 0.93746 6.05816 0.93746C7.05358 0.93746 7.86345 1.7473 7.86345 2.74273V3.64734H8.80091V2.74273C8.80091 1.23038 7.57053 0 6.05816 0C4.54578 0 3.31543 1.23038 3.31543 2.74273V3.64734H4.25289V2.74273Z" fill="#1B2431"/>
<path d="M15.4 12.614C15.4 10.747 13.881 9.22801 12.0139 9.22801C10.1469 9.22801 8.62793 10.747 8.62793 12.614C8.62793 14.4811 10.1469 16 12.0139 16C13.881 16 15.4 14.4811 15.4 12.614ZM11.507 14.2724L9.9844 12.5503L10.6867 11.9294L11.5372 12.8913L13.2987 11.0668L13.9731 11.7179L11.507 14.2724Z" fill="#1B2431"/>
</g>
<defs>
<clipPath id="clip0_229_384">
<rect width="16" height="16" fill="white"/>
</clipPath>
</defs>
</svg>
