<svg width="32" height="33" viewBox="0 0 32 33" fill="none" xmlns="http://www.w3.org/2000/svg">
<g clip-path="url(#clip0_84_231)">
<path d="M25.5696 28.6729H4.31958C3.80183 28.6729 3.38208 29.0926 3.38208 29.6104V31.4854C3.38208 32.0031 3.80183 32.4229 4.31958 32.4229H25.5696C26.0873 32.4229 26.5071 32.0031 26.5071 31.4854V29.6104C26.5071 29.0926 26.0873 28.6729 25.5696 28.6729Z" fill="#182E46"/>
<path d="M5.88208 24.9229V26.7979H24.0071V24.9229C24.0071 24.4051 23.5873 23.9854 23.0696 23.9854H6.81958C6.30183 23.9854 5.88208 24.4051 5.88208 24.9229Z" fill="#182E46"/>
<path d="M3.95031 17.972L5.54325 18.6547C5.26081 15.0099 5.87112 11.6653 7.32087 8.94813C8.83687 6.10688 11.2006 3.95075 14.3701 2.51025C14.1888 2.52038 14.0081 2.53382 13.8284 2.55213C11.9931 2.73932 10.3342 3.34832 8.89806 4.36219C7.30656 5.48569 6.03225 7.08119 5.11062 9.10444C4.11975 11.2798 3.53856 13.9575 3.38325 17.0635C3.36375 17.4551 3.58994 17.8175 3.95031 17.972Z" fill="#182E46"/>
<path d="M28.0461 11.3157L22.7084 5.44424L22.1233 1.23143C22.0738 0.87499 21.8246 0.578303 21.482 0.46799C21.1395 0.357678 20.764 0.453303 20.5158 0.713865L18.2012 3.14405C13.8331 4.29324 10.73 6.54193 8.9752 9.83074C7.61852 12.3735 7.09645 15.5766 7.46545 19.0939C7.59064 20.2872 7.79664 21.3249 7.98695 22.1103H21.5071V20.2353C21.5071 20.0399 21.4461 19.8494 21.3325 19.6904L19.0949 16.5576C18.8027 16.1486 18.8091 15.6036 19.1106 15.2015C19.4215 14.7871 19.9746 14.6321 20.4555 14.8244L24.3605 16.3863C25.2616 16.7469 26.2747 16.4797 26.881 15.7218L28.1356 14.1536C28.811 13.3093 28.7734 12.1157 28.0461 11.3157ZM19.6321 10.4853C19.1144 10.4853 18.6946 10.0656 18.6946 9.5478C18.6946 9.03005 19.1144 8.6103 19.6321 8.6103C20.1499 8.6103 20.5696 9.03005 20.5696 9.5478C20.5696 10.0656 20.1499 10.4853 19.6321 10.4853Z" fill="#182E46"/>
</g>
<defs>
<clipPath id="clip0_84_231">
<rect width="32" height="32" fill="white" transform="translate(0 0.422852)"/>
</clipPath>
</defs>
</svg>
