<svg width="32" height="33" viewBox="0 0 32 33" fill="none" xmlns="http://www.w3.org/2000/svg">
<g clip-path="url(#clip0_84_259)">
<path d="M15.8227 20.0082C17.8117 20.0082 19.424 18.3959 19.424 16.4069C19.424 14.418 17.8117 12.8057 15.8227 12.8057C13.8338 12.8057 12.2214 14.418 12.2214 16.4069C12.2214 18.3959 13.8338 20.0082 15.8227 20.0082Z" fill="#182E46"/>
<path d="M25.3849 12.1294H25.3839C24.2194 12.1294 23.2744 13.0745 23.2744 14.2399V16.3118C23.2744 20.3946 19.9635 23.7065 15.8797 23.7065C11.7957 23.7065 8.48418 20.3946 8.48418 16.3118V14.2399C8.48418 13.0736 7.53813 12.1294 6.37375 12.1294C5.20924 12.1294 4.26416 13.0745 4.26416 14.2399V16.2733C4.26416 20.0603 6.0766 23.4239 8.88095 25.544C9.0435 25.6669 9.13902 25.8588 9.13902 26.0626V31.7712C9.13902 32.131 9.4307 32.4227 9.79052 32.4227H21.8489C22.2088 32.4227 22.5004 32.131 22.5004 31.7712V26.1207C22.5004 25.9156 22.5971 25.7226 22.7614 25.5999C25.6358 23.4535 27.4944 20.0026 27.4944 16.1479V14.2398C27.4944 13.0745 26.5494 12.1294 25.3849 12.1294Z" fill="#182E46"/>
<path d="M12.4548 6.50486C12.5666 6.6407 12.6235 6.81341 12.6145 6.98912L12.4922 9.34967C12.4656 9.86248 12.9789 10.2305 13.456 10.0409L15.619 9.18113C15.7861 9.11467 15.9724 9.11467 16.1395 9.18113L18.3025 10.0409C18.7797 10.2305 19.2929 9.86248 19.2663 9.34967L19.144 6.98912C19.1349 6.81341 19.1918 6.6407 19.3037 6.50486L20.7651 4.72975C21.0885 4.33696 20.9016 3.74135 20.4118 3.60368L18.1412 2.96573C17.978 2.91986 17.8369 2.81673 17.7436 2.67522L16.4674 0.739583C16.189 0.317274 15.5694 0.317274 15.291 0.739583L14.0148 2.67528C13.9215 2.81679 13.7804 2.91992 13.6172 2.96579L11.3467 3.60375C10.8568 3.74135 10.6699 4.33696 10.9933 4.72982L12.4548 6.50486Z" fill="#182E46"/>
<path d="M9.38721 8.84517C9.76887 8.46358 9.76887 7.84478 9.38721 7.46312L5.5179 3.59381C5.13631 3.21222 4.5175 3.21222 4.13585 3.59381C3.7542 3.9754 3.7542 4.5942 4.13585 4.97586L8.00517 8.84517C8.38682 9.22683 9.00556 9.22676 9.38721 8.84517Z" fill="#182E46"/>
<path d="M27.8643 3.59381C27.4827 3.21222 26.8639 3.21222 26.4822 3.59381L22.6129 7.46312C22.2312 7.84471 22.2312 8.46352 22.6129 8.84517C22.9946 9.22683 23.6133 9.22683 23.9949 8.84517L27.8643 4.97586C28.2459 4.59427 28.2459 3.97546 27.8643 3.59381Z" fill="#182E46"/>
</g>
<defs>
<clipPath id="clip0_84_259">
<rect width="32" height="32" fill="white" transform="translate(0 0.422852)"/>
</clipPath>
</defs>
</svg>
