<svg width="29" height="33" viewBox="0 0 29 33" fill="none" xmlns="http://www.w3.org/2000/svg">
<g clip-path="url(#clip0_84_242)">
<path d="M12.5714 11.8519C16.9354 11.8519 25.1429 10.1331 25.1429 6.13763C25.1429 3.04048 19.3857 0.42334 12.5714 0.42334C5.75714 0.42334 0 3.04048 0 6.13763C0 9.23477 5.75714 11.8519 12.5714 11.8519ZM12.0497 2.1462C12.1633 1.88945 12.3434 1.66772 12.5714 1.50391C12.9439 1.23397 13.4171 1.14352 13.8629 1.25705C15.3172 1.58667 16.7043 2.163 17.964 2.96105C19.2989 3.86277 20.5606 5.37877 19.8011 6.77705C18.2857 9.5662 12.5543 9.5662 12.5537 9.5662C9.71428 9.5662 5.14286 8.57363 5.14286 5.85191C5.14286 3.83363 8.08228 2.27591 12.0497 2.1462Z" fill="#182E46"/>
<path d="M11.5114 8.38357L11.8765 3.29785C8.55136 3.45785 6.28564 4.72242 6.28564 5.85214C6.28564 6.93271 8.36222 8.15557 11.5114 8.38357Z" fill="#182E46"/>
<path d="M15.8382 3.11457C15.1053 2.80731 14.3497 2.55705 13.5782 2.366C13.4582 2.33868 13.3323 2.36511 13.2335 2.43837C13.1346 2.51164 13.0727 2.62441 13.0639 2.74714V2.758L12.6531 8.42316C13.6409 8.42457 14.6256 8.3126 15.5879 8.08943L15.8382 3.11457ZM14.8571 6.13743C14.8571 6.45302 14.6012 6.70886 14.2856 6.70886C13.9701 6.70886 13.7142 6.45302 13.7142 6.13743V5.566C13.7142 5.25041 13.9701 4.99457 14.2856 4.99457C14.6012 4.99457 14.8571 5.25041 14.8571 5.566V6.13743Z" fill="#182E46"/>
<path d="M18.7675 6.28746C19.1595 5.46117 18.0818 4.42174 17.3229 3.90803C17.2044 3.82803 17.0816 3.75013 16.9543 3.67432L16.7498 7.73774C17.82 7.33774 18.5012 6.84917 18.7675 6.28746Z" fill="#182E46"/>
<path d="M13.9754 28.1736C13.67 27.9503 13.284 27.8672 12.9137 27.9451C11.5823 28.1432 10.3361 27.2427 10.1063 25.9165C10.0641 25.5409 9.86515 25.2007 9.5585 24.9798C9.25185 24.759 8.86612 24.6781 8.49656 24.7571C7.90638 24.8468 7.30371 24.7186 6.80113 24.3965C6.28608 24.7588 5.78265 25.111 5.29084 25.4531C4.99554 25.659 4.81455 25.9921 4.80241 26.3519C4.79027 26.7117 4.94839 27.0562 5.22913 27.2816L10.9714 31.8731C11.3764 32.1984 11.9499 32.2097 12.3674 31.9005C13.2078 31.2734 14.0345 30.6312 14.8474 29.9736C14.6975 29.7027 14.5889 29.4109 14.5251 29.1079C14.4826 28.7326 14.2828 28.393 13.9754 28.1736ZM11.3034 29.9233C11.2087 30.0417 11.0709 30.1177 10.9202 30.1344C10.7695 30.1511 10.6183 30.1072 10.5 30.0125L7.64284 27.7268C7.39637 27.5295 7.35646 27.1698 7.5537 26.9233C7.75095 26.6769 8.11065 26.637 8.35713 26.8342L11.2143 29.1199C11.3327 29.2146 11.4086 29.3525 11.4253 29.5032C11.442 29.6538 11.3982 29.805 11.3034 29.9233Z" fill="#182E46"/>
<path d="M25.2737 3.13672C24.7557 2.67083 24.1741 2.28102 23.5463 1.979C25.0503 2.97786 26.3126 4.403 26.2857 6.20015C26.2342 7.23705 25.8134 8.22131 25.0994 8.975C22.1708 13.0139 14.4034 18.991 7.89941 23.6196C8.0705 23.6361 8.24281 23.6351 8.4137 23.6167C9.74276 23.4109 10.991 24.3098 11.2171 25.6356C11.2613 26.0119 11.4611 26.3524 11.7679 26.5747C12.0748 26.797 12.4607 26.8806 12.832 26.8053C14.1612 26.6061 15.4062 27.5049 15.6354 28.8293C15.667 28.9638 15.7068 29.0963 15.7548 29.2259C16.5988 28.523 17.4291 27.8104 18.2314 27.083L15.6286 24.8579C15.4734 24.7252 15.4008 24.5198 15.4382 24.3191C15.4755 24.1183 15.6171 23.9528 15.8096 23.8848C16.0021 23.8167 16.2163 23.8566 16.3714 23.9893L19.0703 26.299C19.8748 25.5476 20.6577 24.7876 21.4091 24.019L19.0566 22.0001C18.8926 21.8701 18.8128 21.6608 18.8486 21.4546C18.8845 21.2484 19.0302 21.0783 19.2284 21.0112C19.4266 20.9441 19.6457 20.9907 19.7994 21.1327L22.1994 23.1899C22.7971 22.5573 23.3834 21.9219 23.94 21.283C24.088 21.1116 24.2394 20.9401 24.392 20.763L22.6886 18.815C22.553 18.6614 22.5099 18.447 22.5758 18.2531C22.6417 18.0591 22.8063 17.9152 23.0074 17.8759C23.2084 17.8367 23.4151 17.908 23.5491 18.063L25.1428 19.883C25.8165 19.0859 26.4314 18.241 26.9828 17.355L25.8451 15.755C25.6621 15.4978 25.7222 15.1409 25.9794 14.9579C26.2366 14.7748 26.5935 14.8349 26.7766 15.0921L27.5891 16.235C27.9923 15.4157 28.2649 14.5385 28.3971 13.635C28.8514 10.2464 28.064 5.68643 25.2737 3.13672Z" fill="#182E46"/>
<path d="M5.14286 19.852V16.9949C5.14286 16.6793 5.39869 16.4234 5.71429 16.4234C6.02988 16.4234 6.28571 16.6793 6.28571 16.9949V20.1949C7.22449 20.4472 8.17896 20.6369 9.14286 20.7629V17.5663C9.14286 17.2507 9.39869 16.9949 9.71429 16.9949C10.0299 16.9949 10.2857 17.2507 10.2857 17.5663V20.4766C14.1591 17.691 17.8594 14.6725 21.3663 11.4377C18.5613 12.5149 15.5757 13.0435 12.5714 12.9949C6.876 12.9949 2.09714 11.3417 0 8.92285V15.2806C0 16.2834 0.628571 17.2514 1.71429 18.0983V15.2806C1.71429 14.965 1.97012 14.7091 2.28571 14.7091C2.60131 14.7091 2.85714 14.965 2.85714 15.2806V18.8514C3.58751 19.2528 4.3525 19.5877 5.14286 19.852Z" fill="#182E46"/>
</g>
<defs>
<clipPath id="clip0_84_242">
<rect width="28.5714" height="32" fill="white" transform="translate(0 0.42334)"/>
</clipPath>
</defs>
</svg>
