<svg width="32" height="32" viewBox="0 0 32 32" fill="none" xmlns="http://www.w3.org/2000/svg">
<g clip-path="url(#clip0_857_403)">
<path d="M10.4629 21.8066V25.0298C10.4629 25.4565 10.8087 25.8024 11.2353 25.8024H20.7637C21.1903 25.8024 21.5361 25.4565 21.5361 25.0298V21.8066C19.8666 22.6365 17.9868 23.1042 15.9995 23.1042C14.0122 23.1043 12.1323 22.6365 10.4629 21.8066Z" fill="black"/>
<path d="M12.6582 28.6569C12.6582 30.5005 14.1577 32.0004 16.0008 32.0004C17.8439 32.0004 19.3434 30.5005 19.3434 28.6569V27.6777H12.6582V28.6569Z" fill="black"/>
<path d="M16.0006 0C10.1513 0 5.39258 4.75981 5.39258 10.6105C5.39258 16.4612 10.1513 21.2209 16.0006 21.2209C21.85 21.2209 26.6087 16.4611 26.6087 10.6104C26.6087 4.75975 21.85 0 16.0006 0ZM23.6716 9.67275C24.1893 9.67275 24.6091 10.0926 24.6091 10.6104C24.6091 11.1283 24.1893 11.5481 23.6716 11.5481H23.5846C23.1588 15.0146 20.4037 17.7703 16.9381 18.1963V18.2832C16.9381 18.8011 16.5184 19.2209 16.0006 19.2209C15.4829 19.2209 15.0631 18.8011 15.0631 18.2832V18.1963C11.5976 17.7703 8.84252 15.0146 8.41664 11.5482H8.3297C7.81195 11.5482 7.3922 11.1284 7.3922 10.6105C7.3922 10.0926 7.81195 9.67281 8.3297 9.67281H8.41664C8.84252 6.20638 11.5976 3.45069 15.0631 3.02475V2.93781C15.0631 2.41994 15.4829 2.00012 16.0006 2.00012C16.5184 2.00012 16.9381 2.41994 16.9381 2.93781V3.02475C20.4037 3.45075 23.1588 6.20638 23.5847 9.67275H23.6716Z" fill="black"/>
<path d="M21.6481 9.68026H21.6905C21.2914 7.24957 19.3681 5.32588 16.938 4.92676V4.9692C16.938 5.48707 16.5182 5.90688 16.0005 5.90688C15.4827 5.90688 15.063 5.48707 15.063 4.9692V4.92676C12.6329 5.32588 10.7096 7.24963 10.3105 9.68026H10.3529C10.8707 9.68026 11.2904 10.1001 11.2904 10.6179C11.2904 11.1358 10.8707 11.5556 10.3529 11.5556H10.3105C10.7096 13.9863 12.6329 15.9101 15.063 16.3092V16.2668C15.063 15.7489 15.4827 15.3291 16.0005 15.3291C16.5182 15.3291 16.938 15.7489 16.938 16.2668V16.3092C19.3681 15.9101 21.2914 13.9863 21.6905 11.5556H21.6481C21.1304 11.5556 20.7106 11.1358 20.7106 10.6179C20.7106 10.1001 21.1304 9.68026 21.6481 9.68026ZM17.4743 11.5557H16.938V12.0921C16.938 12.6099 16.5183 13.0298 16.0005 13.0298C15.4828 13.0298 15.063 12.6099 15.063 12.0921V11.5557H14.5269C14.0091 11.5557 13.5894 11.1359 13.5894 10.618C13.5894 10.1001 14.0091 9.68032 14.5269 9.68032H15.063V9.14401C15.063 8.62613 15.4828 8.20632 16.0005 8.20632C16.5183 8.20632 16.938 8.62613 16.938 9.14401V9.68032H17.4743C17.992 9.68032 18.4118 10.1001 18.4118 10.618C18.4118 11.1359 17.992 11.5557 17.4743 11.5557Z" fill="black"/>
<path d="M3.44702 4.98782L2.43777 4.56069C1.96096 4.35888 1.41077 4.58194 1.20908 5.05894C1.00739 5.53594 1.23033 6.08613 1.70721 6.28794L2.71646 6.71507C2.83571 6.76557 2.95952 6.78944 3.08133 6.78944C3.44664 6.78944 3.79383 6.57457 3.94514 6.21688C4.14683 5.73982 3.92389 5.18957 3.44702 4.98782Z" fill="black"/>
<path d="M2.71646 15.8009L1.70721 16.228C1.23033 16.4298 1.00739 16.98 1.20908 17.457C1.36039 17.8147 1.70758 18.0296 2.07289 18.0296C2.19464 18.0296 2.31858 18.0056 2.43777 17.9552L3.44702 17.5281C3.92389 17.3263 4.14683 16.7761 3.94514 16.2991C3.74339 15.8222 3.19327 15.5991 2.71646 15.8009Z" fill="black"/>
<path d="M3.00081 11.258C3.00081 10.7401 2.58106 10.3203 2.06331 10.3203H0.9375C0.41975 10.3203 0 10.7401 0 11.258C0 11.7759 0.41975 12.1957 0.9375 12.1957H2.06331C2.58106 12.1957 3.00081 11.7759 3.00081 11.258Z" fill="black"/>
<path d="M30.2948 16.2281L29.2854 15.801C28.8085 15.5991 28.2584 15.8222 28.0568 16.2992C27.855 16.7762 28.0781 17.3264 28.5549 17.5282L29.5642 17.9553C29.6834 18.0058 29.8073 18.0297 29.9291 18.0297C30.2944 18.0297 30.6416 17.8148 30.7929 17.4571C30.9946 16.9801 30.7716 16.4298 30.2948 16.2281Z" fill="black"/>
<path d="M28.9205 6.78941C29.0423 6.78941 29.1662 6.76547 29.2854 6.71503L30.2947 6.28791C30.7715 6.08616 30.9945 5.53591 30.7929 5.05891C30.5911 4.58197 30.0412 4.35891 29.5642 4.56066L28.5549 4.98778C28.078 5.18953 27.855 5.73978 28.0567 6.21678C28.208 6.57447 28.5552 6.78941 28.9205 6.78941Z" fill="black"/>
<path d="M31.0632 10.3203H29.9375C29.4197 10.3203 29 10.7401 29 11.258C29 11.7759 29.4197 12.1957 29.9375 12.1957H31.0632C31.581 12.1957 32.0007 11.7759 32.0007 11.258C32.0007 10.7401 31.581 10.3203 31.0632 10.3203Z" fill="black"/>
</g>
<defs>
<clipPath id="clip0_857_403">
<rect width="32" height="32" fill="white"/>
</clipPath>
</defs>
</svg>
