<svg width="48" height="48" viewBox="0 0 48 48" fill="none" xmlns="http://www.w3.org/2000/svg">
<path d="M34.5 22.5003C34.8978 22.5003 35.2794 22.3422 35.5607 22.0609C35.842 21.7796 36 21.3981 36 21.0003V13.5003C36 12.3068 35.5259 11.1622 34.682 10.3183C33.8381 9.47438 32.6935 9.00028 31.5 9.00028H30C29.8184 7.74156 29.1861 6.59155 28.2205 5.7639C27.2549 4.93626 26.0217 4.48724 24.75 4.50028H17.25C15.9912 4.50535 14.7761 4.96255 13.8262 5.78855C12.8763 6.61456 12.2548 7.75438 12.075 9.00028H10.5C9.30653 9.00028 8.16193 9.47438 7.31802 10.3183C6.47411 11.1622 6 12.3068 6 13.5003V39.0003C6 40.1937 6.47411 41.3383 7.31802 42.1823C8.16193 43.0262 9.30653 43.5003 10.5 43.5003H19.5C19.8978 43.5003 20.2794 43.3422 20.5607 43.0609C20.842 42.7796 21 42.3981 21 42.0003C21 41.6025 20.842 41.2209 20.5607 40.9396C20.2794 40.6583 19.8978 40.5003 19.5 40.5003H10.5C10.1022 40.5003 9.72064 40.3422 9.43934 40.0609C9.15804 39.7796 9 39.3981 9 39.0003V13.5003C9 13.1025 9.15804 12.7209 9.43934 12.4396C9.72064 12.1583 10.1022 12.0003 10.5 12.0003H12.525C12.9494 12.8951 13.6183 13.6516 14.4544 14.1824C15.2905 14.7133 16.2596 14.9968 17.25 15.0003H24.75C25.7404 14.9968 26.7095 14.7133 27.5456 14.1824C28.3817 13.6516 29.0506 12.8951 29.475 12.0003H31.5C31.8978 12.0003 32.2794 12.1583 32.5607 12.4396C32.842 12.7209 33 13.1025 33 13.5003V21.0003C33 21.3981 33.158 21.7796 33.4393 22.0609C33.7206 22.3422 34.1022 22.5003 34.5 22.5003ZM24.75 12.0003H17.25C16.6533 12.0003 16.081 11.7632 15.659 11.3413C15.2371 10.9193 15 10.347 15 9.75028C15 9.15354 15.2371 8.58124 15.659 8.15929C16.081 7.73733 16.6533 7.50028 17.25 7.50028H24.75C25.3467 7.50028 25.919 7.73733 26.341 8.15929C26.7629 8.58124 27 9.15354 27 9.75028C27 10.347 26.7629 10.9193 26.341 11.3413C25.919 11.7632 25.3467 12.0003 24.75 12.0003Z" fill="black"/>
<path d="M30 19.5C30 19.1022 29.842 18.7206 29.5607 18.4393C29.2794 18.158 28.8978 18 28.5 18H13.5C13.1022 18 12.7206 18.158 12.4393 18.4393C12.158 18.7206 12 19.1022 12 19.5C12 19.8978 12.158 20.2794 12.4393 20.5607C12.7206 20.842 13.1022 21 13.5 21H28.5C28.8978 21 29.2794 20.842 29.5607 20.5607C29.842 20.2794 30 19.8978 30 19.5Z" fill="black"/>
<path d="M25.5 25.5C25.5 25.1022 25.342 24.7206 25.0607 24.4393C24.7794 24.158 24.3978 24 24 24H13.5C13.1022 24 12.7206 24.158 12.4393 24.4393C12.158 24.7206 12 25.1022 12 25.5C12 25.8978 12.158 26.2794 12.4393 26.5607C12.7206 26.842 13.1022 27 13.5 27H24C24.3978 27 24.7794 26.842 25.0607 26.5607C25.342 26.2794 25.5 25.8978 25.5 25.5Z" fill="black"/>
<path d="M13.5 30C13.1022 30 12.7206 30.158 12.4393 30.4393C12.158 30.7206 12 31.1022 12 31.5C12 31.8978 12.158 32.2794 12.4393 32.5607C12.7206 32.842 13.1022 33 13.5 33H19.5C19.8978 33 20.2794 32.842 20.5607 32.5607C20.842 32.2794 21 31.8978 21 31.5C21 31.1022 20.842 30.7206 20.5607 30.4393C20.2794 30.158 19.8978 30 19.5 30H13.5Z" fill="black"/>
<path d="M32.25 25.5C30.3216 25.5 28.4366 26.0718 26.8332 27.1432C25.2298 28.2145 23.9801 29.7373 23.2422 31.5188C22.5042 33.3004 22.3111 35.2608 22.6873 37.1521C23.0636 39.0434 23.9922 40.7807 25.3557 42.1443C26.7193 43.5079 28.4566 44.4365 30.3479 44.8127C32.2392 45.1889 34.1996 44.9958 35.9812 44.2578C37.7627 43.5199 39.2855 42.2702 40.3568 40.6668C41.4282 39.0634 42 37.1784 42 35.25C41.996 32.6654 40.9675 30.1877 39.1399 28.3601C37.3123 26.5325 34.8346 25.504 32.25 25.5ZM32.25 42C30.915 42 29.6099 41.6041 28.4999 40.8624C27.3899 40.1207 26.5247 39.0665 26.0138 37.8331C25.5029 36.5997 25.3693 35.2425 25.6297 33.9331C25.8902 32.6238 26.533 31.421 27.477 30.477C28.421 29.533 29.6238 28.8901 30.9331 28.6297C32.2425 28.3692 33.5997 28.5029 34.8331 29.0138C36.0665 29.5247 37.1207 30.3899 37.8624 31.4999C38.6041 32.6099 39 33.915 39 35.25C38.996 37.039 38.2836 38.7536 37.0186 40.0186C35.7536 41.2836 34.039 41.996 32.25 42Z" fill="black"/>
<path d="M34.4997 31.9353L31.0647 35.3853L29.8797 34.1853C29.5973 33.9028 29.2142 33.7441 28.8147 33.7441C28.4153 33.7441 28.0322 33.9028 27.7497 34.1853C27.4673 34.4677 27.3086 34.8508 27.3086 35.2503C27.3086 35.6497 27.4673 36.0328 27.7497 36.3153L29.9997 38.5653C30.1392 38.7059 30.3051 38.8175 30.4879 38.8936C30.6707 38.9698 30.8667 39.009 31.0647 39.009C31.2627 39.009 31.4588 38.9698 31.6416 38.8936C31.8244 38.8175 31.9903 38.7059 32.1297 38.5653L36.6297 34.0653C36.9122 33.7828 37.0709 33.3997 37.0709 33.0003C37.0709 32.6008 36.9122 32.2177 36.6297 31.9353C36.3473 31.6528 35.9642 31.4941 35.5647 31.4941C35.1653 31.4941 34.7822 31.6528 34.4997 31.9353Z" fill="black"/>
</svg>
