<svg width="28" height="29" viewBox="0 0 28 29" fill="none" xmlns="http://www.w3.org/2000/svg">
<path d="M17.907 4.42285C15.9108 4.42285 13.9594 5.0148 12.2996 6.12383C10.6398 7.23287 9.34617 8.80918 8.58225 10.6534C7.81834 12.4977 7.61846 14.5271 8.0079 16.4849C8.39735 18.4428 9.35861 20.2412 10.7701 21.6527C12.1817 23.0643 13.9801 24.0255 15.9379 24.415C17.8958 24.8044 19.9252 24.6045 21.7694 23.8406C23.6137 23.0767 25.19 21.783 26.299 20.1233C27.4081 18.4635 28 16.5121 28 14.5159C27.9966 11.8401 26.9321 9.2749 25.04 7.38283C23.148 5.49077 20.5828 4.4263 17.907 4.42285ZM21.2019 17.8108C21.0187 17.9937 20.7705 18.0964 20.5116 18.0964C20.2528 18.0964 20.0045 17.9937 19.8214 17.8108L17.2168 15.2061C17.0335 15.0231 16.9305 14.7748 16.9302 14.5159V9.30657C16.9302 9.04752 17.0332 8.79908 17.2163 8.61591C17.3995 8.43273 17.6479 8.32983 17.907 8.32983C18.166 8.32983 18.4145 8.43273 18.5977 8.61591C18.7808 8.79908 18.8837 9.04752 18.8837 9.30657V14.1122L21.2019 16.4303C21.3848 16.6134 21.4875 16.8617 21.4875 17.1205C21.4875 17.3794 21.3848 17.6276 21.2019 17.8108Z" fill="#182E46"/>
<path d="M8.7907 7.67859H4.88373C4.62468 7.67859 4.37624 7.57568 4.19306 7.3925C4.00989 7.20933 3.90698 6.96089 3.90698 6.70184C3.90698 6.44279 4.00989 6.19435 4.19306 6.01118C4.37624 5.828 4.62468 5.7251 4.88373 5.7251H8.7907C9.04975 5.7251 9.29819 5.828 9.48136 6.01118C9.66454 6.19435 9.76745 6.44279 9.76745 6.70184C9.76745 6.96089 9.66454 7.20933 9.48136 7.3925C9.29819 7.57568 9.04975 7.67859 8.7907 7.67859Z" fill="#182E46"/>
<path d="M6.18621 11.5858H2.27923C2.02019 11.5858 1.77175 11.4829 1.58857 11.2997C1.4054 11.1166 1.30249 10.8681 1.30249 10.6091C1.30249 10.35 1.4054 10.1016 1.58857 9.91841C1.77175 9.73523 2.02019 9.63232 2.27923 9.63232H6.18621C6.44526 9.63232 6.6937 9.73523 6.87687 9.91841C7.06005 10.1016 7.16295 10.35 7.16295 10.6091C7.16295 10.8681 7.06005 11.1166 6.87687 11.2997C6.6937 11.4829 6.44526 11.5858 6.18621 11.5858Z" fill="#182E46"/>
<path d="M6.18621 19.3993H2.27923C2.02019 19.3993 1.77175 19.2964 1.58857 19.1132C1.4054 18.93 1.30249 18.6816 1.30249 18.4225C1.30249 18.1635 1.4054 17.9151 1.58857 17.7319C1.77175 17.5487 2.02019 17.4458 2.27923 17.4458H6.18621C6.44526 17.4458 6.6937 17.5487 6.87687 17.7319C7.06005 17.9151 7.16295 18.1635 7.16295 18.4225C7.16295 18.6816 7.06005 18.93 6.87687 19.1132C6.6937 19.2964 6.44526 19.3993 6.18621 19.3993Z" fill="#182E46"/>
<path d="M6.18605 15.4926H0.976744C0.717695 15.4926 0.469257 15.3896 0.286082 15.2065C0.102907 15.0233 0 14.7749 0 14.5158C0 14.2568 0.102907 14.0083 0.286082 13.8251C0.469257 13.642 0.717695 13.5391 0.976744 13.5391H6.18605C6.44509 13.5391 6.69353 13.642 6.87671 13.8251C7.05988 14.0083 7.16279 14.2568 7.16279 14.5158C7.16279 14.7749 7.05988 15.0233 6.87671 15.2065C6.69353 15.3896 6.44509 15.4926 6.18605 15.4926Z" fill="#182E46"/>
<path d="M8.7907 23.3065H4.88373C4.62468 23.3065 4.37624 23.2036 4.19306 23.0204C4.00989 22.8373 3.90698 22.5888 3.90698 22.3298C3.90698 22.0707 4.00989 21.8223 4.19306 21.6391C4.37624 21.4559 4.62468 21.353 4.88373 21.353H8.7907C9.04975 21.353 9.29819 21.4559 9.48136 21.6391C9.66454 21.8223 9.76745 22.0707 9.76745 22.3298C9.76745 22.5888 9.66454 22.8373 9.48136 23.0204C9.29819 23.2036 9.04975 23.3065 8.7907 23.3065Z" fill="#182E46"/>
</svg>
