<svg width="28" height="28" viewBox="0 0 28 28" fill="none" xmlns="http://www.w3.org/2000/svg">
<path d="M25.6663 6.91258C24.7913 7.29175 23.8872 7.55425 22.9247 7.67091C23.9163 7.08758 24.6747 6.15425 25.0247 5.01675C24.0913 5.57091 23.0705 5.95008 21.9913 6.18341C21.1163 5.25008 19.8622 4.66675 18.4913 4.66675C15.8372 4.66675 13.708 6.82508 13.708 9.45008C13.708 9.82925 13.7372 10.1792 13.8247 10.5292C9.85801 10.3542 6.35801 8.42925 3.99551 5.54175C2.30384 8.57508 4.19967 11.0834 5.45384 11.9292C4.69551 11.9292 3.93717 11.6959 3.29551 11.3459C3.29551 13.7084 4.95801 15.6626 7.11634 16.1001C6.64967 16.2459 5.59967 16.3334 4.95801 16.1876C5.57051 18.0834 7.34968 19.4834 9.42051 19.5126C7.78718 20.7959 5.39551 21.8167 2.33301 21.4959C4.46217 22.8667 6.97051 23.6542 9.68301 23.6542C18.4913 23.6542 23.2747 16.3626 23.2747 10.0626C23.2747 9.85841 23.2747 9.65425 23.2455 9.45008C24.2372 8.72091 25.0538 7.87508 25.6663 6.91258Z" fill="#0397EC"/>
</svg>
