<svg width="20" height="20" viewBox="0 0 20 20" fill="none" xmlns="http://www.w3.org/2000/svg">
<path d="M18.3337 4.93815C17.7087 5.20898 17.0628 5.39648 16.3753 5.47982C17.0837 5.06315 17.6253 4.39648 17.8753 3.58398C17.2087 3.97982 16.4795 4.25065 15.7087 4.41732C15.0837 3.75065 14.1878 3.33398 13.2087 3.33398C11.3128 3.33398 9.79199 4.87565 9.79199 6.75065C9.79199 7.02148 9.81283 7.27148 9.87533 7.52148C7.04199 7.39648 4.54199 6.02148 2.85449 3.95898C1.64616 6.12565 3.00033 7.91732 3.89616 8.52148C3.35449 8.52148 2.81283 8.35482 2.35449 8.10482C2.35449 9.79232 3.54199 11.1882 5.08366 11.5007C4.75033 11.6048 4.00033 11.6673 3.54199 11.5632C3.97949 12.9173 5.25033 13.9173 6.72949 13.9382C5.56283 14.8548 3.85449 15.584 1.66699 15.3548C3.18783 16.334 4.97949 16.8965 6.91699 16.8965C13.2087 16.8965 16.6253 11.6882 16.6253 7.18815C16.6253 7.04232 16.6253 6.89648 16.6045 6.75065C17.3128 6.22982 17.8962 5.62565 18.3337 4.93815Z" fill="white"/>
</svg>
