<svg width="24" height="25" viewBox="0 0 24 25" fill="none" xmlns="http://www.w3.org/2000/svg">
<path d="M22 6.30635C21.25 6.63135 20.475 6.85635 19.65 6.95635C20.5 6.45635 21.15 5.65635 21.45 4.68135C20.65 5.15635 19.775 5.48135 18.85 5.68135C18.1 4.88135 17.025 4.38135 15.85 4.38135C13.575 4.38135 11.75 6.23135 11.75 8.48135C11.75 8.80635 11.775 9.10635 11.85 9.40635C8.45 9.25635 5.45 7.60635 3.425 5.13135C1.975 7.73135 3.6 9.88135 4.675 10.6063C4.025 10.6063 3.375 10.4063 2.825 10.1063C2.825 12.1313 4.25 13.8063 6.1 14.1813C5.7 14.3063 4.8 14.3813 4.25 14.2563C4.775 15.8813 6.3 17.0813 8.075 17.1063C6.675 18.2063 4.625 19.0813 2 18.8063C3.825 19.9813 5.975 20.6563 8.3 20.6563C15.85 20.6563 19.95 14.4063 19.95 9.00635C19.95 8.83135 19.95 8.65635 19.925 8.48135C20.775 7.85635 21.475 7.13135 22 6.30635Z" fill="#182E46"/>
</svg>
