<svg width="14" height="14" viewBox="0 0 14 14" fill="none" xmlns="http://www.w3.org/2000/svg">
<path d="M4.29126 1.37598C4.29126 1.0308 4.57108 0.750977 4.91626 0.750977H12.4162C12.7614 0.750977 13.0412 1.0308 13.0412 1.37598V8.87598C13.0412 9.22114 12.7614 9.50098 12.4162 9.50098C12.0711 9.50098 11.7912 9.22114 11.7912 8.87598V2.00098H4.91626C4.57108 2.00098 4.29126 1.72115 4.29126 1.37598Z" fill="#182E46" stroke="#182E46"/>
<path d="M12.8581 0.934033C13.1022 1.17811 13.1022 1.57384 12.8581 1.81792L2.25151 12.4246C2.00743 12.6686 1.61171 12.6686 1.36763 12.4246C1.12355 12.1805 1.12355 11.7847 1.36763 11.5406L11.9742 0.934033C12.2183 0.689958 12.614 0.689958 12.8581 0.934033Z" fill="#182E46" stroke="#182E46"/>
</svg>
