<svg width="20" height="20" viewBox="0 0 20 20" fill="none" xmlns="http://www.w3.org/2000/svg">
<path d="M7.29126 4.58337C7.29126 4.2382 7.57108 3.95837 7.91626 3.95837H15.4162C15.7614 3.95837 16.0412 4.2382 16.0412 4.58337V12.0834C16.0412 12.4285 15.7614 12.7084 15.4162 12.7084C15.0711 12.7084 14.7912 12.4285 14.7912 12.0834V5.20837H7.91626C7.57108 5.20837 7.29126 4.92855 7.29126 4.58337Z" fill="white" stroke="white"/>
<path d="M15.8581 4.14149C16.1022 4.38557 16.1022 4.7813 15.8581 5.02537L5.25151 15.632C5.00743 15.8761 4.61171 15.8761 4.36763 15.632C4.12355 15.3879 4.12355 14.9922 4.36763 14.7481L14.9742 4.14149C15.2183 3.89742 15.614 3.89742 15.8581 4.14149Z" fill="white" stroke="white"/>
</svg>
