<svg width="48" height="49" viewBox="0 0 48 49" fill="none" xmlns="http://www.w3.org/2000/svg">
<path d="M34 42.751V38.751C34 36.6292 33.1571 34.5944 31.6569 33.0941C30.1566 31.5938 28.1217 30.751 26 30.751H10C7.87827 30.751 5.84344 31.5938 4.34315 33.0941C2.84285 34.5944 2 36.6292 2 38.751V42.751" stroke="#182E46" stroke-width="3" stroke-linecap="round" stroke-linejoin="round"/>
<path d="M18 22.751C22.4183 22.751 26 19.1693 26 14.751C26 10.3327 22.4183 6.75098 18 6.75098C13.5817 6.75098 10 10.3327 10 14.751C10 19.1693 13.5817 22.751 18 22.751Z" stroke="#182E46" stroke-width="3" stroke-linecap="round" stroke-linejoin="round"/>
<path d="M46 42.751V38.751C45.9987 36.9784 45.4087 35.2565 44.3227 33.8556C43.2368 32.4547 41.7163 31.4541 40 31.011" stroke="#182E46" stroke-width="3" stroke-linecap="round" stroke-linejoin="round"/>
<path d="M32 7.01099C33.7208 7.45159 35.2461 8.45239 36.3353 9.85561C37.4245 11.2588 38.0157 12.9846 38.0157 14.761C38.0157 16.5373 37.4245 18.2631 36.3353 19.6664C35.2461 21.0696 33.7208 22.0704 32 22.511" stroke="#182E46" stroke-width="3" stroke-linecap="round" stroke-linejoin="round"/>
</svg>
