<svg width="52" height="52" viewBox="0 0 52 52" fill="none" xmlns="http://www.w3.org/2000/svg">
<path d="M44.2565 22.6849C41.9999 20.0384 39.1527 17.9593 35.9447 16.6156C35.8643 16.5949 35.7876 16.562 35.7172 16.5181C32.6351 15.2504 29.3322 14.6069 25.9996 14.6249C22.6562 14.6026 19.3418 15.2461 16.2496 16.5181C16.1792 16.562 16.1025 16.5949 16.0221 16.6156C12.8259 17.9637 9.9902 20.0425 7.74277 22.6849C6.94208 23.6037 6.50098 24.7812 6.50098 25.9999C6.50098 27.2186 6.94208 28.3962 7.74277 29.3149C9.99944 31.9615 12.8466 34.0406 16.0546 35.3843C16.1362 35.4013 16.2136 35.4345 16.2822 35.4818C19.3642 36.7495 22.6671 37.393 25.9996 37.3749C29.3431 37.3973 32.6575 36.7537 35.7497 35.4818C35.8182 35.4345 35.8956 35.4013 35.9772 35.3843C39.1852 34.0406 42.0324 31.9615 44.289 29.3149C45.0913 28.3969 45.5335 27.2191 45.5335 25.9999C45.5335 24.7808 45.0913 23.6029 44.289 22.6849H44.2565ZM25.9996 36.5624C23.9106 36.5624 21.8684 35.943 20.1314 34.7823C18.3944 33.6217 17.0406 31.9721 16.2412 30.042C15.4417 28.112 15.2325 25.9882 15.6401 23.9393C16.0477 21.8904 17.0536 20.0083 18.5308 18.5311C20.008 17.0539 21.8901 16.0479 23.939 15.6404C25.9879 15.2328 28.1117 15.442 30.0417 16.2415C31.9718 17.0409 33.6214 18.3947 34.782 20.1317C35.9427 21.8687 36.5622 23.9109 36.5622 25.9999C36.5622 28.8013 35.4493 31.4879 33.4685 33.4688C31.4876 35.4496 28.801 36.5624 25.9996 36.5624Z" fill="#1B2431"/>
<path d="M26 17.0625C24.2323 17.0625 22.5044 17.5867 21.0346 18.5687C19.5648 19.5508 18.4193 20.9467 17.7428 22.5798C17.0664 24.2129 16.8894 26.0099 17.2342 27.7436C17.5791 29.4773 18.4303 31.0698 19.6802 32.3198C20.9302 33.5697 22.5227 34.4209 24.2564 34.7658C25.9901 35.1106 27.7871 34.9336 29.4202 34.2572C31.0534 33.5807 32.4492 32.4352 33.4313 30.9654C34.4133 29.4956 34.9375 27.7677 34.9375 26C34.9375 23.6296 33.9959 21.3563 32.3198 19.6802C30.6437 18.0041 28.3704 17.0625 26 17.0625ZM30.875 29.0062C30.875 29.2864 30.7637 29.555 30.5656 29.7531C30.3675 29.9512 30.0989 30.0625 29.8188 30.0625C29.7676 30.071 29.7155 30.071 29.6644 30.0625C29.5168 30.0443 29.3749 29.9942 29.2486 29.9156C29.1223 29.8371 29.0146 29.7319 28.9331 29.6075C28.5327 28.9991 27.9876 28.4996 27.3466 28.1536C26.7057 27.8076 25.989 27.626 25.2606 27.625H23.9525L25.1306 30.5744C25.1702 30.6736 25.1898 30.7796 25.1884 30.8865C25.1869 30.9933 25.1644 31.0987 25.1222 31.1969C25.0799 31.295 25.0187 31.3838 24.9421 31.4582C24.8655 31.5326 24.7749 31.5912 24.6756 31.6306C24.5799 31.6684 24.4779 31.6877 24.375 31.6875C24.2123 31.6877 24.0533 31.6389 23.9185 31.5477C23.7838 31.4564 23.6796 31.3268 23.6194 31.1756L22.1731 27.5519C21.5975 27.4077 21.0942 27.0584 20.7577 26.5695C20.4212 26.0807 20.2746 25.4859 20.3454 24.8967C20.4162 24.3075 20.6995 23.7644 21.1422 23.3691C21.5849 22.9739 22.1566 22.7538 22.75 22.75H25.2606C25.9875 22.7508 26.7033 22.5717 27.3441 22.2286C27.9849 21.8855 28.5308 21.3891 28.9331 20.7837C29.0146 20.6593 29.1223 20.5542 29.2486 20.4756C29.3749 20.397 29.5168 20.3469 29.6644 20.3288C29.7155 20.3203 29.7676 20.3203 29.8188 20.3288C30.0961 20.3287 30.3623 20.4378 30.5599 20.6324C30.7576 20.8269 30.8707 21.0914 30.875 21.3687V29.0062Z" fill="#1B2431"/>
<path d="M41.4375 38.9999C41.071 39.0033 40.7099 39.0894 40.3813 39.2517L40.2919 39.1461L37.5781 36.4324C37.0581 36.6924 36.5219 36.9199 35.9531 37.1392L39.1137 40.2999L39.2194 40.3892C38.9925 40.8656 38.9263 41.4026 39.0308 41.9198C39.1352 42.4369 39.4046 42.9062 39.7985 43.2572C40.1924 43.6082 40.6895 43.8219 41.2152 43.8662C41.7409 43.9105 42.2669 43.7831 42.714 43.503C43.1611 43.223 43.5052 42.8054 43.6948 42.3131C43.8843 41.8207 43.909 41.2801 43.7652 40.7726C43.6213 40.265 43.3166 39.8178 42.8969 39.4981C42.4772 39.1785 41.9651 39.0036 41.4375 38.9999Z" fill="#1B2431"/>
<path d="M10.5626 12.9999C10.9292 12.9965 11.2902 12.9104 11.6189 12.7481L11.7083 12.8537L14.422 15.5674C14.942 15.3074 15.4783 15.0799 16.047 14.8606L12.8864 11.6999L12.7808 11.6106C13.0076 11.1342 13.0738 10.5972 12.9694 10.08C12.8649 9.5629 12.5955 9.0936 12.2016 8.74263C11.8077 8.39165 11.3106 8.17795 10.7849 8.13362C10.2592 8.08929 9.73328 8.21673 9.28617 8.49678C8.83906 8.77684 8.49488 9.1944 8.30533 9.68675C8.11578 10.1791 8.09109 10.7197 8.23497 11.2272C8.37885 11.7348 8.68353 12.182 9.10325 12.5017C9.52297 12.8213 10.0351 12.9962 10.5626 12.9999Z" fill="#1B2431"/>
<path d="M26.8125 43.2088C26.8175 43.1601 26.8175 43.1111 26.8125 43.0625V39H25.1875V43.0625C25.183 43.1084 25.183 43.1547 25.1875 43.2006C24.6454 43.3923 24.1885 43.7694 23.8976 44.2654C23.6066 44.7613 23.5004 45.3442 23.5976 45.9109C23.6948 46.4776 23.9893 46.9917 24.4289 47.3623C24.8685 47.733 25.425 47.9362 26 47.9362C26.575 47.9362 27.1315 47.733 27.5711 47.3623C28.0107 46.9917 28.3052 46.4776 28.4024 45.9109C28.4996 45.3442 28.3934 44.7613 28.1025 44.2654C27.8115 43.7694 27.3546 43.3923 26.8125 43.2006V43.2088Z" fill="#1B2431"/>
<path d="M25.1875 8.79119C25.1825 8.83981 25.1825 8.88882 25.1875 8.93744V12.9999H26.8125V8.93744C26.817 8.89151 26.817 8.84525 26.8125 8.79932C27.3546 8.60765 27.8115 8.23051 28.1025 7.73455C28.3934 7.23859 28.4996 6.65575 28.4024 6.08903C28.3052 5.52232 28.0107 5.00822 27.5711 4.63761C27.1315 4.26699 26.575 4.06372 26 4.06372C25.425 4.06372 24.8685 4.26699 24.4289 4.63761C23.9893 5.00822 23.6948 5.52232 23.5976 6.08903C23.5004 6.65575 23.6066 7.23859 23.8976 7.73455C24.1885 8.23051 24.6454 8.60765 25.1875 8.79932V8.79119Z" fill="#1B2431"/>
<path d="M12.8615 40.2918L16.0222 37.1312C15.4778 36.9118 14.9415 36.6843 14.3972 36.4243L11.6834 39.1381L11.594 39.2437C11.0755 38.9922 10.4847 38.9325 9.92642 39.0753C9.36812 39.2181 8.87846 39.554 8.54433 40.0235C8.2102 40.493 8.05323 41.0657 8.10126 41.64C8.14929 42.2142 8.39922 42.7529 8.8067 43.1604C9.21418 43.5679 9.75285 43.8178 10.3271 43.8658C10.9014 43.9139 11.4741 43.7569 11.9436 43.4228C12.4131 43.0886 12.749 42.599 12.8918 42.0407C13.0346 41.4824 12.9749 40.8916 12.7234 40.3731L12.8615 40.2918Z" fill="#1B2431"/>
<path d="M39.1382 11.708L35.9775 14.8686C36.5219 15.088 37.0582 15.3155 37.6025 15.5755L40.3163 12.8617L40.4057 12.7561C40.9242 13.0076 41.515 13.0673 42.0733 12.9245C42.6316 12.7817 43.1212 12.4458 43.4554 11.9763C43.7895 11.5068 43.9465 10.9341 43.8984 10.3598C43.8504 9.78557 43.6005 9.2469 43.193 8.83942C42.7855 8.43194 42.2468 8.18201 41.6726 8.13397C41.0983 8.08594 40.5256 8.24292 40.0561 8.57705C39.5866 8.91117 39.2507 9.40084 39.1079 9.95914C38.9651 10.5174 39.0248 11.1083 39.2763 11.6267L39.1382 11.708Z" fill="#1B2431"/>
</svg>
