<svg width="32" height="32" viewBox="0 0 32 32" fill="none" xmlns="http://www.w3.org/2000/svg">
<g clip-path="url(#clip0_857_366)">
<path d="M18.4946 31.1812C18.4946 31.1736 18.495 31.1659 18.495 31.1583C18.495 31.1473 18.495 31.1364 18.495 31.1252L18.4951 18.9975C18.4951 18.6908 18.6451 18.4036 18.8967 18.2282C20.2606 17.2781 21.0748 15.7204 21.0748 14.0613C21.0748 12.4469 20.2958 10.9472 19.0435 10.0029V11.0844C19.0435 11.3354 18.9429 11.5758 18.7642 11.752L16.6585 13.8283C16.2935 14.1882 15.707 14.1882 15.3421 13.8283L13.2364 11.752C13.0577 11.5758 12.9572 11.3353 12.9572 11.0844V10.0031C11.7048 10.9474 10.9258 12.447 10.9258 14.0613C10.9258 15.7204 11.74 17.2781 13.104 18.2282C13.3556 18.4036 13.5056 18.6908 13.5056 18.9975C13.5056 18.9975 13.5059 31.0396 13.506 31.1742C13.506 31.176 13.5061 31.1777 13.5061 31.1794C13.5061 31.5449 13.7816 31.8509 14.1468 31.8931C15.3691 32.0341 16.6317 32.0341 17.8541 31.8931C18.2191 31.8509 18.4946 31.5449 18.4946 31.1812Z" fill="black"/>
<path d="M31.1818 13.5052C30.0644 13.5052 29.0783 12.7969 28.7261 11.7425C28.5289 11.1523 28.2879 10.5705 28.0099 10.0135C27.5128 9.01748 27.7087 7.8183 28.4976 7.02948C28.7546 6.77248 28.7758 6.3608 28.5469 6.07198C27.7786 5.10223 26.8972 4.22092 25.9275 3.45255C25.6386 3.22361 25.227 3.24492 24.9699 3.50198C24.1812 4.2908 22.9819 4.48686 21.9859 3.98955C21.4289 3.71161 20.8472 3.47067 20.2569 3.27342C19.2026 2.92123 18.4942 1.93505 18.4942 0.819422C18.4942 0.453984 18.2188 0.147922 17.8536 0.105797C16.6313 -0.0352656 15.3685 -0.0352656 14.1463 0.105797C13.781 0.147922 13.5056 0.453984 13.5056 0.817734C13.5056 1.93511 12.7972 2.9213 11.7429 3.27348C11.1528 3.47067 10.571 3.71161 10.0139 3.98961C9.01788 4.48673 7.81875 4.2908 7.02994 3.50205C6.77287 3.24492 6.36119 3.22367 6.07244 3.45261C5.10275 4.22092 4.22137 5.10223 3.45306 6.07198C3.22419 6.36086 3.24544 6.77248 3.5025 7.02955C4.29131 7.8183 4.48725 9.01755 3.99006 10.0136C3.71213 10.5706 3.47119 11.1523 3.27394 11.7426C2.92175 12.7969 1.93556 13.5052 0.819938 13.5052C0.4545 13.5052 0.148438 13.7807 0.106312 14.1459C0.03575 14.757 0 15.3806 0 15.9995C0 16.6185 0.03575 17.242 0.106312 17.8532C0.148438 18.2185 0.4545 18.4939 0.81825 18.4939C1.93563 18.4939 2.92181 19.2022 3.274 20.2565C3.47119 20.8467 3.71212 21.4285 3.99012 21.9855C4.48725 22.9815 4.29131 24.1808 3.5025 24.9695C3.24544 25.2266 3.22419 25.6382 3.45306 25.927C4.22144 26.8968 5.10275 27.7781 6.0725 28.5465C6.36138 28.7754 6.773 28.7541 7.03006 28.497C7.52819 27.9989 8.19006 27.7372 8.861 27.7372C9.2525 27.7372 9.64706 27.8262 10.0141 28.0094C10.5354 28.2696 11.0787 28.4969 11.6302 28.6867V19.465C10.0061 18.1502 9.05044 16.1655 9.05044 14.0615C9.05044 12.6177 9.48938 11.2332 10.3198 10.0576C11.131 8.90924 12.2534 8.0428 13.5659 7.55186C13.8538 7.44423 14.1761 7.48442 14.4287 7.65961C14.6812 7.83473 14.8319 8.12261 14.8319 8.42992V10.6924L16 11.8444L17.1682 10.6924V8.42973C17.1682 8.12242 17.3188 7.83461 17.5714 7.65942C17.824 7.4843 18.1463 7.44398 18.4341 7.55167C19.7466 8.04255 20.869 8.90911 21.6803 10.0575C22.5107 11.2332 22.9496 12.6177 22.9496 14.0614C22.9496 16.1655 21.9939 18.1501 20.3699 19.465V28.6867C20.9214 28.4969 21.4646 28.2697 21.986 28.0094C22.982 27.5124 24.1812 27.7082 24.97 28.497C25.2271 28.754 25.6386 28.7754 25.9276 28.5465C26.8973 27.7781 27.7786 26.8968 28.547 25.927C28.7759 25.6382 28.7546 25.2265 28.4976 24.9695C27.7087 24.1807 27.5128 22.9815 28.01 21.9854C28.288 21.4284 28.5289 20.8466 28.7261 20.2564C29.0783 19.2022 30.0645 18.4938 31.1801 18.4938H31.1818C31.5455 18.4938 31.8516 18.2184 31.8937 17.8531C31.9642 17.242 32 16.6184 32 15.9995C32 15.3807 31.9643 14.757 31.8937 14.1459C31.8516 13.7806 31.5455 13.5052 31.1818 13.5052Z" fill="black"/>
</g>
<defs>
<clipPath id="clip0_857_366">
<rect width="32" height="32" fill="white"/>
</clipPath>
</defs>
</svg>
