<svg width="32" height="32" viewBox="0 0 32 32" fill="none" xmlns="http://www.w3.org/2000/svg">
<g clip-path="url(#clip0_857_345)">
<path d="M0.640625 4.86365V27.0076C0.640625 29.3116 2.56062 31.2316 4.86462 31.2316H27.0086C29.3126 31.2316 31.2326 29.3116 31.2326 27.0076V4.86365C31.2326 2.55965 29.3126 0.639648 27.0086 0.639648H4.86462C2.56062 0.639648 0.640625 2.55965 0.640625 4.86365ZM28.8006 11.0076V27.0076C28.8006 27.9036 28.0326 28.6716 27.1366 28.6716H4.86462C3.96862 28.6716 3.20062 27.9036 3.20062 27.0076V11.0076C3.20062 10.1116 3.96862 9.34365 4.86462 9.34365H27.0086C28.0326 9.34365 28.8006 10.1116 28.8006 11.0076ZM14.9766 3.96765H26.1126C26.7526 3.96765 27.3926 4.60765 27.3926 5.24765C27.3926 5.88765 26.7526 6.52765 26.1126 6.52765H14.9766C14.2086 6.52765 13.6966 5.88765 13.6966 5.24765C13.6966 4.60765 14.2086 3.96765 14.9766 3.96765ZM9.34463 3.96765C10.1126 3.96765 10.6246 4.60765 10.6246 5.24765C10.6246 5.88765 10.1126 6.52765 9.34463 6.52765C8.57662 6.52765 8.06463 5.88765 8.06463 5.24765C8.06463 4.60765 8.57662 3.96765 9.34463 3.96765ZM7.04062 5.24765C7.04062 5.88765 6.52863 6.52765 5.76062 6.52765C5.12063 6.52765 4.48062 5.88765 4.48062 5.24765C4.48062 4.60765 5.12063 3.96765 5.76062 3.96765C6.52863 3.96765 7.04062 4.60765 7.04062 5.24765Z" fill="black"/>
<path d="M22.5295 14.8479C22.0175 14.3359 21.2495 14.3359 20.7375 14.8479C20.2255 15.3599 20.2255 16.1279 20.7375 16.6399L22.6575 18.5599L20.7375 20.4799C20.2255 20.9919 20.2255 21.7599 20.7375 22.2719C21.2495 22.7839 22.0175 22.7839 22.5295 22.2719L25.4735 19.4559C25.9855 18.9439 25.9855 18.0479 25.4735 17.6639L22.5295 14.8479Z" fill="black"/>
<path d="M11.2645 14.9758C10.7525 14.4638 9.98453 14.4638 9.47253 14.9758L6.52853 17.7918C6.01653 18.3038 6.01653 19.1998 6.52853 19.5838L9.47253 22.3998C9.98453 22.9118 10.7525 22.9118 11.2645 22.3998C11.7765 21.8878 11.7765 21.1198 11.2645 20.6078L9.34453 18.6878L11.2645 16.7678C11.7765 16.2558 11.7765 15.4878 11.2645 14.9758Z" fill="black"/>
<path d="M18.1765 11.5196C17.5365 11.3916 16.7685 11.7756 16.6405 12.4156L13.4405 23.9356C13.3125 24.5756 13.6965 25.3436 14.3365 25.4716C14.9765 25.5996 15.7445 25.2156 15.8725 24.5756L19.0725 13.0556C19.2005 12.4156 18.8165 11.7756 18.1765 11.5196Z" fill="black"/>
</g>
<defs>
<clipPath id="clip0_857_345">
<rect width="32" height="32" fill="white"/>
</clipPath>
</defs>
</svg>
